<?xml version="1.0" encoding="UTF-8" standalone="no"?>
<svg width="15px" height="17px" viewBox="0 0 15 17" version="1.1" xmlns="http://www.w3.org/2000/svg" xmlns:xlink="http://www.w3.org/1999/xlink">
    <!-- Generator: Sketch 3.7.1 (28215) - http://www.bohemiancoding.com/sketch -->
    <title>flag-symbol-1</title>
    <desc>Created with Sketch.</desc>
    <defs></defs>
    <g id="icons" stroke="none" stroke-width="1" fill="none" fill-rule="evenodd">
        <g id="Symbols" transform="translate(-568.000000, -733.000000)" fill="#979797">
            <g id="flag-symbol-1" transform="translate(568.000000, 733.000000)">
                <path d="M12.2050328,5.7952623 L14.787,10.3550164 C14.9313443,10.6090328 14.8423279,10.9323934 14.5880656,11.0764918 C14.5054426,11.1232131 14.4154426,11.1470656 14.326918,11.1470656 L3.18363934,11.1470656 C2.89052459,11.1470656 2.65298361,10.9092787 2.65298361,10.6161639 L2.65298361,1.06116393 C2.65298361,0.768295082 2.89052459,0.530754098 3.18363934,0.530754098 L14.326918,0.530754098 C14.6197869,0.530754098 14.8575738,0.768295082 14.8575738,1.06116393 C14.8575738,1.17132787 14.8238852,1.27337705 14.7665902,1.35821311 L12.2050328,5.7952623 Z M1.59191803,16.1841148 C1.59191803,16.6237869 1.23560656,16.9798525 0.795934426,16.9798525 C0.356262295,16.9798525 -4.91803276e-05,16.6237869 -4.91803276e-05,16.1841148 L-4.91803276e-05,0.796081967 C-4.91803276e-05,0.356409836 0.356262295,9.8360656e-05 0.795934426,9.8360656e-05 C1.23560656,9.8360656e-05 1.59191803,0.356409836 1.59191803,0.796081967 L1.59191803,16.1841148 Z" id="fill-1"></path>
            </g>
        </g>
    </g>
</svg>