<?xml version="1.0"?>
<svg xmlns="http://www.w3.org/2000/svg" version="1.2" baseProfile="tiny" width="75" height="120" viewBox="0 0 75 120" stroke-linecap="round" stroke-linejoin="round">
<g id="out">
<path stroke="#000000" stroke-width="0.5" fill="#bee2f1" d="M 15.659 98.6998 21.1865 99.3363 23.5406 99.5999 22.1684 113.718 16.5397 113.1093 2.2592 111.1641 1 107.8596 1.8892 107.0378 4.74 107.5278 7.3913 106.5178 9.2357 103.1714 11.2925 100.7318 15.659 98.6998 Z" id="geometry_finland_selected_all.fid-3c92ea55_173c704bce9_64ce" data-reference="http://gml.fmi.fi/static/2016/FI/sea_region.xml#sea_region.B7W"/>
<path stroke="#000000" stroke-width="0.5" fill="#bee2f1" d="M 11.3084 77.4584 29.0454 79.6539 29.5375 79.2557 29.8792 80.4752 30.8944 84.0178 30.2795 85.4911 30.0478 87.6048 29.225 88.6333 28.9631 90.6834 29.4157 93.0187 29.5289 93.5944 29.2703 93.8169 21.8579 93.0956 12.6381 91.9891 12.2265 91.9321 10.913 92.4227 10.2496 91.3429 8.6272 90.2394 8.6665 87.2275 9.7265 80.3686 11.3084 77.4584 Z" id="geometry_finland_selected_all.fid-3c92ea55_173c704bce9_64cf" data-reference="http://gml.fmi.fi/static/2016/FI/sea_region.xml#sea_region.B3S"/>
<path stroke="#000000" stroke-width="0.5" fill="#bee2f1" d="M 11.3084 77.4584 11.855 75.4909 11.7721 72.3967 13.1553 70.8171 14.059 66.2827 14.713 64.89 15.8994 66.2535 16.8305 67.277 19.3924 65.1441 22.4078 62.554 23.42 63.2669 23.7244 63.7262 23.4799 65.1322 29.3396 72.2076 29.9225 72.0939 30.4306 72.7516 30.3673 80.5213 29.8792 80.4752 29.5375 79.2557 29.0454 79.6539 11.3084 77.4584 Z" id="geometry_finland_selected_all.fid-3c92ea55_173c704bce9_64d0" data-reference="http://gml.fmi.fi/static/2016/FI/sea_region.xml#sea_region.B3N"/>
<path stroke="#000000" stroke-width="0.5" fill="#bee2f1" d="M 15.659 98.6998 15.6063 97.8575 15.324 96.8408 14.6381 97.0807 14.2782 96.3797 13.3226 94.0433 12.7647 93.0667 12.6381 91.9891 21.8579 93.0956 21.1865 99.3363 15.659 98.6998 Z" id="geometry_finland_selected_all.fid-3c92ea55_173c704bce9_64d1" data-reference="http://gml.fmi.fi/static/2016/FI/sea_region.xml#sea_region.B4W"/>
<path stroke="#000000" stroke-width="0.5" fill="#bee2f1" d="M 20.0565 95.5031 20.0572 95.5748 20.0303 95.8079 20.026 95.8209 19.9745 95.9975 19.9745 96.0026 19.376 96.1565 19.3154 95.549 19.846 94.755 20.0565 95.5031 Z M 21.5082 96.8719 21.5094 96.8673 21.2796 96.677 21.2731 96.6742 21.2719 96.6737 21.2289 97.1756 21.2236 97.1811 21.1926 97.2401 21.1868 97.2621 21.1504 97.2874 21.1426 97.2772 21.1391 97.2461 21.14 97.2227 21.1314 97.2014 21.1011 97.1969 21.0928 97.1812 21.1324 97.0228 21.1105 96.6611 21.0917 96.6627 21.0749 96.7644 21.0757 96.7741 21.0604 96.8189 21.0614 96.826 21.0697 96.8276 21.074 96.8347 21.0562 96.883 21.075 96.8985 21.0852 96.9172 21.0819 96.9305 21.0584 96.9661 21.0365 96.9676 21.0327 96.9932 21.0349 97.0042 21.0412 97.0085 21.0509 97.038 21.0141 97.0677 20.2299 96.4038 20.2286 96.4002 20.1376 95.4692 20.5274 95.1636 20.7276 95.733 20.7272 95.7244 20.7268 95.7165 21.0725 94.9948 21.0589 94.6544 21.0581 94.6517 20.7243 94.4183 20.7787 93.8144 21.3154 93.7255 21.5302 94.139 21.5238 94.1506 21.4147 94.3306 21.4146 94.3311 21.4134 94.3379 21.6548 94.2435 21.6583 94.237 21.7161 94.2808 21.7182 94.282 21.7207 94.2834 22.1339 94.2974 22.6511 94.8331 22.5072 95.0246 22.4749 95.1406 22.4541 95.1438 22.4518 95.1442 22.5034 95.164 22.5069 95.0893 22.5681 95.0661 22.7959 95.1333 22.8855 95.4127 22.7604 95.8568 22.3693 96.1851 21.9173 96.0753 21.7412 95.5528 21.7357 95.5513 21.6808 95.5488 21.6702 95.5361 21.5168 94.9808 21.5154 95.0094 21.5098 95.179 21.5053 95.1895 21.644 95.7472 21.5604 95.8325 21.6054 95.9417 21.5568 96.0384 21.4674 95.952 21.4753 95.9614 21.4757 95.9619 21.5499 96.1375 21.5986 96.018 21.7515 96.0223 21.5369 96.8667 21.5366 96.8711 21.5362 96.8766 21.888 96.7813 22.3987 97.0019 22.399 96.9964 22.3991 96.9951 22.4767 96.7004 22.8734 96.6667 22.4931 97.1571 22.4909 97.1571 22.2346 98.0098 21.8762 97.7861 21.3992 97.088 21.5082 96.8719 Z" id="geometry_finland_selected_all.fid-3c92ea55_173c704bce9_64d2" data-reference="http://gml.fmi.fi/static/2016/FI/county.xml#county.21"/>
<path stroke="#000000" stroke-width="0.5" fill="#bee2f1" d="M 29.4157 93.0187 29.8133 92.7177 30.5424 92.1545 30.6894 93.0275 32.3221 93.3452 32.8949 94.4776 34.5529 94.4336 36.1388 95.1235 36.4178 95.6825 36.9385 98.3849 36.5832 99.5966 36.3263 100.2563 35.3726 100.5205 23.5406 99.5999 21.1865 99.3363 21.8579 93.0956 29.2703 93.8169 29.5289 93.5944 29.4157 93.0187 Z" id="geometry_finland_selected_all.fid-3c92ea55_173c704bce9_64d3" data-reference="http://gml.fmi.fi/static/2016/FI/sea_region.xml#sea_region.B4E"/>
<path stroke="#000000" stroke-width="0.5" fill="#bee2f1" d="M 22.1684 113.718 23.5406 99.5999 35.3726 100.5205 34.8874 108.5821 37.2076 108.3208 37.7207 108.0258 37.804 106.8009 39.3755 111.8171 37.9852 111.751 37.8416 112.3229 37.4399 111.8967 37.3041 112.5241 36.4943 112.5606 35.8215 112.3649 35.1355 112.762 30.8031 113.8318 30.6494 115.5782 29.5717 114.8271 29.0902 114.3163 22.1684 113.718 Z" id="geometry_finland_selected_all.fid-3c92ea55_173c704bce9_64d4" data-reference="http://gml.fmi.fi/static/2016/FI/sea_region.xml#sea_region.B7E"/>
<path stroke="#000000" stroke-width="0.5" fill="#bee2f1" d="M 34.997 67.3338 35.1007 67.5888 34.7674 68.4173 34.2623 68.5632 33.0521 69.6287 32.5387 68.7962 31.7376 69.1576 31.8824 70.0837 31.2992 70.7667 30.9152 71.0391 30.0747 72.0639 29.9225 72.0939 29.3396 72.2076 23.4799 65.1322 23.7244 63.7262 26.3327 61.4464 28.646 59.9662 28.8011 59.8657 34.5676 66.2718 34.997 67.3338 Z" id="geometry_finland_selected_all.fid-3c92ea55_173c704bce9_64d5" data-reference="http://gml.fmi.fi/static/2016/FI/sea_region.xml#sea_region.B2"/>
<path stroke="#000000" stroke-width="0.5" fill="#bee2f1" d="M 28.646 59.9662 28.3024 59.5504 31.3057 56.7797 31.4778 56.1202 43.9017 56.9237 44.0638 56.3272 44.3358 56.3379 43.08 58.0521 41.3426 60.5227 40.4418 62.1453 39.385 63.2659 38.0275 64.1682 37.2021 65.4918 35.9806 65.4111 35.2551 67.6212 34.997 67.3338 34.5676 66.2718 28.8011 59.8657 28.646 59.9662 Z" id="geometry_finland_selected_all.fid-3c92ea55_173c704bce9_64d7" data-reference="http://gml.fmi.fi/static/2016/FI/sea_region.xml#sea_region.B1S"/>
<path stroke="#000000" stroke-width="0.5" fill="#bee2f1" d="M 31.4778 56.1202 30.8078 56.0278 28.6422 53.4993 30.5869 51.6749 31.8583 49.9008 31.3742 49.3075 31.4972 47.4274 33.6761 46.2785 33.7368 43.784 36.7726 42.5617 39.4815 42.866 43.1951 43.4918 45.6068 44.7452 48.1168 47.0086 48.7472 52.61 47.7122 54.8318 46.152 54.1185 45.2577 54.5134 44.2849 55.5098 44.0638 56.3272 43.9017 56.9237 31.4778 56.1202 Z" id="geometry_finland_selected_all.fid-3c92ea55_173c704bce9_64d9" data-reference="http://gml.fmi.fi/static/2016/FI/sea_region.xml#sea_region.B1N"/>
<path stroke="#000000" stroke-width="0.5" fill="#bee2f1" d="M 35.3726 100.5205 36.3263 100.2563 36.5832 99.5966 36.9385 98.3849 37.0746 97.9185 37.761 98.3175 37.9951 97.9922 38.2064 98.1257 38.1534 98.4728 38.1023 99.0844 47.2544 96.0604 48.2692 95.3297 49.0532 95.4763 49.2062 95.7447 49.2785 95.7765 49.6686 95.948 49.554 103.5473 49.107 103.7029 46.7183 104.5215 44.1854 104.9263 41.5365 105.5048 40.4868 106.3726 37.804 106.8009 37.7207 108.0258 37.2076 108.3208 34.8874 108.5821 35.3726 100.5205 Z" id="geometry_finland_selected_all.fid-3c92ea55_173c704bce9_64e0" data-reference="http://gml.fmi.fi/static/2016/FI/sea_region.xml#sea_region.B5W"/>
<path stroke="#000000" stroke-width="0.5" fill="#bee2f1" d="M 49.107 103.7029 49.554 103.5473 49.6686 95.948 49.2785 95.7765 49.2933 95.0922 49.3132 94.7907 49.6469 94.9584 53.6492 93.4676 56.2471 93.5602 56.8684 93.0658 58.7984 93.6312 60.3112 93.3612 60.659 92.604 61.705 91.671 62.7699 91.643 62.697 95.4645 64.1813 96.8756 65.5288 96.6476 67.8983 97.0983 68.68 98.3371 69.0515 98.5018 70.0868 99.1793 69.6473 101.3859 65.1381 101.0276 64.4295 101.7788 61.9838 103.1206 60.7273 104.7848 59.9388 102.5351 59.8257 102.8226 60.0787 105.8545 58.2805 106.1756 55.0242 106.1993 52.7745 105.2171 51.4304 104.7181 49.0899 104.4925 49.107 103.7029 Z" id="geometry_finland_selected_all.fid-3c92ea55_173c704bce9_64f4" data-reference="http://gml.fmi.fi/static/2016/FI/sea_region.xml#sea_region.B5E"/>
<path stroke="#000000" stroke-width="0.5" fill="#6af86a" d="M 28.91 97.443 28.5184 97.0626 28.8211 96.696 29.4289 96.83 29.2882 97.3885 28.91 97.443 Z M 30.1498 96.4972 30.5631 96.8969 30.2759 97.3888 29.5584 97.3231 29.6247 96.6305 30.1498 96.4972 Z M 28.7347 93.3063 28.733 93.3822 28.4763 93.8429 27.5483 92.374 27.9402 92.1358 28.2196 92.7364 28.7347 93.3063 Z M 30.2663 94.2158 30.6133 94.0914 31.1656 95.364 30.2162 95.2048 30.0703 94.8099 30.2663 94.2158 Z M 32.7165 95.3157 33.142 95.5632 32.8312 96.4169 32.1863 96.8509 31.4628 96.4135 31.5216 95.6112 32.3728 95.7326 32.7165 95.3157 Z M 35.6546 97.9977 35.0959 97.5765 34.9956 97.1482 34.9924 97.1467 34.9864 97.144 34.5045 98.5947 33.8745 98.9062 33.3717 98.516 32.544 98.6869 32.5064 98.1725 32.9243 97.4684 32.8256 97.0627 33.7647 96.6809 34.988 96.5792 34.9893 96.5766 34.9896 96.5761 35.2968 96.0047 35.5594 96.121 35.2414 96.5232 35.2295 96.5276 35.218 96.5318 34.9913 97.1286 34.9935 97.1343 35.3766 96.4287 35.7927 96.0179 35.5552 95.8286 35.0772 96.0228 35.0717 96.0237 35.0687 96.0242 34.6548 96.4639 33.8267 96.5994 33.1423 96.1556 33.8732 95.2704 33.8765 95.2635 33.8563 95.2066 33.8543 95.2091 33.8537 95.2098 32.8207 95.2303 32.3797 94.9014 32.3829 94.885 31.6701 94.3241 31.6679 94.3135 31.5477 94.4253 31.5462 94.4288 31.5534 94.4322 31.5598 94.4396 31.5673 94.4524 31.2169 94.6805 31.183 94.0178 31.1758 94.0171 31.1668 94.0161 30.5455 93.7347 30.545 93.7417 30.5447 93.7455 30.1951 93.7612 30.1948 93.7573 30.1932 93.7377 30.3643 93.0484 30.3787 93.0249 30.3763 93.0171 30.2035 92.7866 30.1916 92.7825 30.1908 92.7822 29.8496 92.8159 29.845 92.8159 29.8404 92.8159 29.5437 93.6352 28.648 92.9021 28.5438 92.5255 28.5387 92.5133 28.6029 92.5151 28.6042 92.5155 28.6083 92.5168 28.6451 92.4999 28.6681 92.4944 28.1853 91.9355 28.6045 91.3712 28.3166 90.4228 28.3729 90.0367 27.9894 89.6392 28.3392 89.3626 28.6789 89.7089 28.6838 89.7245 28.6841 89.7256 28.7074 89.692 28.7068 89.6755 28.3303 88.2067 28.8675 88.5691 29.1231 89.0431 29.9441 89.1414 30.767 89.0833 31.3961 90.0498 31.9862 90.1745 32.1155 90.4872 32.6223 90.0041 33.8196 89.8619 34.1097 89.9956 34.1126 89.5108 34.668 89.5791 35.2535 89.3659 35.3356 88.8474 35.9137 89.1262 36.1239 89.335 36.7288 89.2874 36.934 89.5858 37.3599 90.048 37.1975 90.6547 36.6888 90.5968 36.62 91.71 37.4112 92.2846 37.7698 92.0986 38.2031 92.0804 38.3517 92.4643 38.9995 92.6978 39.2724 92.9811 39.9919 93.0599 40.0644 93.4755 39.8006 94.3949 39.1649 94.5228 39.3638 94.9125 39.0356 96.2386 38.6306 96.4568 38.4801 97.2845 37.7662 97.4488 37.0469 97.4227 36.2215 98.0409 35.6546 97.9977 Z" id="geometry_finland_selected_all.fid-3c92ea55_173c704bce9_64d6" data-reference="http://gml.fmi.fi/static/2016/FI/county.xml#county.2"/>
<path stroke="#000000" stroke-width="0.5" fill="#6af86a" d="M 34.1292 67.2351 34.1512 67.6486 33.7148 68.0945 32.9986 67.7404 33.1389 67.3525 34.0439 67.5174 34.1292 67.2351 Z M 30.7211 67.5749 30.7317 68.3212 30.1622 68.681 29.5193 68.3963 29.282 67.2923 29.7845 66.9545 30.121 67.7593 30.7211 67.5749 Z M 29.2389 80.0107 29.1664 79.2478 29.2984 78.267 29.6984 77.71 29.3912 77.2953 29.4823 76.697 29.4796 76.6981 29.4785 76.6985 29.4751 76.7019 29.4518 76.7242 29.6707 76.1635 28.8842 75.498 28.7124 74.3163 29.2673 73.8637 28.5994 73.7115 28.8159 73.093 28.8152 73.0882 29.1422 72.7361 29.0066 72.2722 29.8961 71.2484 29.897 71.2482 29.908 71.2464 30.2989 71.1759 30.7585 70.2084 30.7563 70.2039 30.7372 70.1943 30.6754 70.1572 30.6391 70.1396 30.6214 70.1254 30.6814 69.7356 31.1103 69.5259 31.3906 69.7758 31.3921 69.7794 31.4604 69.7506 31.4655 69.744 30.9767 68.6923 30.9754 68.687 30.973 68.6767 31.2168 67.7507 31.6969 68.3331 32.7679 67.7864 32.9559 68.0635 32.9609 68.0701 32.9529 68.0995 32.968 68.0975 33.0641 68.4566 33.0281 68.4558 32.9804 68.4507 32.9644 68.4489 32.9659 68.4351 32.9623 68.4255 32.9644 68.39 32.9508 68.3889 32.921 68.4642 33.0761 68.495 33.2251 68.5762 33.2268 68.5756 33.2315 68.574 33.6588 68.1991 34.5668 67.8077 34.7953 67.3205 34.7954 67.3204 34.7963 67.3178 34.1238 66.253 34.5597 65.9504 34.7079 65.3034 35.1869 65.9171 35.3543 65.5064 35.2103 65.0214 35.5511 64.7483 35.5525 64.7475 35.5573 64.745 35.9126 64.3261 36.0074 63.844 36.0174 63.8308 36.0286 63.8244 36.062 63.8467 36.0666 63.8584 36.0693 63.8658 36.0849 63.886 36.3336 63.8795 36.3722 63.8871 36.5144 64.03 36.5533 64.0418 36.5727 64.0782 36.5815 64.1126 36.6263 64.1223 36.751 64.2498 36.7713 64.265 36.783 64.3159 36.8185 64.3359 36.8337 64.3681 36.8398 64.4019 36.8392 64.513 36.8442 64.5251 37.1871 64.1818 37.191 64.1806 37.2026 63.5152 37.2128 63.5076 37.228 63.5023 37.3217 63.4372 37.3179 63.388 37.3309 63.4225 37.6148 63.3419 37.6898 63.2999 38.6134 64.0628 38.857 63.7287 39.6459 63.5254 40.7027 64.5593 39.8389 64.9088 39.953 65.672 40.2509 66.3524 40.3631 67.3264 40.0692 67.1129 39.7663 66.4808 39.1447 66.1515 38.5872 66.3882 38.3063 67.0357 37.9 67.4822 37.2978 67.2311 35.8892 67.6599 35.7434 67.9782 35.5487 68.6182 35.8133 69.4141 35.6947 69.6748 35.6708 69.8425 35.243 70.0025 34.6784 71.019 34.5774 71.8421 34.0775 72.4588 33.9467 72.4912 33.607 72.8378 32.8116 72.5475 32.1126 72.0979 31.8457 71.6366 31.5878 72.5221 31.7981 73.2403 31.2091 73.7016 30.8709 73.9993 30.9545 74.4511 30.5623 75.69 30.522 76.3367 31.0903 76.3921 30.9495 77.2721 31.3628 77.6722 30.8688 77.9609 30.6186 78.7647 30.6574 79.5221 29.6744 79.5299 29.2389 80.0107 Z M 37.1634 63.1408 36.6263 63.93 35.998 63.0898 36.5385 62.7083 37.1402 62.8183 37.1634 63.1408 Z" id="geometry_finland_selected_all.fid-3c92ea55_173c704bce9_64d8" data-reference="http://gml.fmi.fi/static/2016/FI/county.xml#county.15"/>
<path stroke="#000000" stroke-width="0.5" fill="#6af86a" d="M 28.8675 88.5691 28.8548 88.2008 29.4095 87.1036 29.412 87.1005 29.1083 86.6794 29.7609 85.8139 29.6381 84.9973 29.6542 85.0148 29.6788 85.0372 29.7003 85.0454 29.7011 85.0472 29.739 85.0497 29.7407 85.0498 29.7422 85.0446 30.1265 84.2354 30.1866 83.1937 29.8878 82.4032 30.0281 82.0356 30.027 82.0277 29.6526 80.3371 29.2389 80.0107 29.6744 79.5299 30.6574 79.5221 31.1051 79.5969 32.0702 80.0122 32.6951 79.5749 33.147 78.9224 33.6795 78.9657 33.9438 78.6156 34.3207 78.112 34.7039 77.9226 35.1886 77.2094 36.0367 77.5461 36.1111 78.4829 35.6895 78.6464 35.6813 79.5057 34.882 79.6791 34.5484 80.0407 35.025 80.4898 35.4036 80.9082 35.7451 81.8266 35.5215 82.3795 35.0976 82.5199 35.0659 82.8446 34.8661 82.8908 35.1779 83.4045 34.7526 84.1622 33.7727 84.7806 34.2766 85.7037 34.4144 86.5562 34.5996 87.1308 35.2603 87.2134 35.856 87.5985 35.774 88.1896 36.0846 88.8799 35.9137 89.1262 35.3356 88.8474 35.2535 89.3659 34.668 89.5791 34.1126 89.5108 34.1097 89.9956 33.8196 89.8619 32.6223 90.0041 32.1155 90.4872 31.9862 90.1745 31.3961 90.0498 30.767 89.0833 29.9441 89.1414 29.1231 89.0431 28.8675 88.5691 Z" id="geometry_finland_selected_all.fid-3c92ea55_173c704bce9_64da" data-reference="http://gml.fmi.fi/static/2016/FI/county.xml#county.4"/>
<path stroke="#000000" stroke-width="0.5" fill="#6af86a" d="M 30.6574 79.5221 30.6186 78.7647 30.8688 77.9609 31.3628 77.6722 30.9495 77.2721 31.0903 76.3921 30.522 76.3367 30.5623 75.69 30.9545 74.4511 30.8709 73.9993 31.2091 73.7016 31.7981 73.2403 31.5878 72.5221 31.8457 71.6366 32.1126 72.0979 32.8116 72.5475 33.607 72.8378 33.9467 72.4912 34.0775 72.4588 34.5774 71.8421 34.6784 71.019 35.243 70.0025 35.6708 69.8425 35.6947 69.6748 35.8133 69.4141 35.5487 68.6182 35.7434 67.9782 35.8892 67.6599 37.2978 67.2311 37.9 67.4822 38.3063 67.0357 38.5872 66.3882 39.1447 66.1515 39.7663 66.4808 40.0692 67.1129 40.3631 67.3264 40.4492 67.5537 41.0139 68.328 41.8096 68.5486 42.5504 69.4074 42.2437 69.6198 43.0579 69.9397 42.6791 70.7035 42.7589 71.1366 42.9525 71.3757 43.2954 71.9166 43.1126 72.6736 43.5268 73.7862 43.5834 74.0191 43.846 74.2293 43.5757 75.5056 43.4847 75.7787 42.1252 75.8772 41.2544 76.9629 40.8789 76.6853 40.8103 75.8021 40.536 75.6948 39.7543 76.4627 39.0531 76.3721 38.7784 76.7245 38.3331 76.2334 38.0536 76.3756 37.7597 77.0546 37.4327 77.1749 36.7583 77.4216 36.0367 77.5461 35.1886 77.2094 34.7039 77.9226 34.3207 78.112 33.9438 78.6156 33.6795 78.9657 33.147 78.9224 32.6951 79.5749 32.0702 80.0122 31.1051 79.5969 30.6574 79.5221 Z" id="geometry_finland_selected_all.fid-3c92ea55_173c704bce9_64db" data-reference="http://gml.fmi.fi/static/2016/FI/county.xml#county.14"/>
<path stroke="#000000" stroke-width="0.5" fill="#6af86a" d="M 42.4781 41.1366 41.8613 40.8396 41.6086 39.8303 41.7938 39.1384 41.7214 38.3431 42.2852 37.7915 42.5315 37.4631 42.6014 36.5709 42.7936 35.9294 42.7176 35.512 43.1651 34.9955 42.7346 33.7283 42.4633 33.3074 42.4591 33.3046 42.0953 32.6524 41.7007 31.6245 41.857 30.7047 42.3884 30.6066 42.6041 30.1095 42.4203 29.6436 42.6041 29.2228 41.8227 28.891 41.352 28.4896 41.8946 27.7421 41.7473 26.9694 41.7627 25.5169 41.917 24.9554 42.4038 24.6464 42.4677 24.2119 41.6196 23.3813 41.295 22.3319 41.2903 22.3213 41.2894 22.3193 40.7763 22.2751 40.863 21.5373 40.6136 20.8921 40.1083 20.5505 39.7418 19.9598 38.617 19.4226 38.2337 19.0131 37.1694 18.9413 36.7193 17.9178 36.0918 17.7478 35.8825 17.1144 35.218 16.7188 35.2338 16.2459 33.9759 14.7488 33.6429 14.6507 33.7373 14.1112 33.3368 13.358 32.617 13.0301 33.2258 12.5301 34.2888 13.4271 34.5205 12.8097 34.1969 11.9407 34.6151 11.3385 35.2742 10.9124 36.3989 11.3469 36.6705 11.9658 37.9899 14.5098 38.0166 14.8671 38.4533 15.7666 38.4915 16.8149 39.0598 16.5953 39.9287 17.194 40.7678 17.2322 41.1496 17.831 42.1235 17.2887 42.9256 17.2074 43.3326 16.1587 44.0419 16.117 44.3346 16.5779 45.0768 17.2011 46.1164 17.5786 46.7001 18.0329 47.0866 18.8155 47.1496 18.3393 47.8566 18.0058 48.0299 16.535 48.5793 15.9502 49.15 15.5748 49.7417 15.5805 50.0826 14.3181 50.0804 13.3056 50.0801 13.3023 49.9455 12.7649 50.1251 11.6899 50.4782 10.9493 50.3646 10.5995 50.6087 9.7201 50.9531 8.9527 50.6948 8.409 51.0663 7.9062 51.4928 7.7584 51.8485 7.0417 52.325 6.6613 52.5842 5.8771 53.2902 5.6562 54.4279 6.162 55.3041 5.7076 55.7049 5.1253 56.0127 5.0915 56.2961 4.5982 57.3963 4.4218 57.49 5.1573 58.0756 6.026 58.6805 6.3913 58.6381 6.689 58.8852 6.974 61.2961 8.0634 62.0408 10.0842 61.6787 10.8588 60.4442 12.534 60.3867 13.6005 60.8223 14.1486 59.3887 15.3369 59.3046 15.7603 60.4395 15.8824 60.1545 17.1828 59.2647 19.0209 59.4372 19.7111 59.4376 19.7127 59.4687 19.8374 60.0834 22.2377 60.0961 22.2433 62.5105 23.3076 63.7911 25.8179 63.7939 25.8203 63.8197 25.8427 65.1239 26.9776 64.881 28.4109 64.6337 28.7349 63.9233 30.1972 63.4672 30.7863 61.9576 33.4968 61.8309 34.1673 62.1841 35.3291 63.1259 36.8168 64.0126 38.732 62.8221 38.7769 62.8335 39.0075 60.6927 38.3413 60.6002 39.0319 60.1677 39.3359 60.3389 40.3607 60.9523 40.513 61.0539 41.1702 60.5398 42.2542 60.9946 42.4346 61.019 42.8978 60.0057 42.9072 59.8264 43.4505 60.1547 44.3876 59.0508 44.8369 58.743 44.7134 57.2553 44.6211 56.8331 43.367 56.3449 43.7263 55.9072 43.6198 54.7448 45.3548 53.6343 45.8262 51.0525 45.5731 51.0729 44.6635 50.2204 45.1022 49.6283 45.4082 48.2121 45.3596 47.4334 46.0424 46.8507 46.7758 46.1082 46.0377 45.2916 46.0634 45.2878 46.0463 45.0202 45.5497 44.4736 45.057 44.8311 44.7845 44.8305 44.7823 44.8303 44.7815 44.4188 44.9447 44.4637 44.837 44.4655 44.7868 44.4621 44.7866 44.4619 44.7866 43.618 44.6915 43.0006 43.2014 42.9884 42.7332 42.6121 42.0057 42.4781 41.1366 Z" id="geometry_finland_selected_all.fid-3c92ea55_173c704bce9_64dc" data-reference="http://gml.fmi.fi/static/2016/FI/county.xml#county.19"/>
<path stroke="#000000" stroke-width="0.5" fill="#6af86a" d="M 41.2903 22.3214 41.2894 22.3193 40.7763 22.2751 40.863 21.5373 40.6136 20.8921 40.1083 20.5505 39.7418 19.9598 38.617 19.4226 38.2337 19.0131 37.1694 18.9413 36.7193 17.9178 36.0918 17.7478 35.8825 17.1144 35.218 16.7188 35.2338 16.2459 33.9759 14.7488 33.6429 14.6507 33.7373 14.1112 33.3368 13.358 32.617 13.0301 33.2258 12.5301 34.2888 13.4271 34.5205 12.8097 34.1969 11.9407 34.6151 11.3385 35.2742 10.9124 36.3989 11.3469 36.6705 11.9658 37.9899 14.5098 38.0166 14.8671 38.4533 15.7666 38.4915 16.8149 39.0598 16.5953 39.9287 17.194 40.7678 17.2322 41.1496 17.831 42.1235 17.2887 42.9256 17.2074 43.3326 16.1587 44.0419 16.117 44.3346 16.5779 45.0768 17.2011 46.1164 17.5786 46.7001 18.0329 47.0866 18.8155 47.4661 20.3297 46.3193 20.416 45.42 20.9597 44.3356 22.549 44.1575 22.6162 43.0483 22.3895 42.8892 22.1004 41.4302 22.1361 41.2903 22.3213 41.2903 22.3214 Z" id="geometry_finland_selected_all.fid-3c92ea55_173c704bce9_64dd" data-reference="http://gml.fmi.fi/static/2016/FI/municipality.xml#municipality.47"/>
<path stroke="#000000" stroke-width="0.5" fill="#6af86a" d="M 36.934 89.5858 36.7288 89.2874 36.1239 89.335 35.9137 89.1262 36.0846 88.8799 35.774 88.1896 35.856 87.5985 35.2603 87.2134 34.5996 87.1308 34.4144 86.5562 34.2766 85.7037 33.7727 84.7806 34.7526 84.1622 35.1779 83.4045 34.8661 82.8908 35.0659 82.8446 35.0976 82.5199 35.5215 82.3795 35.7451 81.8266 35.4036 80.9082 35.025 80.4898 34.5484 80.0407 34.882 79.6791 35.6813 79.5057 35.6895 78.6464 36.1111 78.4829 36.0367 77.5461 36.7583 77.4216 37.4327 77.1749 37.7597 77.0546 38.0536 76.3756 38.3331 76.2334 38.7784 76.7245 39.0531 76.3721 39.7543 76.4627 40.536 75.6948 40.8103 75.8021 40.8789 76.6853 41.2544 76.9629 41.3025 77.5455 41.7856 78.0323 42.0762 78.0441 42.7036 78.9011 43.3137 78.615 44.0585 79.4104 44.0026 80.006 44.2801 80.2896 43.7835 80.5613 43.3269 81.3284 43.938 81.7885 44.2093 82.2666 44.1543 82.7306 44.5257 83.7207 44.3844 84.0724 44.5947 84.7076 45.0809 84.8801 45.1706 85.7154 44.6386 85.4414 44.8984 86.0359 44.8771 86.8959 44.7662 87.2434 44.2132 87.4109 43.3798 87.141 42.0723 87.646 41.9866 87.5808 42.0416 88.036 41.7398 88.4085 40.4282 88.834 39.5197 89.1903 40.0538 89.5612 39.9349 90.0107 39.8443 90.3199 39.3968 89.7008 38.633 89.684 38.1833 90.0141 37.7022 89.5052 37.2325 89.4127 36.934 89.5858 Z" id="geometry_finland_selected_all.fid-3c92ea55_173c704bce9_64de" data-reference="http://gml.fmi.fi/static/2016/FI/county.xml#county.6"/>
<path stroke="#000000" stroke-width="0.5" fill="#6af86a" d="M 51.8072 94.9885 51.1189 95.9711 49.7344 95.7356 50.1308 96.2208 49.6785 96.6717 49.3566 96.052 49.345 96.0502 49.3429 96.0499 49.0481 96.4208 49.0336 96.9247 48.4441 97.1085 48.1121 96.8563 47.873 96.3064 47.5782 96.2519 47.3584 96.8736 47.3517 96.8665 47.3451 96.8689 47.2833 97.0791 46.5427 96.961 46.158 97.0549 46.0321 96.9645 46.0317 96.9653 46.0304 96.9679 45.6096 97.5187 44.9893 97.8322 44.228 97.4445 44.2233 97.421 44.2249 97.4181 44.222 97.4169 44.2198 97.416 43.9972 97.8513 43.3472 98.0594 42.9175 97.6727 42.9127 97.67 42.9115 97.6694 43.2361 98.4252 42.3452 99.4123 41.8261 99.0194 41.845 98.4235 41.8204 98.3925 41.8206 98.3918 41.8198 98.3911 41.8171 98.389 41.5138 98.7091 41.5134 98.7092 41.5074 98.71 40.4306 98.9872 39.3825 99.3208 39.3831 99.3268 39.3837 99.3329 38.5835 99.7236 37.9825 99.675 36.7368 99.9156 36.7056 99.9189 36.4415 100.5213 34.9809 100.5755 36.1459 100.0544 36.4878 99.6621 36.4875 99.6574 36.4866 99.643 36.388 99.716 36.3713 99.7288 35.9382 98.9256 35.1688 99.8311 34.7832 99.2086 35.2315 99.0048 35.6546 97.9977 36.2215 98.0409 37.0469 97.4227 37.7662 97.4488 38.4801 97.2845 38.6306 96.4568 39.0356 96.2386 39.3638 94.9125 39.1649 94.5228 39.8006 94.3949 40.0644 93.4755 39.9919 93.0599 40.3149 93.1855 40.6694 93.1625 41.2544 93.3224 41.7374 93.9332 42.0443 93.5035 42.3742 94.0818 43.0979 93.795 43.3033 93.0324 43.6466 93.2163 44.3182 93.0787 45.2387 92.9371 45.5964 93.1635 45.7647 92.6499 45.5248 92.2065 45.6336 91.6829 45.9625 91.6964 46.5766 92.2539 47.1095 91.9416 47.4658 92.3881 47.486 92.8126 47.8901 93.1229 48.5347 92.7961 49.3157 92.5457 49.3949 92.8287 49.8323 92.7337 50.2061 93.0255 50.6921 92.7506 50.6694 92.3582 51.0916 92.4479 51.2998 93.2756 51.8151 93.4913 52.1812 93.9049 52.4825 93.4447 52.8459 93.3993 53.1745 94.0944 53.1532 94.1022 52.4354 93.7793 51.8598 94.6628 51.8072 94.9885 Z" id="geometry_finland_selected_all.fid-3c92ea55_173c704bce9_64df" data-reference="http://gml.fmi.fi/static/2016/FI/county.xml#county.1"/>
<path stroke="#000000" stroke-width="0.5" fill="#6af86a" d="M 36.934 89.5858 37.2325 89.4127 37.7022 89.5052 38.1833 90.0141 38.633 89.684 39.3968 89.7008 39.8443 90.3199 39.9349 90.0107 40.0538 89.5612 39.5197 89.1903 40.4282 88.834 41.7398 88.4085 42.0416 88.036 41.9866 87.5808 42.0723 87.646 43.3798 87.141 44.2132 87.4109 44.7662 87.2434 44.8771 86.8959 44.9152 87.294 45.3758 87.648 46.1609 87.7208 46.4098 88.251 46.2962 88.9165 46.0974 89.2725 45.4492 89.4968 45.4423 90.1101 45.1875 90.6404 45.5801 90.7355 45.6322 91.2482 45.5227 91.3321 45.6336 91.6829 45.5248 92.2065 45.7647 92.6499 45.5964 93.1635 45.2387 92.9371 44.3182 93.0787 43.6466 93.2163 43.3033 93.0324 43.0979 93.795 42.3742 94.0818 42.0443 93.5035 41.7374 93.9332 41.2544 93.3224 40.6694 93.1625 40.3149 93.1855 39.9919 93.0599 39.2724 92.9811 38.9995 92.6978 38.3517 92.4643 38.2031 92.0804 37.7698 92.0986 37.4112 92.2846 36.62 91.71 36.6888 90.5968 37.1975 90.6547 37.3599 90.048 36.934 89.5858 Z" id="geometry_finland_selected_all.fid-3c92ea55_173c704bce9_64e1" data-reference="http://gml.fmi.fi/static/2016/FI/county.xml#county.5"/>
<path stroke="#000000" stroke-width="0.5" fill="#6af86a" d="M 37.3179 63.388 37.1634 63.1408 37.1402 62.8183 37.0326 62.5177 37.4745 62.3336 37.6148 63.3419 37.3309 63.4225 37.3179 63.388 Z M 37.6898 63.2999 37.747 62.7416 38.403 62.1809 39.2678 62.0886 39.4136 60.8164 40.36 61.0191 40.8557 61.7527 41.4243 61.4189 41.5982 60.9144 42.3079 60.9039 42.4332 61.7456 42.7866 62.2318 42.8866 62.7633 43.614 63.1411 44.1314 64.5931 44.3329 64.923 44.3746 64.9848 45.1743 65.5892 46.0415 66.828 45.4682 67.0625 44.901 67.7271 45.0057 68.5084 44.6537 69.714 44.8252 69.8459 43.8037 69.5845 43.0579 69.9397 42.2437 69.6198 42.5504 69.4074 41.8096 68.5486 41.0139 68.328 40.4492 67.5537 40.3631 67.3264 40.2509 66.3524 39.953 65.672 39.8389 64.9088 40.7027 64.5593 39.6459 63.5254 38.857 63.7287 38.6134 64.0628 37.6898 63.2999 Z" id="geometry_finland_selected_all.fid-3c92ea55_173c704bce9_64e2" data-reference="http://gml.fmi.fi/static/2016/FI/county.xml#county.16"/>
<path stroke="#000000" stroke-width="0.5" fill="#6af86a" d="M 45.341 52.8894 44.9677 52.6434 44.6185 51.9155 44.9516 51.4916 45.7067 51.3578 45.8512 52.5776 45.341 52.8894 Z M 55.6287 51.5742 55.3605 52.1699 55.857 52.8134 55.9292 53.791 55.7397 54.1993 54.9115 53.9836 55.4085 55.8383 55.9267 56.4597 55.0507 57.6936 55.3298 58.0894 55.0847 58.9291 54.4869 59.1719 54.0198 58.9144 53.5544 58.9647 53.3644 59.3509 53.3756 59.8167 53.4103 61.3119 53.7822 61.5037 52.4938 62.1839 51.1699 63.3269 51.3471 65.6976 50.9403 65.886 50.8012 66.7183 50.6839 66.9358 50.0773 67.1929 49.6481 67.0863 49.3038 66.5634 48.8413 66.316 47.9332 66.1745 47.3853 65.7005 46.961 65.4191 46.5108 65.7474 46.237 66.7491 46.0415 66.828 45.1743 65.5892 44.3746 64.9848 44.3329 64.923 44.1314 64.5931 43.614 63.1411 42.8866 62.7633 42.7866 62.2318 42.4332 61.7456 42.3079 60.9039 41.5982 60.9144 41.4243 61.4189 40.8557 61.7527 40.36 61.0191 40.4461 60.3933 40.966 59.4291 41.2509 59.2884 42.0362 58.035 42.038 58.0351 42.0383 58.0351 42.2254 57.6618 42.9041 57.1796 43.1633 56.5665 43.2935 56.6253 43.3879 56.666 43.3881 56.6618 43.3882 56.659 43.6335 56.2856 43.7858 55.4687 44.4452 54.8605 44.5816 54.3397 44.5849 54.3326 44.5919 54.3179 44.4548 53.9797 45.5873 53.3218 46.0064 53.4084 46.3308 53.1202 46.3317 53.1203 46.3474 53.1227 46.8452 53.1255 47.4859 53.8226 47.4944 53.8333 47.7834 53.5034 47.7852 53.4974 47.1692 52.7405 47.6454 52.435 48.0698 52.8587 48.0746 52.8594 48.0809 52.8603 48.1063 52.8504 48.1175 52.8455 47.89 51.415 47.31 51.1219 47.7536 49.9169 47.7546 49.9119 47.7563 49.903 47.4302 49.3151 47.4575 48.6627 47.9086 48.3163 47.32 47.0317 46.8507 46.7758 47.4334 46.0424 48.2121 45.3596 49.6283 45.4082 50.2204 45.1022 51.0729 44.6635 51.0525 45.5731 51.0183 47.1791 50.9948 48.4602 51.9646 48.8956 51.8633 49.4305 51.2932 49.8298 51.6133 50.5185 52.833 51.5099 53.9089 51.5623 54.3345 51.4261 55.6287 51.5742 Z" id="geometry_finland_selected_all.fid-3c92ea55_173c704bce9_64e3" data-reference="http://gml.fmi.fi/static/2016/FI/municipality.xml#municipality.139,http://gml.fmi.fi/static/2016/FI/municipality.xml#municipality.208,http://gml.fmi.fi/static/2016/FI/municipality.xml#municipality.244,http://gml.fmi.fi/static/2016/FI/municipality.xml#municipality.317,http://gml.fmi.fi/static/2016/FI/municipality.xml#municipality.425,http://gml.fmi.fi/static/2016/FI/municipality.xml#municipality.436,http://gml.fmi.fi/static/2016/FI/municipality.xml#municipality.483,http://gml.fmi.fi/static/2016/FI/municipality.xml#municipality.494,http://gml.fmi.fi/static/2016/FI/municipality.xml#municipality.535,http://gml.fmi.fi/static/2016/FI/municipality.xml#municipality.563,http://gml.fmi.fi/static/2016/FI/municipality.xml#municipality.564,http://gml.fmi.fi/static/2016/FI/municipality.xml#municipality.625,http://gml.fmi.fi/static/2016/FI/municipality.xml#municipality.626,http://gml.fmi.fi/static/2016/FI/municipality.xml#municipality.630,http://gml.fmi.fi/static/2016/FI/municipality.xml#municipality.678,http://gml.fmi.fi/static/2016/FI/municipality.xml#municipality.69,http://gml.fmi.fi/static/2016/FI/municipality.xml#municipality.691,http://gml.fmi.fi/static/2016/FI/municipality.xml#municipality.71,http://gml.fmi.fi/static/2016/FI/municipality.xml#municipality.72,http://gml.fmi.fi/static/2016/FI/municipality.xml#municipality.746,http://gml.fmi.fi/static/2016/FI/municipality.xml#municipality.748,http://gml.fmi.fi/static/2016/FI/municipality.xml#municipality.785,http://gml.fmi.fi/static/2016/FI/municipality.xml#municipality.791,http://gml.fmi.fi/static/2016/FI/municipality.xml#municipality.859,http://gml.fmi.fi/static/2016/FI/municipality.xml#municipality.889,http://gml.fmi.fi/static/2016/FI/municipality.xml#municipality.9,http://gml.fmi.fi/static/2016/FI/municipality.xml#municipality.977"/>
<path stroke="#000000" stroke-width="0.5" fill="#6af86a" d="M 45.341 52.8894 44.9677 52.6434 44.6185 51.9155 44.9516 51.4916 45.7067 51.3578 45.8512 52.5776 45.341 52.8894 Z M 65.0892 47.5108 64.2833 47.4642 64.1122 47.633 63.3825 47.358 62.964 47.3964 62.6047 48.0779 61.9838 48.0973 60.7825 48.6762 60.653 49.6599 58.9094 50.0297 58.2501 50.3154 58.0651 50.4649 57.865 51.544 56.9633 51.2764 56.5836 51.5347 55.6287 51.5742 55.3605 52.1699 55.857 52.8134 55.9292 53.791 55.7397 54.1993 54.9115 53.9836 55.4085 55.8383 55.9267 56.4597 55.0507 57.6936 55.3298 58.0894 55.0847 58.9291 54.4869 59.1719 54.0198 58.9144 53.5544 58.9647 53.3644 59.3509 53.3756 59.8167 53.4103 61.3119 53.7822 61.5037 52.4938 62.1839 51.1699 63.3269 51.3471 65.6976 50.9403 65.886 50.8012 66.7183 50.6839 66.9358 50.0773 67.1929 49.6481 67.0863 49.3038 66.5634 48.8413 66.316 47.9332 66.1745 47.3853 65.7005 46.961 65.4191 46.5108 65.7474 46.237 66.7491 46.0415 66.828 45.1743 65.5892 44.3746 64.9848 44.3329 64.923 44.1314 64.5931 43.614 63.1411 42.8866 62.7633 42.7866 62.2318 42.4332 61.7456 42.3079 60.9039 41.5982 60.9144 41.4243 61.4189 40.8557 61.7527 40.36 61.0191 40.4461 60.3933 40.966 59.4291 41.2509 59.2884 42.0362 58.035 42.038 58.0351 42.0383 58.0351 42.2254 57.6618 42.9041 57.1796 43.1633 56.5665 43.2935 56.6253 43.3879 56.666 43.3881 56.6618 43.3882 56.659 43.6335 56.2856 43.7858 55.4687 44.4452 54.8605 44.5816 54.3397 44.5849 54.3326 44.5919 54.3179 44.4548 53.9797 45.5873 53.3218 46.0064 53.4084 46.3308 53.1202 46.3317 53.1203 46.3474 53.1227 46.8452 53.1255 47.4859 53.8226 47.4944 53.8333 47.7834 53.5034 47.7852 53.4974 47.1692 52.7405 47.6454 52.435 48.0698 52.8587 48.0746 52.8594 48.0809 52.8603 48.1063 52.8504 48.1175 52.8455 47.89 51.415 47.31 51.1219 47.7536 49.9169 47.7546 49.9119 47.7563 49.903 47.4302 49.3151 47.4575 48.6627 47.9086 48.3163 47.32 47.0317 46.8507 46.7758 47.4334 46.0424 48.2121 45.3596 49.6283 45.4082 50.2204 45.1022 51.0729 44.6635 51.0525 45.5731 53.6343 45.8262 54.7448 45.3548 55.9072 43.6198 56.3449 43.7263 56.8331 43.367 57.2553 44.6211 58.743 44.7134 59.0508 44.8369 60.1547 44.3876 59.8264 43.4505 60.0057 42.9072 61.019 42.8978 60.9946 42.4346 60.5398 42.2542 61.0539 41.1702 60.9523 40.513 60.3389 40.3607 60.1677 39.3359 60.6002 39.0319 60.6927 38.3413 62.8335 39.0075 62.8221 38.7769 64.0126 38.732 64.5987 40.2615 65.4721 41.5518 65.8204 42.9345 66.1328 43.7106 66.5084 45.8271 66.0249 45.5885 64.9035 46.2002 65.4891 46.8968 65.0892 47.5108 Z" id="geometry_finland_selected_all.fid-3c92ea55_173c704bce9_64e4" data-reference="http://gml.fmi.fi/static/2016/FI/county.xml#county.17"/>
<path stroke="#000000" stroke-width="0.5" fill="#6af86a" d="M 45.1706 85.7154 45.0809 84.8801 44.5947 84.7076 44.3844 84.0724 44.5257 83.7207 44.1543 82.7306 44.2093 82.2666 43.938 81.7885 43.3269 81.3284 43.7835 80.5613 44.2801 80.2896 44.0026 80.006 44.0585 79.4104 43.3137 78.615 42.7036 78.9011 42.0762 78.0441 41.7856 78.0323 41.3025 77.5455 41.2544 76.9629 42.1252 75.8772 43.4847 75.7787 43.5757 75.5056 43.846 74.2293 43.5834 74.0191 43.5268 73.7862 43.1126 72.6736 43.2954 71.9166 42.9525 71.3757 42.7589 71.1366 42.6791 70.7035 43.0579 69.9397 43.8037 69.5845 44.8252 69.8459 44.6537 69.714 45.0057 68.5084 44.901 67.7271 45.4682 67.0625 46.0415 66.828 46.237 66.7491 46.5108 65.7474 46.961 65.4191 47.3853 65.7005 47.9332 66.1745 48.8413 66.316 49.3038 66.5634 49.6481 67.0863 50.0773 67.1929 50.6839 66.9358 50.8442 67.1123 50.3865 67.901 50.6748 68.659 50.758 69.8681 51.1133 70.6236 51.4715 70.9217 50.9928 71.0033 51.378 71.6412 50.1977 71.8417 50.3117 72.2863 50.6635 72.6898 51.5351 73.6372 51.9219 73.2463 52.5472 74.6375 52.3884 75.389 52.0712 75.6595 52.7129 76.4345 53.0456 76.4168 52.9072 76.878 53.3385 77.3467 52.9285 77.7847 52.3393 78.2295 51.3069 78.786 50.8776 79.5469 51.361 80.3234 51.7234 80.9306 51.3649 81.1356 51.356 81.7387 51.5999 82.0501 52.2169 83.5022 52.1459 84.1926 51.5149 83.889 51.2429 84.3554 51.242 84.0631 50.1543 83.7377 50.056 83.22 49.1668 82.5046 48.822 83.5991 48.331 83.3172 48.0943 83.6257 47.6119 83.6521 47.6271 84.0597 47.283 85.4338 46.1385 85.4854 45.1706 85.7154 Z" id="geometry_finland_selected_all.fid-3c92ea55_173c704bce9_64e5" data-reference="http://gml.fmi.fi/static/2016/FI/county.xml#county.13"/>
<path stroke="#000000" stroke-width="0.5" fill="#6af86a" d="M 41.295 22.3319 41.2903 22.3214 41.2903 22.3213 41.4302 22.1361 42.8892 22.1004 43.0483 22.3895 44.1575 22.6162 44.4958 23.6777 44.1907 24.6677 44.5258 27.4642 43.7886 27.3493 41.8227 28.891 41.352 28.4896 41.8946 27.7421 41.7473 26.9694 41.7627 25.5169 41.917 24.9554 42.4038 24.6464 42.4677 24.2119 41.6196 23.3813 41.295 22.3319 Z" id="geometry_finland_selected_all.fid-3c92ea55_173c704bce9_64e6" data-reference="http://gml.fmi.fi/static/2016/FI/municipality.xml#municipality.498"/>
<path stroke="#000000" stroke-width="0.5" fill="#6af86a" d="M 42.2852 37.7915 42.8143 38.3426 44.1895 37.5587 45.0477 36.7524 45.7117 35.9263 46.294 35.6649 46.8282 35.782 46.9755 38.4156 45.9961 39.6831 45.9586 39.7295 42.4695 40.8395 42.4781 41.1366 41.8613 40.8396 41.6086 39.8303 41.7938 39.1384 41.7214 38.3431 42.2852 37.7915 Z" id="geometry_finland_selected_all.fid-3c92ea55_173c704bce9_64e7" data-reference="http://gml.fmi.fi/static/2016/FI/municipality.xml#municipality.976"/>
<path stroke="#000000" stroke-width="0.5" fill="#6af86a" d="M 42.4592 33.3046 42.4591 33.3046 42.0953 32.6524 41.7007 31.6245 41.857 30.7047 42.3884 30.6066 42.6041 30.1095 42.4203 29.6436 42.6041 29.2228 41.8227 28.891 43.7886 27.3493 44.5258 27.4642 44.7119 28.8131 45.098 30.1301 46.028 32.0054 46.4473 34.0376 44.0115 33.4355 43.8525 33.2577 42.4518 33.2506 42.4683 33.2932 42.4592 33.3046 Z" id="geometry_finland_selected_all.fid-3c92ea55_173c704bce9_64e8" data-reference="http://gml.fmi.fi/static/2016/FI/municipality.xml#municipality.273"/>
<path stroke="#000000" stroke-width="0.5" fill="#6af86a" d="M 42.4633 33.3074 42.4592 33.3046 42.4683 33.2932 42.4518 33.2506 43.8525 33.2577 44.0115 33.4355 46.4473 34.0376 46.8282 35.782 46.294 35.6649 45.7117 35.9263 45.0477 36.7524 44.1895 37.5587 42.8143 38.3426 42.2852 37.7915 42.5315 37.4631 42.6014 36.5709 42.7936 35.9294 42.7176 35.512 43.1651 34.9955 42.7346 33.7283 42.4633 33.3074 Z" id="geometry_finland_selected_all.fid-3c92ea55_173c704bce9_64e9" data-reference="http://gml.fmi.fi/static/2016/FI/municipality.xml#municipality.854"/>
<path stroke="#000000" stroke-width="0.5" fill="#6af86a" d="M 42.4781 41.1366 42.4695 40.8395 45.9586 39.7295 44.7782 41.0675 44.7782 42.5338 44.7714 44.1273 44.5734 44.602 44.4971 44.6248 44.5039 44.7076 44.4798 44.7585 44.4675 44.7702 44.4614 44.7837 44.4621 44.7866 44.4619 44.7866 43.618 44.6915 43.0006 43.2014 42.9884 42.7332 42.6121 42.0057 42.4781 41.1366 Z" id="geometry_finland_selected_all.fid-3c92ea55_173c704bce9_64ea" data-reference="http://gml.fmi.fi/static/2016/FI/municipality.xml#municipality.851"/>
<path stroke="#000000" stroke-width="0.5" fill="#6af86a" d="M 48.2745 32.0828 46.4888 31.7859 46.028 32.0054 45.098 30.1301 44.7119 28.8131 44.5258 27.4642 44.1907 24.6677 44.4958 23.6777 44.1575 22.6162 44.3356 22.549 45.42 20.9597 46.3193 20.416 47.4661 20.3297 49.1684 21.1767 50.7407 21.5179 50.369 23.2099 50.804 24.7151 49.7648 28.4528 49.8311 29.4468 48.8044 30.6609 48.2745 32.0828 Z" id="geometry_finland_selected_all.fid-3c92ea55_173c704bce9_64eb" data-reference="http://gml.fmi.fi/static/2016/FI/municipality.xml#municipality.261"/>
<path stroke="#000000" stroke-width="0.5" fill="#6af86a" d="M 44.8305 44.7822 44.8303 44.7815 44.4188 44.9447 44.4637 44.837 44.4655 44.7868 44.4621 44.7866 44.4614 44.7837 44.4675 44.7702 44.4798 44.7585 44.5039 44.7076 44.4971 44.6248 44.5734 44.602 44.7714 44.1273 44.7782 42.5338 45.5629 43.2064 46.7919 43.1282 47.5017 43.2741 47.4944 43.5932 46.4617 44.5243 45.5702 45.728 45.2743 45.0597 44.8305 44.7823 44.8305 44.7822 Z" id="geometry_finland_selected_all.fid-3c92ea55_173c704bce9_64ec" data-reference="http://gml.fmi.fi/static/2016/FI/municipality.xml#municipality.241"/>
<path stroke="#000000" stroke-width="0.5" fill="#6af86a" d="M 45.2907 46.0593 45.2878 46.0463 45.0202 45.5497 44.4736 45.057 44.8311 44.7845 44.8305 44.7822 44.8305 44.7823 45.2743 45.0597 45.5702 45.728 45.3185 46.0473 45.3068 46.0379 45.2907 46.0593 Z" id="geometry_finland_selected_all.fid-3c92ea55_173c704bce9_64ed" data-reference="http://gml.fmi.fi/static/2016/FI/municipality.xml#municipality.240"/>
<path stroke="#000000" stroke-width="0.5" fill="#6af86a" d="M 50.6694 92.3582 50.6921 92.7506 50.2061 93.0255 49.8323 92.7337 49.3949 92.8287 49.3157 92.5457 48.5347 92.7961 47.8901 93.1229 47.486 92.8126 47.4658 92.3881 47.1095 91.9416 46.5766 92.2539 45.9625 91.6964 45.6336 91.6829 45.5227 91.3321 45.6322 91.2482 45.5801 90.7355 45.1875 90.6404 45.4423 90.1101 45.4492 89.4968 46.0974 89.2725 46.2962 88.9165 46.4098 88.251 46.1609 87.7208 45.3758 87.648 44.9152 87.294 44.8771 86.8959 44.8984 86.0359 44.6386 85.4414 45.1706 85.7154 46.1385 85.4854 47.283 85.4338 47.6271 84.0597 47.6119 83.6521 48.0943 83.6257 48.331 83.3172 48.822 83.5991 49.1668 82.5046 50.056 83.22 50.1543 83.7377 51.242 84.0631 51.2429 84.3554 51.0244 85.3385 51.0037 86.0767 51.2363 86.5953 51.5946 87.0506 51.9761 87.0551 52.1141 87.5149 51.7185 87.7274 51.5229 88.3183 50.8347 88.8573 50.4089 88.6154 49.9882 89.1241 50.2458 89.3526 50.276 90.2182 50.0105 90.6731 50.3913 90.9541 50.0752 91.6161 50.6464 91.9458 50.6694 92.3582 Z" id="geometry_finland_selected_all.fid-3c92ea55_173c704bce9_64ee" data-reference="http://gml.fmi.fi/static/2016/FI/county.xml#county.7"/>
<path stroke="#000000" stroke-width="0.5" fill="#6af86a" d="M 50.7764 41.4894 50.7299 41.6333 49.5922 42.1288 48.7615 41.8499 48.3921 42.1082 47.5017 43.2741 46.7919 43.1282 45.5629 43.2064 44.7782 42.5338 44.7782 41.0675 45.9586 39.7295 45.9961 39.6831 48.0081 40.9503 49.6567 40.9506 50.7764 41.4894 Z" id="geometry_finland_selected_all.fid-3c92ea55_173c704bce9_64ef" data-reference="http://gml.fmi.fi/static/2016/FI/municipality.xml#municipality.845"/>
<path stroke="#000000" stroke-width="0.5" fill="#6af86a" d="M 46.8507 46.7758 46.1082 46.0377 45.2916 46.0634 45.2907 46.0593 45.3068 46.0379 45.3185 46.0473 45.5702 45.728 46.4617 44.5243 47.4944 43.5932 47.5017 43.2741 48.3921 42.1082 48.7615 41.8499 49.5922 42.1288 49.892 42.8239 49.2384 43.9711 50.2204 45.1022 49.6283 45.4082 48.2121 45.3596 47.4334 46.0424 46.8507 46.7758 Z" id="geometry_finland_selected_all.fid-3c92ea55_173c704bce9_64f0" data-reference="http://gml.fmi.fi/static/2016/FI/municipality.xml#municipality.751"/>
<path stroke="#000000" stroke-width="0.5" fill="#6af86a" d="M 55.2663 39.882 55.3069 41.1404 54.687 41.1149 53.9802 40.2474 52.7209 40.3151 52.8581 40.9667 52.2962 41.2252 52.1683 40.8979 50.7764 41.4894 49.6567 40.9506 48.0081 40.9503 45.9961 39.6831 46.9755 38.4156 46.8282 35.782 46.4473 34.0376 46.028 32.0054 46.4888 31.7859 48.2745 32.0828 50.2972 32.4206 51.7234 33.6278 52.0013 34.004 52.5331 34.1176 52.3499 34.1951 53.0394 35.2433 53.2472 37.2003 53.1797 37.5956 54.9465 39.6779 55.2663 39.882 Z" id="geometry_finland_selected_all.fid-3c92ea55_173c704bce9_64f1" data-reference="http://gml.fmi.fi/static/2016/FI/municipality.xml#municipality.698"/>
<path stroke="#000000" stroke-width="0.5" fill="#6af86a" d="M 50.0804 13.3056 50.0803 13.3043 50.5308 13.0465 51.4612 12.5162 55.1014 10.4581 55.3606 10.1549 57.2384 9.3892 57.852 8.4938 58.6381 6.689 58.8852 6.974 61.2961 8.0634 62.0408 10.0842 61.6787 10.8588 60.4442 12.534 60.3867 13.6005 60.8223 14.1486 59.3887 15.3369 59.3046 15.7603 60.4395 15.8824 60.1545 17.1828 59.2647 19.0209 59.4372 19.7111 59.4376 19.7127 59.4343 19.7137 59.4261 19.7233 59.3873 19.7283 59.3049 19.7772 59.3049 19.8083 59.067 19.8903 58.6936 19.77 56.0634 20.9217 51.5119 21.1844 50.7407 21.5179 49.1684 21.1767 47.4661 20.3297 47.0866 18.8155 47.1496 18.3393 47.8566 18.0058 48.0299 16.535 48.5793 15.9502 49.15 15.5748 49.7417 15.5805 50.0826 14.3181 50.0804 13.3056 Z" id="geometry_finland_selected_all.fid-3c92ea55_173c704bce9_64f2" data-reference="http://gml.fmi.fi/static/2016/FI/municipality.xml#municipality.148"/>
<path stroke="#000000" stroke-width="0.5" fill="#6af86a" d="M 59.4376 19.7127 59.4687 19.8374 60.0834 22.2377 60.0852 22.2385 57.4174 26.9174 57.2011 27.4516 55.7289 28.375 55.1179 29.5772 55.2344 30.1636 54.6318 30.4044 54.3805 32.0225 52.5331 34.1176 52.0013 34.004 51.7234 33.6278 50.2972 32.4206 48.2745 32.0828 48.8044 30.6609 49.8311 29.4468 49.7648 28.4528 50.804 24.7151 50.369 23.2099 50.7407 21.5179 51.5119 21.1844 56.0634 20.9217 58.6936 19.77 59.067 19.8903 59.3049 19.8083 59.3049 19.7772 59.3873 19.7283 59.4261 19.7233 59.4343 19.7137 59.4376 19.7127 Z" id="geometry_finland_selected_all.fid-3c92ea55_173c704bce9_64f3" data-reference="http://gml.fmi.fi/static/2016/FI/municipality.xml#municipality.758"/>
<path stroke="#000000" stroke-width="0.5" fill="#6af86a" d="M 55.3069 41.1404 55.3638 41.6638 56.1082 42.0233 56.077 43.2868 55.9072 43.6198 54.7448 45.3548 53.6343 45.8262 51.0525 45.5731 51.0729 44.6635 50.2204 45.1022 49.2384 43.9711 49.892 42.8239 49.5922 42.1288 50.7299 41.6333 50.7764 41.4894 52.1683 40.8979 52.2962 41.2252 52.8581 40.9667 52.7209 40.3151 53.9802 40.2474 54.687 41.1149 55.3069 41.1404 Z" id="geometry_finland_selected_all.fid-3c92ea55_173c704bce9_64f5" data-reference="http://gml.fmi.fi/static/2016/FI/municipality.xml#municipality.683"/>
<path stroke="#000000" stroke-width="0.5" fill="#6af86a" d="M 50.0803 13.3043 50.0801 13.3023 49.9455 12.7649 50.1251 11.6899 50.4782 10.9493 50.3646 10.5995 50.6087 9.7201 50.9531 8.9527 50.6948 8.409 51.0663 7.9062 51.4928 7.7584 51.8485 7.0417 52.325 6.6613 52.5842 5.8771 53.2902 5.6562 54.4279 6.162 55.3041 5.7076 55.7049 5.1253 56.0127 5.0915 56.2961 4.5982 57.3963 4.4218 57.49 5.1573 58.0756 6.026 58.6805 6.3913 58.6381 6.689 57.852 8.4938 57.2384 9.3892 55.3606 10.1549 55.1014 10.4581 51.4612 12.5162 50.5308 13.0465 50.0803 13.3043 Z" id="geometry_finland_selected_all.fid-3c92ea55_173c704bce9_64f6" data-reference="http://gml.fmi.fi/static/2016/FI/municipality.xml#municipality.890"/>
<path stroke="#000000" stroke-width="0.5" fill="#6af86a" d="M 51.8072 94.9885 51.8598 94.6628 52.4354 93.7793 53.1532 94.1022 53.1745 94.0944 52.8459 93.3993 52.4825 93.4447 52.1812 93.9049 51.8151 93.4913 51.2998 93.2756 51.0916 92.4479 50.6694 92.3582 50.6464 91.9458 50.0752 91.6161 50.3913 90.9541 50.0105 90.6731 50.276 90.2182 50.2458 89.3526 49.9882 89.1241 50.4089 88.6154 50.8347 88.8573 51.5229 88.3183 51.7185 87.7274 52.1141 87.5149 52.689 87.4236 52.8238 87.8058 53.7616 87.488 53.9142 88.3796 54.4636 88.6687 55.2522 88.5709 55.36 89.2481 54.9952 89.4629 55.266 90.1046 55.294 91.0048 55.9668 91.1964 56.2863 91.5776 56.639 91.9821 57.6003 92.0099 57.6662 92.3172 58.2473 92.3292 58.4839 92.932 58.8936 93.1847 58.4287 93.7174 58.4233 93.7237 58.4066 93.7428 58.2423 94.2062 57.0095 95.0394 56.6013 94.7063 56.2047 94.9509 56.2041 94.9502 56.1982 94.9434 55.502 94.5735 54.7649 94.4754 54.4525 94.6315 54.4474 94.6263 54.4455 94.6184 54.4411 94.6082 54.3755 94.3814 54.3726 94.3831 54.3711 94.3839 54.1485 95.0695 53.5852 95.154 53.5781 95.149 52.7293 95.5944 52.2699 95.5562 51.8072 94.9885 Z" id="geometry_finland_selected_all.fid-3c92ea55_173c704bce9_64f7" data-reference="http://gml.fmi.fi/static/2016/FI/county.xml#county.8"/>
<path stroke="#000000" stroke-width="0.5" fill="#6af86a" d="M 53.0456 76.4168 52.7129 76.4345 52.0712 75.6595 52.3884 75.389 52.5472 74.6375 51.9219 73.2463 51.5351 73.6372 50.6635 72.6898 50.3117 72.2863 50.1977 71.8417 51.378 71.6412 50.9928 71.0033 51.4715 70.9217 51.1133 70.6236 50.758 69.8681 50.6748 68.659 50.3865 67.901 50.8442 67.1123 50.6839 66.9358 50.8012 66.7183 50.9403 65.886 51.3471 65.6976 51.1699 63.3269 52.4938 62.1839 53.7822 61.5037 54.8107 61.9353 55.3962 61.9477 56.5544 62.2491 57.3923 62.692 58.1655 63.2855 59.1967 64.4898 59.6469 64.9165 59.9858 64.0974 60.4224 64.6201 60.7974 64.5915 61.0599 65.7632 61.3225 65.8937 61.0612 66.2178 61.35 67.1919 61.7553 67.515 61.5582 68.6102 61.1649 69.2624 61.8266 69.8781 62.2688 70.6132 63.1577 71.2551 62.7666 71.5261 62.756 71.9867 63.3437 72.5722 62.5102 73.0688 61.8335 72.9353 61.4077 73.4317 61.6848 74.0526 61.4849 74.4084 61.1673 75.1397 60.6847 75.1205 60.4582 75.2695 60.3361 76.2791 59.7724 76.5689 60.0731 77.2909 61.1871 77.8741 61.5751 78.3998 61.503 79.1202 60.9321 78.7101 60.4215 78.6017 60.0388 78.4447 58.9243 78.4337 58.2803 77.9545 57.9698 78.0451 57.5604 77.6247 57.6321 77.2089 57.3439 77.143 56.7204 76.3869 56.0939 75.9341 55.5828 76.3146 54.8818 75.9831 54.1819 76.4178 53.7916 76.1117 53.5837 76.5143 53.0456 76.4168 Z" id="geometry_finland_selected_all.fid-3c92ea55_173c704bce9_64f8" data-reference="http://gml.fmi.fi/static/2016/FI/county.xml#county.11"/>
<path stroke="#000000" stroke-width="0.5" fill="#6af86a" d="M 55.2522 88.5709 54.4636 88.6687 53.9142 88.3796 53.7616 87.488 52.8238 87.8058 52.689 87.4236 52.1141 87.5149 51.9761 87.0551 51.5946 87.0506 51.2363 86.5953 51.0037 86.0767 51.0244 85.3385 51.2429 84.3554 51.5149 83.889 52.1459 84.1926 52.2169 83.5022 51.5999 82.0501 51.356 81.7387 51.3649 81.1356 51.7234 80.9306 51.361 80.3234 50.8776 79.5469 51.3069 78.786 52.3393 78.2295 52.9285 77.7847 53.3385 77.3467 52.9072 76.878 53.0456 76.4168 53.5837 76.5143 53.7916 76.1117 54.1819 76.4178 54.8818 75.9831 55.5828 76.3146 56.0939 75.9341 56.7204 76.3869 57.3439 77.143 57.6321 77.2089 57.5604 77.6247 57.9698 78.0451 58.2803 77.9545 58.9243 78.4337 60.0388 78.4447 60.4215 78.6017 60.9321 78.7101 61.503 79.1202 61.5751 78.3998 61.1871 77.8741 60.0731 77.2909 59.7724 76.5689 60.3361 76.2791 60.4582 75.2695 60.6847 75.1205 61.1673 75.1397 61.4849 74.4084 62.0769 74.5489 62.7593 75.1258 63.4897 76.0144 63.4027 76.5448 63.7845 76.8891 64.3524 76.8622 64.4193 77.359 64.9891 78.2588 64.9005 78.5898 65.1729 79.6587 66.1033 80.6607 65.9236 81.2675 66.3054 81.7122 66.2396 82.4076 65.7493 83.0794 65.7136 83.3856 65.08 83.7458 64.4724 84.6745 63.5246 84.9326 63.1044 84.8786 62.4626 84.949 62.4792 85.2666 61.87 85.5906 60.7032 85.4685 60.7458 85.7302 59.9716 86.4739 58.527 86.7707 57.8986 86.671 57.7321 86.9819 57.0978 86.8346 56.6155 87.5527 55.9794 87.8191 56.0373 88.077 55.9276 88.4655 55.2522 88.5709 Z" id="geometry_finland_selected_all.fid-3c92ea55_173c704bce9_64f9" data-reference="http://gml.fmi.fi/static/2016/FI/county.xml#county.10"/>
<path stroke="#000000" stroke-width="0.5" fill="#6af86a" d="M 55.9072 43.6198 56.3449 43.7263 56.8331 43.367 57.2553 44.6211 57.2723 45.2087 57.5197 46.2511 57.3577 47.6336 57.5406 48.3721 58.1725 48.6004 58.8018 49.2134 58.9094 50.0297 58.2501 50.3154 58.0651 50.4649 57.865 51.544 56.9633 51.2764 56.5836 51.5347 55.6287 51.5742 54.3345 51.4261 53.9089 51.5623 52.833 51.5099 51.6133 50.5185 51.2932 49.8298 51.8633 49.4305 51.9646 48.8956 50.9948 48.4602 51.0183 47.1791 51.0525 45.5731 53.6343 45.8262 54.7448 45.3548 55.9072 43.6198 Z" id="geometry_finland_selected_all.fid-3c92ea55_173c704bce9_64fa" data-reference="http://gml.fmi.fi/static/2016/FI/municipality.xml#municipality.615"/>
<path stroke="#000000" stroke-width="0.5" fill="#6af86a" d="M 55.2663 39.882 54.9465 39.6779 53.1797 37.5956 53.2472 37.2003 53.0394 35.2433 52.3499 34.1951 52.5331 34.1176 54.8702 33.4566 55.5512 33.1784 55.8025 33.4858 56.4688 33.5095 57.5789 34.6405 57.8218 35.6681 58.2899 36.3286 58.6285 36.3959 58.7758 37.0566 58.3604 38.2503 58.6101 38.9035 58.0198 39.0297 57.3054 38.9178 56.6141 39.3482 55.8876 40.2787 55.2663 39.882 Z" id="geometry_finland_selected_all.fid-3c92ea55_173c704bce9_64fb" data-reference="http://gml.fmi.fi/static/2016/FI/municipality.xml#municipality.320"/>
<path stroke="#000000" stroke-width="0.5" fill="#6af86a" d="M 57.5789 34.6405 56.4688 33.5095 55.8025 33.4858 55.5512 33.1784 54.8702 33.4566 52.5331 34.1176 54.3805 32.0225 54.6318 30.4044 55.2344 30.1636 55.1179 29.5772 57.1188 30.7018 57.5454 31.6922 58.3859 32.1822 59.305 32.5175 58.3083 33.1843 57.8368 33.2824 57.5789 34.6405 Z" id="geometry_finland_selected_all.fid-3c92ea55_173c704bce9_64fc" data-reference="http://gml.fmi.fi/static/2016/FI/municipality.xml#municipality.583"/>
<path stroke="#000000" stroke-width="0.5" fill="#6af86a" d="M 65.0892 47.5108 65.0221 48.4278 65.119 48.9223 64.5839 49.7704 64.7227 50.0332 65.6161 50.1466 65.4906 50.8222 64.7614 51.6429 64.6769 52.2644 64.9092 53.4671 65.3195 54.1731 66.5371 54.0896 66.615 54.8377 66.9756 55.4241 66.412 56.0303 66.4136 56.0345 66.4137 56.0347 66.4254 56.5307 66.7516 57.3058 66.7197 57.7657 68.5734 58.9891 68.5374 59.5374 68.9322 60.1968 68.8713 60.9869 68.0897 62.3382 67.8774 63.1806 66.7057 63.8488 66.3071 63.9406 65.9122 64.3921 65.6738 63.9887 65.4498 62.7567 63.2883 63.1371 63.0952 63.1523 61.8588 63.2061 60.5531 62.8872 59.9858 64.0974 59.6469 64.9165 59.1967 64.4898 58.1655 63.2855 57.3923 62.692 56.5544 62.2491 55.3962 61.9477 54.8107 61.9353 53.7822 61.5037 53.4103 61.3119 53.3756 59.8167 53.3644 59.3509 53.5544 58.9647 54.0198 58.9144 54.4869 59.1719 55.0847 58.9291 55.3298 58.0894 55.0507 57.6936 55.9267 56.4597 55.4085 55.8383 54.9115 53.9836 55.7397 54.1993 55.9292 53.791 55.857 52.8134 55.3605 52.1699 55.6287 51.5742 56.5836 51.5347 56.9633 51.2764 57.865 51.544 58.0651 50.4649 58.2501 50.3154 58.9094 50.0297 60.653 49.6599 60.7825 48.6762 61.9838 48.0973 62.6047 48.0779 62.964 47.3964 63.3825 47.358 64.1122 47.633 64.2833 47.4642 65.0892 47.5108 Z" id="geometry_finland_selected_all.fid-3c92ea55_173c704bce9_64fd" data-reference="http://gml.fmi.fi/static/2016/FI/county.xml#county.18"/>
<path stroke="#000000" stroke-width="0.5" fill="#6af86a" d="M 58.8936 93.1847 58.4839 92.932 58.2473 92.3292 57.6662 92.3172 57.6003 92.0099 56.639 91.9821 56.2863 91.5776 55.9668 91.1964 55.294 91.0048 55.266 90.1046 54.9952 89.4629 55.36 89.2481 55.2522 88.5709 55.9276 88.4655 56.0373 88.077 55.9794 87.8191 56.6155 87.5527 57.0978 86.8346 57.7321 86.9819 57.8986 86.671 58.527 86.7707 59.9716 86.4739 60.7458 85.7302 60.7032 85.4685 61.87 85.5906 62.4792 85.2666 62.4626 84.949 63.1044 84.8786 63.5246 84.9326 64.4724 84.6745 65.08 83.7458 65.7136 83.3856 65.7493 83.0794 68.2444 81.6271 68.299 81.7344 67.904 82.5021 67.047 83.5094 66.6457 84.3499 65.3403 85.8973 64.8153 86.6425 64.4391 87.4009 63.7796 87.9699 63.514 88.176 63.5043 88.1846 63.219 88.5412 62.6003 88.8414 62.4222 89.2398 62.418 89.2448 62.4178 89.2451 62.14 89.5802 61.9064 90.4651 61.289 90.4274 59.5495 92.4956 58.8936 93.1847 Z" id="geometry_finland_selected_all.fid-3c92ea55_173c704bce9_64fe" data-reference="http://gml.fmi.fi/static/2016/FI/county.xml#county.9"/>
<path stroke="#000000" stroke-width="0.5" fill="#6af86a" d="M 60.0852 22.2385 60.0961 22.2433 62.5105 23.3076 63.7911 25.8179 63.7939 25.8202 63.7939 25.8203 63.6146 26.1708 63.5163 26.3627 63.2023 26.9766 62.5002 27.7139 62.2851 28.3753 61.3521 29.8543 61.3411 30.1752 60.4652 32.1936 59.305 32.5175 58.3859 32.1822 57.5454 31.6922 57.1188 30.7018 55.1179 29.5772 55.7289 28.375 57.2011 27.4516 57.4174 26.9174 60.0852 22.2385 Z" id="geometry_finland_selected_all.fid-3c92ea55_173c704bce9_64ff" data-reference="http://gml.fmi.fi/static/2016/FI/municipality.xml#municipality.742"/>
<path stroke="#000000" stroke-width="0.5" fill="#6af86a" d="M 60.1547 44.3876 59.0508 44.8369 58.743 44.7134 57.2553 44.6211 56.8331 43.367 56.3449 43.7263 55.9072 43.6198 56.077 43.2868 56.1082 42.0233 55.3638 41.6638 55.3069 41.1404 55.2663 39.882 55.8876 40.2787 56.6141 39.3482 57.3054 38.9178 58.0198 39.0297 58.6101 38.9035 58.9448 39.0115 59.5696 38.3115 60.6927 38.3413 60.6002 39.0319 60.1677 39.3359 60.3389 40.3607 60.9523 40.513 61.0539 41.1702 60.5398 42.2542 60.9946 42.4346 61.019 42.8978 60.0057 42.9072 59.8264 43.4505 60.1547 44.3876 Z" id="geometry_finland_selected_all.fid-3c92ea55_173c704bce9_6500" data-reference="http://gml.fmi.fi/static/2016/FI/municipality.xml#municipality.614"/>
<path stroke="#000000" stroke-width="0.5" fill="#6af86a" d="M 62.964 47.3964 62.6047 48.0779 61.9838 48.0973 60.7825 48.6762 60.653 49.6599 58.9094 50.0297 58.8018 49.2134 58.1725 48.6004 57.5406 48.3721 57.3577 47.6336 57.5197 46.2511 57.2723 45.2087 57.2553 44.6211 58.743 44.7134 59.0508 44.8369 60.1547 44.3876 60.3737 44.4605 60.688 45.3678 60.7337 46.3018 61.0553 46.628 61.5203 46.6754 61.8309 46.2208 62.2112 46.7632 62.964 47.3964 Z" id="geometry_finland_selected_all.fid-3c92ea55_173c704bce9_6502" data-reference="http://gml.fmi.fi/static/2016/FI/municipality.xml#municipality.832"/>
<path stroke="#000000" stroke-width="0.5" fill="#6af86a" d="M 63.7939 25.8202 63.8197 25.8427 65.1239 26.9776 64.881 28.4109 64.6337 28.7349 63.9233 30.1972 63.4672 30.7863 61.9576 33.4968 61.8309 34.1673 62.1841 35.3291 63.1259 36.8168 64.0126 38.732 62.8221 38.7769 62.8335 39.0075 60.6927 38.3413 59.5696 38.3115 58.9448 39.0115 58.6101 38.9035 58.3604 38.2503 58.7758 37.0566 58.6285 36.3959 58.2899 36.3286 57.8218 35.6681 57.5789 34.6405 57.8368 33.2824 58.3083 33.1843 59.305 32.5175 60.4652 32.1936 61.3411 30.1752 61.3521 29.8543 62.2851 28.3753 62.5002 27.7139 63.2023 26.9766 63.5163 26.3627 63.6146 26.1708 63.7939 25.8203 63.7939 25.8202 Z" id="geometry_finland_selected_all.fid-3c92ea55_173c704bce9_6503" data-reference="http://gml.fmi.fi/static/2016/FI/municipality.xml#municipality.732"/>
<path stroke="#000000" stroke-width="0.5" fill="#6af86a" d="M 65.0892 47.5108 64.2833 47.4642 64.1122 47.633 63.3825 47.358 62.964 47.3964 62.2112 46.7632 61.8309 46.2208 61.5203 46.6754 61.0553 46.628 60.7337 46.3018 60.688 45.3678 60.3737 44.4605 60.1547 44.3876 59.8264 43.4505 60.0057 42.9072 61.019 42.8978 60.9946 42.4346 60.5398 42.2542 61.0539 41.1702 60.9523 40.513 60.3389 40.3607 60.1677 39.3359 60.6002 39.0319 60.6927 38.3413 62.8335 39.0075 62.8221 38.7769 64.0126 38.732 64.5987 40.2615 65.4721 41.5518 65.8204 42.9345 66.1328 43.7106 66.5084 45.8271 66.0249 45.5885 64.9035 46.2002 65.4891 46.8968 65.0892 47.5108 Z" id="geometry_finland_selected_all.fid-3c92ea55_173c704bce9_6505" data-reference="http://gml.fmi.fi/static/2016/FI/municipality.xml#municipality.305"/>
<path stroke="#000000" stroke-width="0.5" fill="#6af86a" d="M 68.299 81.7344 68.2444 81.6271 65.7493 83.0794 66.2396 82.4076 66.3054 81.7122 65.9236 81.2675 66.1033 80.6607 65.1729 79.6587 64.9005 78.5898 64.9891 78.2588 64.4193 77.359 64.3524 76.8622 63.7845 76.8891 63.4027 76.5448 63.4897 76.0144 62.7593 75.1258 62.0769 74.5489 61.4849 74.4084 61.6848 74.0526 61.4077 73.4317 61.8335 72.9353 62.5102 73.0688 63.3437 72.5722 62.756 71.9867 62.7666 71.5261 63.1577 71.2551 62.2688 70.6132 61.8266 69.8781 61.1649 69.2624 61.5582 68.6102 61.7553 67.515 61.35 67.1919 61.0612 66.2178 61.3225 65.8937 61.0599 65.7632 60.7974 64.5915 60.4224 64.6201 59.9858 64.0974 60.5531 62.8872 61.8588 63.2061 63.0952 63.1523 63.2883 63.1371 65.4498 62.7567 65.6738 63.9887 65.9122 64.3921 66.3071 63.9406 66.7057 63.8488 67.9125 65.2045 68.5312 65.7551 68.989 66.474 70.3006 66.9791 70.9464 67.4095 71.1604 67.8416 71.8999 68.2341 72.3303 68.833 72.4965 69.58 73.3967 70.3783 74 71.4233 73.4513 72.6349 73.1387 74.0225 72.6909 75.39 72.1823 76.1974 72.1787 76.2023 70.9544 77.8274 70.9483 77.8353 70.9481 77.8355 70.3899 78.2645 70.1871 78.9093 69.6993 79.6712 69.6973 79.6746 69.6953 79.6779 68.299 81.7344 Z" id="geometry_finland_selected_all.fid-3c92ea55_173c704bce9_6506" data-reference="http://gml.fmi.fi/static/2016/FI/county.xml#county.12"/>
<!--path stroke="#000000" stroke-width="0.5" fill="#bee2f1" d="M 62.7756 81.8511 63.0792 82.1263 63.1074 82.619 63.3614 82.7043 64.086 82.7479 64.2423 82.401 64.5475 82.0498 64.6399 81.8032 64.4533 81.3637 64.5594 81.2381 64.57 80.8874 64.4712 80.7454 64.7099 80.5889 64.9395 80.9343 65.4008 81.0554 65.3545 80.8132 65.1457 80.6459 65.0541 80.2849 65.2384 80.2002 65.7453 80.7386 65.9367 80.5746 65.7707 80.4491 65.7781 80.1785 65.8869 79.9792 65.9992 79.9875 66.2038 80.3588 66.3787 80.581 66.3322 80.7177 66.4745 80.905 66.7265 81.1022 66.4695 81.1983 66.4552 81.3702 66.053 81.4723 65.9936 81.6458 65.8398 81.7717 66.0368 81.9013 65.9121 82.2022 65.3488 82.3912 65.4824 82.7441 65.1987 82.6418 65.1738 82.3909 64.9874 82.5273 65.1674 82.7917 64.8731 82.9456 64.9861 83.2574 64.8279 83.3576 64.5684 83.2036 64.4359 83.2306 64.5429 83.4912 64.4613 83.8452 64.2137 83.9955 64.2859 84.2047 63.8257 83.9333 63.7643 84.0736 63.5311 83.913 63.3206 84.0965 63.6182 84.233 63.7403 84.521 63.5439 84.5063 63.1601 84.1963 62.3813 83.3498 61.8873 83.3296 61.8347 83.4158 61.935 83.7437 61.6724 83.5479 61.5546 83.7091 61.4079 83.4137 61.2052 83.4471 61.3831 84.3354 61.5817 84.3545 61.637 84.5967 61.4555 84.8805 61.6094 84.9002 61.6668 85.1768 61.8694 85.2207 61.7975 85.4193 61.5302 85.4131 61.4068 85.2083 61.2534 85.1027 60.61 85.1206 60.4498 85.1934 60.2104 85.4195 60.1672 85.2397 60.4632 85.1235 60.5185 84.9528 60.8483 85.0876 61.1238 85.0927 61.4324 85.0136 61.3898 84.5905 61.2198 84.4741 60.838 84.3592 60.6967 84.4592 60.1204 84.4434 60.1613 84.643 60.0084 84.7105 59.8513 84.961 59.7808 85.2084 59.5669 85.2969 59.55 85.4026 59.9142 85.5081 60.0274 85.6581 59.6224 85.6264 59.7931 86.2892 59.9705 86.3386 60.0451 86.1841 60.2323 86.1417 60.2522 86.4678 60.4525 86.565 60.6841 86.4672 60.849 86.5474 60.6814 86.7352 60.3839 86.5863 60.2176 86.5768 60.3265 87.0211 59.831 87.0881 59.5775 86.9402 59.537 87.0941 59.8265 87.2254 60.0247 87.2128 60.5814 86.8685 60.9611 86.9381 60.9547 87.0691 61.2959 87.2712 61.2693 86.9768 60.9612 86.8995 60.9621 86.7596 61.4526 86.6185 61.7369 86.6656 61.9623 86.6262 62.1267 86.8852 62.2813 86.9566 62.5558 87.3099 62.7407 87.3805 62.769 87.5859 62.5864 87.8208 62.2806 87.9008 62.1234 88.1367 61.8877 88.1169 61.6339 88.4261 61.5012 88.3829 61.4112 88.5873 61.2123 88.5943 61.1631 88.7417 60.8437 88.8068 60.6864 88.7507 60.5967 88.9225 60.4034 89.0161 60.3221 89.2585 60.1403 89.2386 59.9568 89.3857 59.6452 89.3553 59.4206 89.5613 59.1277 89.2806 59.1021 89.0622 58.8455 88.8251 58.7198 88.899 58.3598 88.7458 58.2158 88.5588 58.397 88.2717 58.72 88.0048 59.1606 88.1911 59.363 88.1868 59.4425 88.3405 59.4278 88.4082 59.396 88.4902 59.5167 88.7188 59.9056 89.1808 60.0863 89.2121 60.0783 88.9406 60.2427 88.6384 60.0834 88.4976 59.9464 88.2331 59.8227 88.1758 59.4461 88.1631 59.3662 87.9354 59.0953 87.7196 59.1208 87.4326 58.8663 87.3943 58.6111 87.4989 58.4266 87.4433 58.0955 87.5035 57.9774 87.1921 57.8147 87.2089 57.4569 87.1015 57.4374 87.2079 57.7256 87.5157 57.4982 87.4928 57.3174 87.3771 57.3815 87.1368 57.2466 87.0764 57.2048 86.7945 57.491 86.6737 57.5093 86.5364 57.3302 86.3864 56.8298 86.3718 56.8085 86.0215 56.4556 85.969 56.3606 86.0723 56.0395 85.8164 56.1012 85.6263 56.3399 85.7805 56.4696 85.7073 56.6031 85.8375 56.8818 85.9508 57.0756 85.8154 57.5023 86.0318 57.5645 86.2639 57.8872 86.2471 58.2637 86.1444 58.635 86.2345 58.5957 86.0458 58.4445 85.9088 58.463 85.7299 58.3575 85.4223 58.6648 85.4161 58.5746 85.1195 58.5762 84.9121 58.139 84.9605 58.0508 84.8063 57.8234 84.6441 57.6911 84.4604 57.4146 84.959 57.5312 85.0912 57.2815 85.4362 57.2443 85.6094 57.0787 85.5681 56.8847 85.411 57.0195 85.1781 57.1627 85.345 57.2792 85.2363 57.2544 85.0582 57.3662 84.9585 57.4038 84.5706 57.1625 84.4779 57.4254 84.2689 57.6691 84.1795 57.5618 83.9957 57.7178 83.9111 57.9399 84.05 58.1053 83.8183 58.3852 83.591 58.4734 83.9704 58.3671 84.1561 58.1545 84.8172 58.2099 84.9197 58.4256 84.9037 58.5684 84.5923 58.6931 84.7553 58.9019 84.8367 58.8477 85.0617 58.8894 85.3101 59.1415 85.5266 59.2732 85.3119 59.2757 85.0754 59.5078 84.9484 59.6704 85.1826 59.8478 84.5739 59.6792 84.4702 59.9039 84.1395 59.9495 83.4123 59.8498 83.1288 59.9294 82.9162 60.266 82.9686 60.6459 83.0906 60.6043 82.9116 60.7349 82.8424 60.7753 82.535 60.9441 82.798 61.1909 82.8041 61.3013 82.5514 61.6482 82.5465 61.3649 82.0509 61.6945 82.2403 61.8523 82.1852 62.1418 82.2066 62.5713 82.1678 62.6405 81.8094 62.7756 81.8511 Z M 61.6233 83.2743 61.4575 83.1128 61.352 83.1975 61.5401 83.3766 61.6233 83.2743 Z M 65.6219 81.1113 65.5973 80.8268 65.454 80.9148 65.6219 81.1113 Z M 62.5117 82.4798 62.644 82.7261 62.7714 82.6437 62.5117 82.4798 Z M 64.4453 82.7483 64.6065 82.7236 64.5463 82.4655 64.3735 82.4253 64.4453 82.7483 Z M 59.0742 85.9411 59.2469 86.2706 59.3514 86.0341 59.2642 85.8452 59.0742 85.9411 Z M 59.7168 87.9688 59.8519 87.8942 59.7598 87.7295 59.4708 87.6204 59.386 87.6715 59.7168 87.9688 Z M 57.7503 86.7122 57.5984 86.6539 57.3004 86.7542 57.4252 86.8851 57.6876 86.8302 57.7503 86.7122 Z M 61.7024 83.1614 61.7797 82.9131 61.6472 82.6995 61.4687 82.8171 61.5356 83.0054 61.7024 83.1614 Z M 63.3912 83.777 63.285 83.5927 63.0768 83.6524 63.2127 83.964 63.3912 83.777 Z M 62.2411 83.2415 62.1631 83.0218 61.9145 83.022 61.9249 83.2677 62.2411 83.2415 Z M 58.1275 84.641 58.2151 84.4526 57.9948 84.2343 57.8422 84.6306 58.1275 84.641 Z M 59.3896 85.7319 59.5479 85.9474 59.3683 86.182 59.6789 86.2022 59.6529 85.9062 59.3896 85.7319 Z M 65.2627 81.5147 65.2809 81.3228 64.9961 81.2593 64.9682 81.4925 65.2627 81.5147 Z M 61.8197 82.3132 61.749 82.4198 62.1652 82.5594 62.1685 82.354 61.8197 82.3132 Z M 61.6761 87.8368 61.4828 87.6558 61.2259 87.6409 61.1797 87.7545 61.606 88.0955 61.6761 87.8368 Z M 58.1266 86.5731 58.3778 86.5672 58.5362 86.4055 58.4583 86.2301 58.1364 86.3698 58.0514 86.2859 57.808 86.2997 57.7188 86.4416 57.8534 86.6043 58.1266 86.5731 Z M 59.3315 88.8406 59.4338 88.7915 59.3557 88.6005 59.4135 88.5687 59.3748 88.4488 59.412 88.4459 59.4148 88.3278 59.2833 88.1993 59.0623 88.3743 58.776 88.1185 58.6185 88.2499 58.4347 88.2856 58.4592 88.5594 58.7412 88.5845 58.9097 88.5223 59.1276 88.565 59.1905 88.7943 59.3315 88.8406 Z M 61.6224 87.559 61.7198 87.7449 61.9603 87.7297 62.0336 87.5658 62.2141 87.4297 62.5352 87.6709 62.6649 87.5688 62.4778 87.2477 62.1962 87.0774 62.0911 87.1217 61.9179 86.9488 61.8419 86.7507 61.5029 86.6488 61.5135 86.8356 61.3118 87.1658 61.6224 87.559 Z M 60.8439 83.0715 60.6025 83.2309 60.4772 83.0828 60.0212 82.9544 59.9104 83.1302 59.9657 83.3493 60.0095 84.1271 60.1098 84.3041 60.2583 84.3462 60.4974 84.2691 60.6797 84.3163 60.8476 84.2006 61.2561 84.1452 60.9938 83.3398 60.8439 83.0715 Z M 63.6426 83.6016 63.7154 83.7317 63.9414 83.4569 64.0938 83.5525 64.2854 83.3449 64.3472 82.9565 64.2095 82.717 63.9198 82.9911 63.7028 82.798 63.3535 82.8218 63.1853 82.7495 63.0946 83.0498 63.1679 83.245 63.4495 83.5858 63.4695 83.328 63.6332 83.3345 63.6426 83.6016 Z M 58.7717 86.3772 58.882 86.5705 59.1524 86.6744 59.4468 86.5362 59.029 86.1084 58.8403 85.9558 58.7717 86.3772 Z" id="geometry_finland_selected_all.fid-3c92ea55_173c704bce9_6501" data-reference="http://gml.fmi.fi/static/2016/FI/sea_region.xml#sea_region.south.FI-115978"/>
<path stroke="#000000" stroke-width="0.5" fill="#bee2f1" d="M 65.8111 74.5488 65.911 74.6867 66.1087 74.6844 66.2195 74.9328 66.4294 75.0206 66.5427 75.2091 66.4474 75.3267 66.6313 75.8658 66.9031 76.2653 66.6665 76.3244 66.7954 76.5082 66.6389 76.7113 66.5605 77.08 66.3136 76.9385 66.1781 77.0146 66.3861 77.1934 66.3011 77.2762 66.3591 77.4774 66.0305 77.4617 65.754 77.3191 65.6124 77.5334 65.3275 77.6438 65.4218 77.752 65.3711 77.9476 65.5574 78.1102 65.7282 78.436 65.8916 78.5379 66.222 78.5787 66.432 78.4826 66.755 78.5743 67.056 78.8055 67.3442 78.7712 67.5017 78.941 67.4016 79.2043 67.215 79.2639 66.9843 79.4994 66.754 79.0544 66.4813 78.9084 66.1978 78.8958 65.8711 79.0814 65.4005 78.6915 65.165 78.7667 65.3763 78.9897 65.39 79.3503 65.1264 79.5641 64.8945 79.613 65.025 79.7722 64.8879 79.8577 64.7465 79.6707 64.6926 79.4029 64.1737 79.1362 64.0514 79.2077 63.8521 79.0958 63.4761 79.1502 63.365 79.2607 63.1004 79.2739 63.016 79.1628 62.6594 79.5598 62.2244 79.6611 61.9939 79.5959 61.9066 79.4399 61.728 79.6141 61.4407 79.4435 61.3254 79.1877 61.1192 79.0963 61.0513 78.9213 60.9104 78.9324 60.7457 78.7341 60.6946 78.9832 60.5491 79.0287 60.9713 79.3628 61.0981 79.3146 61.4024 79.5583 61.4662 79.6836 61.7539 79.7867 61.7142 80.3047 61.882 80.3925 61.882 80.5548 62.2846 80.7377 62.3943 80.9752 62.5368 81.1026 62.2559 81.2874 62.4043 81.3942 62.6911 81.4519 62.8199 81.542 62.7577 81.7672 62.6167 81.687 62.4142 81.708 62.3235 81.5516 62.087 81.6276 61.9455 81.5326 62.0722 81.2056 62.0156 81.0253 61.7137 80.9687 61.6224 80.863 61.3252 80.7552 61.0994 80.5907 60.813 80.4895 60.862 80.3438 60.4866 79.9294 60.3868 79.9759 60.1993 79.8168 60.0849 79.6107 60.2048 79.485 60.0441 79.1097 59.9052 79.1042 59.7866 78.9166 59.5266 78.8629 59.3883 78.7376 59.1219 78.7213 58.7897 78.7751 58.4011 78.5892 58.5827 78.4992 58.6883 78.3076 58.3491 78.163 58.2065 77.7585 58.4836 77.4792 58.3989 77.2502 58.213 77.0693 57.9856 76.7083 57.9748 76.4206 57.9023 76.155 58.246 76.1716 58.1623 76.349 58.3358 76.5643 58.9587 76.9662 58.7706 77.4071 58.6017 77.4064 58.5461 77.5923 58.3142 77.731 58.4136 78.0559 58.8769 78.381 59.0167 78.2639 59.2356 78.2943 59.6381 78.5396 60.1247 78.2355 59.8903 77.9143 60.0562 77.8511 60.3143 77.859 60.2281 78.1256 60.5291 78.6112 60.846 78.6958 61.1025 78.66 61.3343 78.514 61.2339 78.0164 61.3162 77.8821 61.5371 77.7613 61.605 77.6061 61.7826 77.7358 61.9912 77.4783 61.7757 77.3767 61.5477 77.176 61.7441 77.1163 62.0246 77.3733 62.0284 77.7055 61.5596 77.8955 61.636 78.0675 61.6321 78.326 61.9194 78.3531 62.0659 78.6388 61.7632 78.5174 61.5186 78.7166 61.4827 78.9182 61.61 79.2979 61.7771 79.4246 61.8778 79.3052 61.6149 79.0957 61.6707 78.9113 61.882 78.863 62.2042 79.1849 62.052 79.2673 62.1884 79.5741 62.2929 79.4404 62.4731 79.4035 62.6107 79.1964 62.9545 79.1716 63.2232 78.9569 63.3197 79.1141 63.5187 79.022 64.0196 79.0291 64.1148 78.8903 64.3123 78.944 64.5136 78.8117 64.7115 78.3713 64.2099 78.1467 64.4005 77.7812 64.292 77.5975 64.1285 77.0578 64.0915 76.7377 64.3471 76.5667 64.4336 76.4371 64.442 76.0705 64.2231 75.6013 64.0513 75.0733 64.2371 74.882 64.4505 74.7596 64.5747 75.1048 64.389 75.0479 64.5542 75.5506 64.5153 76.0164 64.735 76.0355 64.7856 76.3908 64.9534 76.5623 65.0672 76.5513 64.9385 76.2411 64.8856 75.8197 65.0704 75.891 65.3386 76.2178 65.4743 76.293 65.5576 76.7345 65.9266 76.854 65.88 76.6151 65.9522 76.4849 65.7186 76.2794 65.5571 76.2444 65.5001 76.0222 65.6579 75.8914 65.4773 75.6668 65.4453 75.4938 65.5002 75.1808 65.814 75.2237 65.5762 74.8293 65.5259 74.6596 65.8111 74.5488 Z M 65.0198 77.4845 65.0059 77.3033 64.7739 77.3055 64.6205 77.478 64.6747 77.6437 64.9617 77.79 65.173 77.8286 65.198 77.6133 65.0198 77.4845 Z M 65.4549 76.8339 65.2409 76.8127 65.0592 77.0239 64.9005 76.8433 64.7098 76.8573 64.7778 77.183 65.1202 77.2194 65.1734 77.4201 65.3005 77.5255 65.4328 77.4309 65.452 77.1896 65.5743 77.0245 65.4549 76.8339 Z" id="geometry_finland_selected_all.fid-3c92ea55_173c704bce9_6504" data-reference="http://gml.fmi.fi/static/2016/FI/sea_region.xml#sea_region.north.FI-115978"/-->
</g>
</svg>
