<?xml version="1.0" encoding="UTF-8"?>
<svg xmlns="http://www.w3.org/2000/svg" xmlns:xlink="http://www.w3.org/1999/xlink" width="28px" height="28px" viewBox="0 0 28 28" version="1.1">
<g id="surface1">
<path style=" stroke:none;fill-rule:evenodd;fill:rgb(13.333333%,12.156863%,12.54902%);fill-opacity:1;" d="M 16.210938 11.804688 L 17.175781 11.804688 L 14.738281 6.929688 L 13.105469 10.191406 C 13.234375 10.480469 13.339844 10.789062 13.425781 11.117188 C 13.667969 12.023438 13.710938 12.945312 13.546875 13.710938 C 13.398438 14.421875 13.042969 15.101562 12.488281 15.726562 C 12.023438 16.253906 11.429688 16.722656 10.777344 17.082031 L 10.667969 17.140625 L 9.570312 19.398438 L 13.96875 19.398438 L 13.96875 21.554688 L 15.503906 21.554688 L 15.503906 19.398438 L 19.902344 19.398438 Z M 16.210938 11.804688 "/>
<path style=" stroke:none;fill-rule:evenodd;fill:rgb(13.333333%,12.156863%,12.54902%);fill-opacity:1;" d="M 11.582031 9.289062 C 11.707031 10.101562 11.914062 11.554688 11.367188 12.140625 C 10.464844 11.015625 11.136719 10.007812 11.265625 9.109375 C 11.417969 8.066406 11.070312 6.921875 10.15625 6.222656 C 10.324219 7.265625 9.890625 8.089844 9.296875 8.898438 C 8.636719 9.796875 8.09375 10.710938 8.089844 11.863281 C 8.085938 13.164062 8.648438 14.457031 9.449219 15.519531 C 9.65625 15.058594 9.855469 14.464844 9.824219 13.941406 C 10.582031 15.015625 10.390625 16.214844 10.332031 16.476562 C 11.433594 15.875 12.496094 14.828125 12.761719 13.570312 C 13.042969 12.238281 12.574219 10.253906 11.582031 9.289062 "/>
</g>
</svg>
