<?xml version="1.0" encoding="UTF-8"?>
<svg xmlns="http://www.w3.org/2000/svg" xmlns:xlink="http://www.w3.org/1999/xlink" width="28px" height="28px" viewBox="0 0 28 28" version="1.1">
<g id="surface1">
<path style=" stroke:none;fill-rule:evenodd;fill:rgb(13.333333%,12.156863%,12.54902%);fill-opacity:1;" d="M 8.089844 20.925781 L 20.527344 20.925781 L 20.527344 19.714844 L 8.089844 19.714844 Z M 8.089844 20.925781 "/>
<path style=" stroke:none;fill-rule:evenodd;fill:rgb(13.333333%,12.156863%,12.54902%);fill-opacity:1;" d="M 17.992188 12.910156 C 18.265625 14.246094 16.886719 16.019531 16.394531 15.089844 C 16.152344 14.632812 16.546875 13.894531 16.683594 13.460938 C 16.910156 12.742188 17.089844 11.980469 17.058594 11.222656 C 16.96875 8.910156 15.054688 5.578125 12.042969 5.601562 C 13.71875 7.621094 9.484375 9.496094 10.328125 13.910156 C 9.578125 13.78125 9.035156 12.359375 9.035156 12.359375 C 9.035156 12.359375 7.273438 18.726562 12.558594 18.726562 C 11.25 17.902344 10.289062 16.695312 10.25 15.304688 C 10.25 15.304688 11.398438 16.257812 12.414062 16.214844 C 11.648438 14.226562 13.027344 12.148438 14.742188 11.414062 C 14.175781 12.597656 13.578125 14.074219 13.753906 15.40625 C 14.027344 17.46875 16.335938 17.34375 17.816406 16.050781 C 17.816406 16.929688 16.609375 18.023438 15.855469 18.726562 C 20.917969 17.769531 19.09375 13.390625 17.992188 12.910156 "/>
</g>
</svg>
