<?xml version="1.0" encoding="UTF-8"?>
<svg xmlns="http://www.w3.org/2000/svg" xmlns:xlink="http://www.w3.org/1999/xlink" width="28px" height="28px" viewBox="0 0 28 28" version="1.1">
<g id="surface1">
<path style=" stroke:none;fill-rule:evenodd;fill:rgb(13.333333%,12.156863%,12.54902%);fill-opacity:1;" d="M 15.230469 12.722656 C 15.230469 12.722656 13.296875 17.964844 12.082031 19.179688 C 11.167969 20.09375 9.6875 20.09375 8.773438 19.179688 C 7.859375 18.265625 7.859375 16.785156 8.773438 15.871094 C 9.988281 14.65625 15.230469 12.722656 15.230469 12.722656 "/>
<path style=" stroke:none;fill-rule:evenodd;fill:rgb(13.333333%,12.156863%,12.54902%);fill-opacity:1;" d="M 20.515625 13.808594 C 20.515625 13.808594 19.039062 17.808594 18.113281 18.734375 C 17.417969 19.433594 16.285156 19.433594 15.589844 18.734375 C 14.890625 18.039062 14.890625 16.910156 15.589844 16.210938 C 16.515625 15.285156 20.515625 13.808594 20.515625 13.808594 "/>
<path style=" stroke:none;fill-rule:evenodd;fill:rgb(13.333333%,12.156863%,12.54902%);fill-opacity:1;" d="M 14.191406 7.464844 C 14.191406 7.464844 12.714844 11.46875 11.789062 12.394531 C 11.09375 13.089844 9.960938 13.089844 9.265625 12.394531 C 8.566406 11.695312 8.566406 10.566406 9.265625 9.867188 C 10.191406 8.945312 14.191406 7.464844 14.191406 7.464844 "/>
</g>
</svg>
