<?xml version="1.0" encoding="UTF-8"?>
<svg xmlns="http://www.w3.org/2000/svg" xmlns:xlink="http://www.w3.org/1999/xlink" width="28px" height="28px" viewBox="0 0 28 28" version="1.1">
<g id="surface1">
<path style=" stroke:none;fill-rule:evenodd;fill:rgb(13.333333%,12.156863%,12.54902%);fill-opacity:1;" d="M 18.390625 19.039062 C 17.128906 19.039062 16.472656 18.339844 15.945312 17.777344 C 15.472656 17.273438 15.101562 16.875 14.335938 16.875 C 13.570312 16.875 13.195312 17.273438 12.726562 17.777344 C 12.199219 18.339844 11.539062 19.039062 10.277344 19.039062 C 9.015625 19.039062 8.359375 18.339844 7.832031 17.777344 C 7.359375 17.273438 6.988281 16.875 6.222656 16.875 L 6.222656 15.730469 C 7.484375 15.730469 8.140625 16.433594 8.667969 16.996094 C 9.140625 17.496094 9.511719 17.894531 10.277344 17.894531 C 11.042969 17.894531 11.417969 17.496094 11.890625 16.996094 C 12.417969 16.433594 13.074219 15.730469 14.335938 15.730469 C 15.597656 15.730469 16.253906 16.433594 16.78125 16.996094 C 17.253906 17.496094 17.625 17.894531 18.390625 17.894531 C 19.160156 17.894531 19.53125 17.496094 20.003906 16.996094 C 20.53125 16.433594 21.1875 15.730469 22.449219 15.730469 L 22.449219 16.875 C 21.683594 16.875 21.308594 17.273438 20.839844 17.777344 C 20.3125 18.339844 19.65625 19.039062 18.390625 19.039062 "/>
<path style=" stroke:none;fill-rule:evenodd;fill:rgb(13.333333%,12.156863%,12.54902%);fill-opacity:1;" d="M 18.390625 21.65625 C 17.128906 21.65625 16.472656 20.957031 15.945312 20.394531 C 15.472656 19.890625 15.101562 19.492188 14.335938 19.492188 C 13.570312 19.492188 13.195312 19.890625 12.726562 20.394531 C 12.199219 20.957031 11.539062 21.65625 10.277344 21.65625 C 9.015625 21.65625 8.359375 20.957031 7.832031 20.394531 C 7.359375 19.890625 6.988281 19.492188 6.222656 19.492188 L 6.222656 18.347656 C 7.484375 18.347656 8.140625 19.046875 8.667969 19.609375 C 9.140625 20.113281 9.511719 20.511719 10.277344 20.511719 C 11.042969 20.511719 11.417969 20.113281 11.890625 19.609375 C 12.417969 19.046875 13.074219 18.347656 14.335938 18.347656 C 15.597656 18.347656 16.253906 19.046875 16.78125 19.609375 C 17.253906 20.113281 17.625 20.511719 18.390625 20.511719 C 19.160156 20.511719 19.53125 20.113281 20.003906 19.609375 C 20.53125 19.046875 21.1875 18.347656 22.449219 18.347656 L 22.449219 19.492188 C 21.683594 19.492188 21.308594 19.890625 20.839844 20.394531 C 20.3125 20.957031 19.65625 21.65625 18.390625 21.65625 "/>
<path style=" stroke:none;fill-rule:evenodd;fill:rgb(13.333333%,12.156863%,12.54902%);fill-opacity:1;" d="M 16.730469 9.011719 L 16.730469 6.222656 L 19.917969 6.222656 L 19.917969 9.011719 L 21.511719 9.011719 L 18.324219 12.597656 L 15.136719 9.011719 Z M 16.730469 9.011719 "/>
</g>
</svg>
