<?xml version="1.0" encoding="UTF-8"?>
<svg xmlns="http://www.w3.org/2000/svg" xmlns:xlink="http://www.w3.org/1999/xlink" width="28px" height="28px" viewBox="0 0 28 28" version="1.1">
<g id="surface1">
<path style=" stroke:none;fill-rule:evenodd;fill:rgb(13.333333%,12.156863%,12.54902%);fill-opacity:1;" d="M 15.226562 12.785156 C 15.226562 11.605469 16.183594 10.648438 17.363281 10.648438 C 17.867188 10.648438 18.371094 10.84375 18.738281 11.132812 C 18.734375 11.132812 18.730469 11.128906 18.738281 11.132812 C 18.746094 11.136719 18.742188 11.136719 18.738281 11.132812 C 18.285156 9.050781 16.464844 7.507812 14.246094 7.507812 C 13.425781 7.507812 12.660156 7.722656 11.992188 8.09375 C 7.359375 10.261719 8.132812 18.644531 8.144531 19.929688 L 21.761719 19.929688 C 19.660156 18.359375 15.226562 15.253906 15.226562 12.785156 "/>
<path style=" stroke:none;fill-rule:evenodd;fill:rgb(13.333333%,12.156863%,12.54902%);fill-opacity:1;" d="M 18.550781 13.476562 C 19.335938 13.027344 18.824219 11.558594 18.816406 11.507812 C 18.449219 11.289062 18.007812 11.15625 17.566406 11.15625 C 16.808594 11.15625 16.136719 11.511719 15.699219 12.0625 C 16.734375 12.847656 18.089844 13.742188 18.550781 13.476562 "/>
</g>
</svg>
