<?xml version="1.0" encoding="UTF-8"?>
<svg xmlns="http://www.w3.org/2000/svg" xmlns:xlink="http://www.w3.org/1999/xlink" width="28px" height="28px" viewBox="0 0 28 28" version="1.1">
<g id="surface1">
<path style=" stroke:none;fill-rule:evenodd;fill:rgb(0%,0%,0%);fill-opacity:1;" d="M 22.84375 5.15625 L 14.738281 7.859375 L 18.789062 9.210938 L 20.140625 13.261719 Z M 22.84375 5.15625 "/>
<path style=" stroke:none;fill-rule:evenodd;fill:rgb(0%,0%,0%);fill-opacity:1;" d="M 14 8.84375 C 11.15625 8.84375 8.84375 11.15625 8.84375 14 C 8.84375 16.84375 11.15625 19.160156 14 19.160156 C 16.84375 19.160156 19.15625 16.84375 19.15625 14 C 19.15625 11.15625 16.84375 8.84375 14 8.84375 Z M 14 6.632812 C 18.0625 6.632812 21.367188 9.9375 21.367188 14 C 21.367188 18.0625 18.0625 21.367188 14 21.367188 C 9.9375 21.367188 6.632812 18.0625 6.632812 14 C 6.632812 9.9375 9.9375 6.632812 14 6.632812 Z M 14 6.632812 "/>
</g>
</svg>
