<?xml version="1.0" encoding="UTF-8"?>
<svg xmlns="http://www.w3.org/2000/svg" xmlns:xlink="http://www.w3.org/1999/xlink" width="28px" height="28px" viewBox="0 0 28 28" version="1.1">
<g id="surface1">
<path style=" stroke:none;fill-rule:evenodd;fill:rgb(13.333333%,12.156863%,12.54902%);fill-opacity:1;" d="M 14.367188 18.234375 L 14.367188 12.691406 C 14.367188 12.390625 14.128906 12.152344 13.828125 12.152344 C 13.53125 12.152344 13.289062 12.390625 13.289062 12.691406 L 13.289062 18.234375 C 12.824219 18.441406 12.5 18.90625 12.5 19.445312 C 12.5 20.179688 13.097656 20.773438 13.828125 20.773438 C 14.5625 20.773438 15.15625 20.179688 15.15625 19.445312 C 15.15625 18.90625 14.832031 18.441406 14.367188 18.234375 "/>
<path style=" stroke:none;fill-rule:evenodd;fill:rgb(13.333333%,12.156863%,12.54902%);fill-opacity:1;" d="M 13.828125 21.453125 C 12.722656 21.453125 11.820312 20.554688 11.820312 19.445312 C 11.820312 18.882812 12.050781 18.359375 12.46875 17.976562 L 12.46875 17.972656 C 12.589844 17.859375 12.667969 17.699219 12.667969 17.519531 L 12.667969 7.382812 C 12.667969 6.742188 13.1875 6.222656 13.828125 6.222656 C 14.46875 6.222656 14.992188 6.742188 14.992188 7.382812 L 14.992188 17.519531 C 14.992188 17.699219 15.070312 17.859375 15.191406 17.972656 L 15.191406 17.976562 C 15.609375 18.359375 15.835938 18.882812 15.835938 19.445312 C 15.835938 20.554688 14.9375 21.453125 13.828125 21.453125 Z M 17.503906 9.894531 C 17.792969 9.894531 18.023438 9.660156 18.023438 9.375 C 18.023438 9.089844 17.792969 8.855469 17.503906 8.855469 L 16.234375 8.855469 L 16.234375 8.203125 L 17.503906 8.203125 C 17.792969 8.203125 18.023438 7.96875 18.023438 7.683594 C 18.023438 7.398438 17.792969 7.164062 17.503906 7.164062 L 16.226562 7.164062 C 16.113281 5.941406 15.082031 4.976562 13.828125 4.976562 C 12.503906 4.976562 11.425781 6.058594 11.425781 7.382812 L 11.425781 17.265625 C 10.882812 17.859375 10.578125 18.640625 10.578125 19.445312 C 10.578125 21.238281 12.035156 22.699219 13.828125 22.699219 C 15.621094 22.699219 17.082031 21.238281 17.082031 19.445312 C 17.082031 18.640625 16.777344 17.859375 16.234375 17.265625 L 16.234375 11.585938 L 17.503906 11.585938 C 17.792969 11.585938 18.023438 11.355469 18.023438 11.066406 C 18.023438 10.78125 17.792969 10.550781 17.503906 10.550781 L 16.234375 10.550781 L 16.234375 9.894531 Z M 17.503906 9.894531 "/>
</g>
</svg>
