<?xml version="1.0" encoding="UTF-8"?>
<svg xmlns="http://www.w3.org/2000/svg" xmlns:xlink="http://www.w3.org/1999/xlink" width="28px" height="28px" viewBox="0 0 28 28" version="1.1">
<g id="surface1">
<path style=" stroke:none;fill-rule:evenodd;fill:rgb(13.72549%,12.156863%,12.54902%);fill-opacity:1;" d="M 9.890625 16.851562 L 17.976562 16.851562 L 17.976562 11.488281 L 20.386719 11.488281 L 13.933594 6.632812 L 7.480469 11.488281 L 9.886719 11.488281 L 9.886719 16.851562 Z M 15.074219 13.90625 L 12.753906 13.90625 L 12.753906 11.585938 L 15.074219 11.585938 Z M 15.074219 13.90625 "/>
<path style=" stroke:none;fill-rule:evenodd;fill:rgb(13.72549%,12.156863%,12.54902%);fill-opacity:1;" d="M 21.542969 18.722656 C 20.371094 18.722656 19.757812 19.375 19.265625 19.898438 C 18.828125 20.367188 18.480469 20.738281 17.765625 20.738281 C 17.050781 20.738281 16.703125 20.367188 16.265625 19.898438 C 15.773438 19.375 15.160156 18.722656 13.988281 18.722656 C 12.8125 18.722656 12.199219 19.375 11.707031 19.894531 C 11.269531 20.363281 10.921875 20.734375 10.207031 20.734375 C 9.492188 20.734375 9.148438 20.363281 8.707031 19.894531 C 8.214844 19.375 7.605469 18.722656 6.429688 18.722656 C 6.132812 18.722656 5.894531 18.960938 5.894531 19.253906 C 5.894531 19.550781 6.132812 19.789062 6.429688 19.789062 L 6.441406 19.789062 C 7.144531 19.792969 7.492188 20.160156 7.929688 20.628906 C 8.421875 21.152344 9.03125 21.804688 10.207031 21.804688 C 11.382812 21.804688 11.996094 21.152344 12.484375 20.628906 C 12.925781 20.160156 13.273438 19.789062 13.988281 19.789062 C 14.699219 19.789062 15.046875 20.160156 15.488281 20.628906 C 15.980469 21.152344 16.589844 21.804688 17.765625 21.804688 C 18.941406 21.804688 19.554688 21.152344 20.042969 20.628906 C 20.480469 20.160156 20.828125 19.796875 21.535156 19.789062 L 21.542969 19.789062 C 21.839844 19.789062 22.078125 19.550781 22.078125 19.257812 C 22.078125 18.960938 21.839844 18.722656 21.542969 18.722656 Z M 21.542969 18.722656 "/>
</g>
</svg>
