<?xml version="1.0" encoding="UTF-8"?>
<svg xmlns="http://www.w3.org/2000/svg" xmlns:xlink="http://www.w3.org/1999/xlink" width="28px" height="28px" viewBox="0 0 28 28" version="1.1">
<g id="surface1">
<path style="stroke:rgba(255, 255, 255, 1.0);stroke-width: 1px;paint-order: stroke;fill-rule:evenodd;fill:rgb(13.72549%,12.156863%,12.54902%);fill-opacity:1;" d="M 12.753906 11.589844 L 15.074219 11.589844 L 15.074219 13.90625 L 13.964844 13.90625 L 17.976562 15.917969 L 17.976562 11.488281 L 20.386719 11.488281 L 13.933594 6.632812 L 7.480469 11.488281 L 9.890625 11.488281 L 9.890625 15.917969 L 13.902344 13.90625 L 12.753906 13.90625 Z M 12.753906 11.589844 "/>
<path style="stroke:rgba(255, 255, 255, 1.0);stroke-width: 1px;paint-order: stroke;fill-rule:evenodd;fill:rgb(13.72549%,12.156863%,12.54902%);fill-opacity:1;" d="M 21.542969 17.964844 C 20.371094 17.964844 19.757812 18.617188 19.265625 19.140625 C 18.828125 19.609375 18.480469 19.980469 17.765625 19.980469 C 17.050781 19.980469 16.703125 19.609375 16.265625 19.140625 C 15.773438 18.617188 15.160156 17.964844 13.988281 17.964844 C 12.8125 17.964844 12.199219 18.617188 11.707031 19.140625 C 11.269531 19.609375 10.921875 19.976562 10.207031 19.976562 C 9.492188 19.976562 9.148438 19.609375 8.707031 19.140625 C 8.214844 18.617188 7.605469 17.964844 6.429688 17.964844 C 6.132812 17.964844 5.894531 18.203125 5.894531 18.5 C 5.894531 18.792969 6.132812 19.03125 6.429688 19.03125 L 6.441406 19.03125 C 7.144531 19.035156 7.492188 19.40625 7.929688 19.871094 C 8.421875 20.394531 9.03125 21.046875 10.207031 21.046875 C 11.382812 21.046875 11.996094 20.394531 12.484375 19.871094 C 12.925781 19.402344 13.273438 19.03125 13.988281 19.03125 C 14.699219 19.03125 15.046875 19.402344 15.488281 19.871094 C 15.980469 20.394531 16.589844 21.046875 17.765625 21.046875 C 18.941406 21.046875 19.554688 20.394531 20.042969 19.871094 C 20.480469 19.40625 20.828125 19.039062 21.535156 19.03125 L 21.542969 19.03125 C 21.839844 19.03125 22.078125 18.792969 22.078125 18.5 C 22.078125 18.203125 21.839844 17.964844 21.542969 17.964844 Z M 21.542969 17.964844 "/>
<path style="stroke:rgba(255, 255, 255, 1.0);stroke-width: 1px;paint-order: stroke;fill-rule:evenodd;fill:rgb(13.72549%,12.156863%,12.54902%);fill-opacity:1;" d="M 21.542969 15.527344 C 20.371094 15.527344 19.757812 16.179688 19.265625 16.703125 C 18.828125 17.171875 18.480469 17.542969 17.765625 17.542969 C 17.050781 17.542969 16.707031 17.171875 16.265625 16.703125 C 15.773438 16.179688 15.164062 15.527344 13.988281 15.527344 C 12.8125 15.527344 12.199219 16.179688 11.707031 16.703125 C 11.269531 17.171875 10.921875 17.542969 10.207031 17.542969 C 9.492188 17.542969 9.148438 17.171875 8.707031 16.703125 C 8.214844 16.179688 7.605469 15.527344 6.429688 15.527344 C 6.132812 15.527344 5.894531 15.765625 5.894531 16.0625 C 5.894531 16.355469 6.132812 16.59375 6.429688 16.59375 L 6.4375 16.59375 C 7.144531 16.597656 7.492188 16.96875 7.929688 17.433594 C 8.417969 17.957031 9.03125 18.609375 10.207031 18.609375 C 11.382812 18.609375 11.996094 17.957031 12.484375 17.433594 C 12.925781 16.964844 13.273438 16.59375 13.988281 16.59375 C 14.699219 16.59375 15.046875 16.964844 15.488281 17.433594 C 15.980469 17.957031 16.589844 18.609375 17.765625 18.609375 C 18.941406 18.609375 19.554688 17.957031 20.042969 17.433594 C 20.480469 16.96875 20.828125 16.597656 21.535156 16.59375 L 21.542969 16.59375 C 21.734375 16.59375 21.910156 16.492188 22.007812 16.328125 C 22.101562 16.164062 22.101562 15.960938 22.007812 15.792969 C 21.910156 15.628906 21.734375 15.527344 21.542969 15.527344 Z M 21.542969 15.527344 "/>
<path style="stroke:rgba(255, 255, 255, 1.0);stroke-width: 1px;paint-order: stroke;fill-rule:evenodd;fill:rgb(13.72549%,12.156863%,12.54902%);fill-opacity:1;" d="M 21.542969 13.089844 C 20.371094 13.089844 19.757812 13.742188 19.265625 14.265625 C 18.828125 14.734375 18.480469 15.105469 17.765625 15.105469 C 17.050781 15.105469 16.707031 14.734375 16.265625 14.265625 C 15.773438 13.742188 15.164062 13.089844 13.988281 13.089844 C 12.8125 13.089844 12.199219 13.742188 11.707031 14.265625 C 11.269531 14.734375 10.921875 15.105469 10.207031 15.105469 C 9.492188 15.105469 9.148438 14.734375 8.707031 14.265625 C 8.214844 13.742188 7.605469 13.089844 6.429688 13.089844 C 6.132812 13.089844 5.894531 13.328125 5.894531 13.625 C 5.894531 13.917969 6.132812 14.15625 6.429688 14.15625 L 6.4375 14.15625 C 7.144531 14.160156 7.492188 14.53125 7.929688 14.996094 C 8.421875 15.519531 9.03125 16.171875 10.207031 16.171875 C 11.382812 16.171875 11.996094 15.519531 12.488281 14.996094 C 12.925781 14.527344 13.273438 14.15625 13.988281 14.15625 C 14.699219 14.15625 15.046875 14.527344 15.488281 14.996094 C 15.980469 15.519531 16.589844 16.171875 17.765625 16.171875 C 18.941406 16.171875 19.554688 15.519531 20.042969 14.996094 C 20.480469 14.53125 20.828125 14.160156 21.535156 14.15625 L 21.542969 14.15625 C 21.839844 14.15625 22.078125 13.917969 22.078125 13.625 C 22.078125 13.328125 21.839844 13.089844 21.542969 13.089844 Z M 21.542969 13.089844 "/>
</g>
</svg>
