<?xml version="1.0" encoding="UTF-8"?>
<svg xmlns="http://www.w3.org/2000/svg" xmlns:xlink="http://www.w3.org/1999/xlink" width="28px" height="28px" viewBox="0 0 28 28" version="1.1">
<g id="surface1">
<path style=" stroke:none;fill-rule:evenodd;fill:rgb(13.333333%,12.156863%,12.54902%);fill-opacity:1;" d="M 7.464844 21.207031 L 21.148438 21.207031 L 21.148438 19.832031 L 7.464844 19.832031 Z M 7.464844 21.207031 "/>
<path style=" stroke:none;fill-rule:evenodd;fill:rgb(13.333333%,12.156863%,12.54902%);fill-opacity:1;" d="M 13.085938 6.300781 L 12.683594 9.726562 L 13.949219 10.195312 L 12.460938 11.152344 L 9.921875 10.496094 L 7.960938 14.425781 L 8.710938 14.816406 L 10.722656 12.292969 L 12.113281 13.085938 L 10.363281 14.945312 L 11.890625 18.558594 L 12.59375 18.304688 L 11.847656 15.546875 L 16.867188 11.632812 L 17.917969 12.34375 L 17.125 14.871094 L 17.726562 15.132812 L 19.28125 12.0625 L 16.453125 9.347656 L 13.898438 8.773438 L 13.902344 6.222656 Z M 13.085938 6.300781 "/>
<path style=" stroke:none;fill-rule:evenodd;fill:rgb(13.333333%,12.156863%,12.54902%);fill-opacity:1;" d="M 16.488281 8.796875 C 17.175781 8.84375 17.769531 8.3125 17.816406 7.605469 C 17.867188 6.898438 17.351562 6.285156 16.664062 6.234375 C 15.980469 6.183594 15.382812 6.71875 15.335938 7.425781 C 15.289062 8.132812 15.804688 8.746094 16.488281 8.796875 "/>
</g>
</svg>
