<?xml version="1.0" encoding="UTF-8"?>
<svg xmlns="http://www.w3.org/2000/svg" xmlns:xlink="http://www.w3.org/1999/xlink" width="28px" height="28px" viewBox="0 0 28 28" version="1.1">
  <g transform-origin="14 14" transform="scale(0.85)">
    <path style="stroke:rgba(255, 255, 255, 1.0);stroke-width: 2.5px;paint-order: stroke;fill-rule:evenodd;fill:rgb(0%,0%,0%);fill-opacity:1;" d=" M 16.782 7.178 L 22.844 5.156 L 20.822 11.218 C 21.173 12.077 21.367 13.016 21.367 14 C 21.367 18.063 18.063 21.367 14 21.367 C 9.938 21.367 6.633 18.063 6.633 14 C 6.633 9.938 9.938 6.633 14 6.633 L 14 6.633 C 14.984 6.633 15.923 6.827 16.782 7.178 Z  M 14 8.844 C 11.156 8.844 8.844 11.156 8.844 14 C 8.844 16.844 11.156 19.16 14 19.16 C 16.844 19.16 19.156 16.844 19.156 14 C 19.156 11.156 16.844 8.844 14 8.844 L 14 8.844 Z"/>
  </g>
</svg>
