<?xml version="1.0" encoding="UTF-8"?>
<svg xmlns="http://www.w3.org/2000/svg" xmlns:xlink="http://www.w3.org/1999/xlink" width="28px" height="28px" viewBox="0 0 28 28" version="1.1">
  <g>
    <path style="stroke:rgba(255, 255, 255, 1.0);stroke-width: 2.2px;paint-order: stroke;fill-rule:evenodd;fill:rgb(13.333333%,12.156863%,12.54902%);fill-opacity:1;" d=" M 10.047 21.57 C 10.07 21.438 10.105 21.289 10.156 21.133 C 10.23 20.902 10.336 20.648 10.461 20.379 C 10.586 20.113 10.73 19.832 10.883 19.543 C 11.035 19.25 11.191 18.953 11.348 18.645 C 11.5 18.336 11.648 18.023 11.777 17.699 C 11.906 17.379 12.012 17.051 12.086 16.73 C 12.156 16.41 12.195 16.094 12.199 15.801 C 12.203 15.512 12.172 15.246 12.125 15.02 C 12.082 14.793 12.02 14.602 11.961 14.453 C 11.945 14.414 11.934 14.379 11.918 14.348 C 11.906 14.313 11.891 14.281 11.879 14.25 C 11.863 14.223 11.852 14.195 11.84 14.168 C 11.832 14.148 11.82 14.129 11.813 14.113 C 11.773 14.047 11.758 14.008 11.758 14.008 L 11.32 14.152 C 11.32 14.152 11.324 14.191 11.332 14.27 C 11.332 14.289 11.336 14.313 11.34 14.336 C 11.34 14.355 11.34 14.383 11.34 14.406 C 11.34 14.434 11.344 14.461 11.344 14.492 C 11.344 14.52 11.344 14.555 11.344 14.586 C 11.34 14.723 11.328 14.887 11.297 15.063 C 11.262 15.242 11.207 15.434 11.121 15.629 C 11.039 15.824 10.922 16.023 10.785 16.223 C 10.641 16.422 10.473 16.617 10.281 16.816 C 10.09 17.012 9.875 17.211 9.645 17.41 C 9.414 17.609 9.172 17.813 8.918 18.027 C 8.664 18.238 8.406 18.461 8.148 18.703 C 7.887 18.945 7.629 19.203 7.383 19.492 C 7.137 19.777 6.906 20.098 6.707 20.445 C 6.508 20.793 6.34 21.168 6.23 21.547 C 6.227 21.555 6.223 21.563 6.223 21.57 L 10.047 21.57 Z  M 16.883 21.57 C 16.902 21.457 16.934 21.332 16.977 21.195 C 17.039 21 17.129 20.785 17.234 20.559 C 17.34 20.332 17.465 20.094 17.594 19.844 C 17.723 19.598 17.859 19.344 17.988 19.082 C 18.117 18.82 18.246 18.551 18.352 18.277 C 18.461 18.008 18.551 17.727 18.617 17.453 C 18.676 17.18 18.711 16.914 18.715 16.664 C 18.715 16.418 18.691 16.191 18.652 16 C 18.613 15.805 18.563 15.645 18.512 15.516 C 18.5 15.484 18.488 15.457 18.477 15.426 C 18.461 15.398 18.449 15.371 18.441 15.344 C 18.43 15.32 18.418 15.297 18.41 15.277 C 18.398 15.258 18.391 15.242 18.383 15.227 C 18.352 15.172 18.336 15.141 18.336 15.141 L 17.965 15.262 C 17.965 15.262 17.969 15.297 17.977 15.359 C 17.977 15.379 17.98 15.395 17.98 15.418 C 17.98 15.434 17.98 15.457 17.984 15.477 C 17.984 15.5 17.984 15.523 17.984 15.551 C 17.984 15.574 17.984 15.602 17.984 15.633 C 17.984 15.746 17.973 15.883 17.945 16.035 C 17.918 16.188 17.871 16.352 17.797 16.516 C 17.727 16.684 17.629 16.855 17.508 17.023 C 17.387 17.191 17.246 17.359 17.082 17.527 C 16.918 17.695 16.734 17.863 16.539 18.031 C 16.344 18.203 16.137 18.375 15.922 18.555 C 15.707 18.738 15.488 18.926 15.266 19.133 C 15.047 19.336 14.828 19.559 14.617 19.801 C 14.41 20.047 14.211 20.32 14.043 20.613 C 13.871 20.91 13.73 21.227 13.637 21.551 C 13.633 21.559 13.633 21.563 13.629 21.57 L 16.883 21.57 Z"/>
    <path style="stroke:rgba(255, 255, 255, 1.0);stroke-width: 2.2px;paint-order: stroke;fill-rule:evenodd;fill:rgb(13.333333%,12.156863%,12.54902%);fill-opacity:1;" d=" M 11.798 8.412 L 13.203 5.891 C 13.297 5.719 13.516 5.602 13.715 5.602 L 13.715 5.602 C 13.742 5.602 13.766 5.602 13.793 5.605 L 18.887 6.508 C 19.102 6.547 19.309 6.754 19.344 6.973 L 19.805 9.829 L 20.641 9.977 C 20.859 10.016 20.992 10.223 20.938 10.438 L 20.207 13.289 C 20.152 13.504 19.93 13.648 19.715 13.609 L 19.254 13.527 L 19.121 14.273 C 19.082 14.492 18.875 14.637 18.656 14.602 L 17.895 14.465 C 17.676 14.426 17.531 14.215 17.566 14 L 17.699 13.254 L 15.59 12.883 C 15.375 12.844 15.184 12.809 15.168 12.809 C 15.152 12.805 14.961 12.77 14.742 12.73 L 12.637 12.359 L 12.504 13.102 C 12.469 13.32 12.258 13.469 12.039 13.43 L 11.277 13.297 C 11.059 13.258 10.914 13.047 10.953 12.828 L 11.082 12.086 L 10.621 12.004 C 10.402 11.965 10.242 11.754 10.266 11.531 L 10.555 8.602 C 10.578 8.379 10.773 8.23 10.992 8.27 L 11.798 8.412 Z  M 18.589 9.614 L 18.262 7.582 L 14.012 6.832 L 14.012 6.832 L 13.011 8.627 L 18.589 9.614 Z"/>
  </g>
</svg>
