<?xml version="1.0" encoding="UTF-8"?>
<svg xmlns="http://www.w3.org/2000/svg" xmlns:xlink="http://www.w3.org/1999/xlink" width="28px" height="28px" viewBox="0 0 28 28" version="1.1">
<g id="surface1">
<path style=" stroke:none;fill-rule:evenodd;fill:rgb(13.333333%,12.156863%,12.54902%);fill-opacity:1;" d="M 13.714844 5.601562 C 13.515625 5.601562 13.296875 5.71875 13.203125 5.890625 L 11.738281 8.519531 C 11.628906 8.710938 11.5625 9.050781 11.589844 9.269531 C 11.589844 9.269531 11.84375 11.324219 15.15625 11.949219 C 15.628906 12.035156 16.054688 12.074219 16.445312 12.074219 C 18.789062 12.074219 19.671875 10.683594 19.671875 10.683594 C 19.792969 10.5 19.859375 10.167969 19.824219 9.949219 L 19.34375 6.972656 C 19.308594 6.753906 19.101562 6.546875 18.886719 6.507812 L 13.792969 5.605469 C 13.765625 5.601562 13.742188 5.601562 13.714844 5.601562 M 14.011719 6.832031 L 18.261719 7.582031 L 18.664062 10.082031 C 18.507812 10.269531 17.859375 10.90625 16.445312 10.90625 C 16.109375 10.90625 15.75 10.871094 15.375 10.800781 C 13.242188 10.398438 12.820312 9.363281 12.753906 9.132812 C 12.757812 9.109375 12.761719 9.082031 12.765625 9.066406 L 14.011719 6.832031 "/>
<path style=" stroke:none;fill-rule:evenodd;fill:rgb(13.333333%,12.156863%,12.54902%);fill-opacity:1;" d="M 19.253906 13.527344 L 19.121094 14.273438 C 19.082031 14.492188 18.875 14.636719 18.65625 14.601562 L 17.894531 14.464844 C 17.675781 14.425781 17.53125 14.214844 17.566406 14 L 17.699219 13.253906 L 15.589844 12.882812 C 15.375 12.84375 15.183594 12.808594 15.167969 12.808594 C 15.152344 12.804688 14.960938 12.769531 14.742188 12.730469 L 12.636719 12.359375 L 12.503906 13.101562 C 12.46875 13.320312 12.257812 13.46875 12.039062 13.429688 L 11.277344 13.296875 C 11.058594 13.257812 10.914062 13.046875 10.953125 12.828125 L 11.082031 12.085938 L 10.621094 12.003906 C 10.402344 11.964844 10.242188 11.753906 10.265625 11.53125 L 10.554688 8.601562 C 10.578125 8.378906 10.773438 8.230469 10.992188 8.269531 L 20.640625 9.976562 C 20.859375 10.015625 20.992188 10.222656 20.9375 10.4375 L 20.207031 13.289062 C 20.152344 13.503906 19.929688 13.648438 19.714844 13.609375 Z M 19.253906 13.527344 "/>
<path style=" stroke:none;fill-rule:evenodd;fill:rgb(13.333333%,12.156863%,12.54902%);fill-opacity:1;" d="M 10.046875 21.570312 C 10.070312 21.4375 10.105469 21.289062 10.15625 21.132812 C 10.230469 20.902344 10.335938 20.648438 10.460938 20.378906 C 10.585938 20.113281 10.730469 19.832031 10.882812 19.542969 C 11.035156 19.25 11.191406 18.953125 11.347656 18.644531 C 11.5 18.335938 11.648438 18.023438 11.777344 17.699219 C 11.90625 17.378906 12.011719 17.050781 12.085938 16.730469 C 12.15625 16.410156 12.195312 16.09375 12.199219 15.800781 C 12.203125 15.511719 12.171875 15.246094 12.125 15.019531 C 12.082031 14.792969 12.019531 14.601562 11.960938 14.453125 C 11.945312 14.414062 11.933594 14.378906 11.917969 14.347656 C 11.90625 14.3125 11.890625 14.28125 11.878906 14.25 C 11.863281 14.222656 11.851562 14.195312 11.839844 14.167969 C 11.832031 14.148438 11.820312 14.128906 11.8125 14.113281 C 11.773438 14.046875 11.757812 14.007812 11.757812 14.007812 L 11.320312 14.152344 C 11.320312 14.152344 11.324219 14.191406 11.332031 14.269531 C 11.332031 14.289062 11.335938 14.3125 11.339844 14.335938 C 11.339844 14.355469 11.339844 14.382812 11.339844 14.40625 C 11.339844 14.433594 11.34375 14.460938 11.34375 14.492188 C 11.34375 14.519531 11.34375 14.554688 11.34375 14.585938 C 11.339844 14.722656 11.328125 14.886719 11.296875 15.0625 C 11.261719 15.242188 11.207031 15.433594 11.121094 15.628906 C 11.039062 15.824219 10.921875 16.023438 10.785156 16.222656 C 10.640625 16.421875 10.472656 16.617188 10.28125 16.816406 C 10.089844 17.011719 9.875 17.210938 9.644531 17.410156 C 9.414062 17.609375 9.171875 17.8125 8.917969 18.027344 C 8.664062 18.238281 8.40625 18.460938 8.148438 18.703125 C 7.886719 18.945312 7.628906 19.203125 7.382812 19.492188 C 7.136719 19.777344 6.90625 20.097656 6.707031 20.445312 C 6.507812 20.792969 6.339844 21.167969 6.230469 21.546875 C 6.226562 21.554688 6.222656 21.5625 6.222656 21.570312 Z M 16.882812 21.570312 C 16.902344 21.457031 16.933594 21.332031 16.976562 21.195312 C 17.039062 21 17.128906 20.785156 17.234375 20.558594 C 17.339844 20.332031 17.464844 20.09375 17.59375 19.84375 C 17.722656 19.597656 17.859375 19.34375 17.988281 19.082031 C 18.117188 18.820312 18.246094 18.550781 18.351562 18.277344 C 18.460938 18.007812 18.550781 17.726562 18.617188 17.453125 C 18.675781 17.179688 18.710938 16.914062 18.714844 16.664062 C 18.714844 16.417969 18.691406 16.191406 18.652344 16 C 18.613281 15.804688 18.5625 15.644531 18.511719 15.515625 C 18.5 15.484375 18.488281 15.457031 18.476562 15.425781 C 18.460938 15.398438 18.449219 15.371094 18.441406 15.34375 C 18.429688 15.320312 18.417969 15.296875 18.410156 15.277344 C 18.398438 15.257812 18.390625 15.242188 18.382812 15.226562 C 18.351562 15.171875 18.335938 15.140625 18.335938 15.140625 L 17.964844 15.261719 C 17.964844 15.261719 17.96875 15.296875 17.976562 15.359375 C 17.976562 15.378906 17.980469 15.394531 17.980469 15.417969 C 17.980469 15.433594 17.980469 15.457031 17.984375 15.476562 C 17.984375 15.5 17.984375 15.523438 17.984375 15.550781 C 17.984375 15.574219 17.984375 15.601562 17.984375 15.632812 C 17.984375 15.746094 17.972656 15.882812 17.945312 16.035156 C 17.917969 16.1875 17.871094 16.351562 17.796875 16.515625 C 17.726562 16.683594 17.628906 16.855469 17.507812 17.023438 C 17.386719 17.191406 17.246094 17.359375 17.082031 17.527344 C 16.917969 17.695312 16.734375 17.863281 16.539062 18.03125 C 16.34375 18.203125 16.136719 18.375 15.921875 18.554688 C 15.707031 18.738281 15.488281 18.925781 15.265625 19.132812 C 15.046875 19.335938 14.828125 19.558594 14.617188 19.800781 C 14.410156 20.046875 14.210938 20.320312 14.042969 20.613281 C 13.871094 20.910156 13.730469 21.226562 13.636719 21.550781 C 13.632812 21.558594 13.632812 21.5625 13.628906 21.570312 Z M 16.882812 21.570312 "/>
</g>
</svg>
