<?xml version="1.0" encoding="UTF-8"?>
<svg xmlns="http://www.w3.org/2000/svg" xmlns:xlink="http://www.w3.org/1999/xlink" width="28px" height="28px" viewBox="0 0 28 28" version="1.1">
<g id="surface1">
<path style=" stroke:none;fill-rule:evenodd;fill:rgb(13.333333%,12.156863%,12.54902%);fill-opacity:1;" d="M 7.464844 9.996094 L 9.117188 9.996094 L 9.117188 14.363281 C 9.117188 15.054688 9.136719 15.503906 9.175781 15.710938 C 9.246094 16.042969 9.414062 16.304688 9.679688 16.507812 C 9.945312 16.707031 10.308594 16.804688 10.769531 16.804688 C 11.238281 16.804688 11.589844 16.710938 11.828125 16.523438 C 12.066406 16.332031 12.207031 16.101562 12.257812 15.828125 C 12.304688 15.550781 12.328125 15.09375 12.328125 14.457031 L 12.328125 9.996094 L 13.976562 9.996094 L 13.976562 14.230469 C 13.976562 15.199219 13.933594 15.882812 13.84375 16.285156 C 13.753906 16.683594 13.589844 17.019531 13.351562 17.296875 C 13.113281 17.570312 12.792969 17.789062 12.390625 17.953125 C 11.988281 18.117188 11.464844 18.199219 10.820312 18.199219 C 10.039062 18.199219 9.449219 18.109375 9.046875 17.929688 C 8.644531 17.753906 8.324219 17.523438 8.089844 17.238281 C 7.855469 16.953125 7.703125 16.65625 7.628906 16.34375 C 7.519531 15.882812 7.464844 15.199219 7.464844 14.296875 Z M 7.464844 9.996094 "/>
<path style=" stroke:none;fill-rule:evenodd;fill:rgb(13.333333%,12.156863%,12.54902%);fill-opacity:1;" d="M 17.304688 18.0625 L 14.386719 9.996094 L 16.171875 9.996094 L 18.238281 15.964844 L 20.238281 9.996094 L 21.988281 9.996094 L 19.0625 18.0625 Z M 17.304688 18.0625 "/>
</g>
</svg>
