<?xml version="1.0" encoding="UTF-8" standalone="no"?>
<svg width="14px" height="14px" viewBox="0 0 14 14" version="1.1" xmlns="http://www.w3.org/2000/svg" xmlns:xlink="http://www.w3.org/1999/xlink">
    <!-- Generator: Sketch 3.8.2 (29753) - http://www.bohemiancoding.com/sketch -->
    <title>close icon</title>
    <desc>Created with Sketch.</desc>
    <defs></defs>
    <g id="Layouts" stroke="none" stroke-width="1" fill="none" fill-rule="evenodd">
        <g id="varoitukset-tablet-aktiivinen-varoitussymboli-v1" transform="translate(-710.000000, -241.000000)">
            <g id="legenda" transform="translate(514.000000, 240.000000)">
                <g id="poista-valinnat-linkki" transform="translate(106.000000, 1.000000)">
                    <g id="close-icon" transform="translate(90.000000, 0.000000)">
                        <circle id="oval" fill="#56B8E5" cx="7" cy="7" r="7"></circle>
                        <g id="Group" transform="translate(7.156854, 7.156854) rotate(-315.000000) translate(-7.156854, -7.156854) translate(3.156854, 3.156854)" fill="#FFFFFF">
                            <path d="M4.5,4.5 L4.5,7 C4.5,7.27614237 4.27614237,7.5 4,7.5 C3.72385763,7.5 3.5,7.27614237 3.5,7 L3.5,4.5 L1,4.5 C0.723857625,4.5 0.5,4.27614237 0.5,4 C0.5,3.72385763 0.723857625,3.5 1,3.5 L3.5,3.5 L3.5,1 C3.5,0.723857625 3.72385763,0.5 4,0.5 C4.27614237,0.5 4.5,0.723857625 4.5,1 L4.5,3.5 L7,3.5 C7.27614237,3.5 7.5,3.72385763 7.5,4 C7.5,4.27614237 7.27614237,4.5 7,4.5 L4.5,4.5 L4.5,4.5 Z" id="x"></path>
                        </g>
                    </g>
                </g>
            </g>
        </g>
    </g>
</svg>