<?xml version="1.0"?>
<svg xmlns="http://www.w3.org/2000/svg" version="1.2" baseProfile="tiny" width="800" height="1217" viewBox="0 0 800 1217" stroke-linecap="round" stroke-linejoin="round">
<g id="out">
<path d="M 161.2447 1031.6004 221.6688 1038.5582 247.4024 1041.4395 232.4027 1195.7717 170.8723 1189.1175 14.765 1167.8542 1 1131.7303 10.7198 1122.7474 41.8836 1128.1032 70.8661 1117.0632 91.0289 1080.482 113.513 1053.8129 161.2447 1031.6004 Z" id="geometry_finland_selected_all.fid-3c92ea55_173c704bce9_64ce"/>
<path d="M 113.6861 799.3996 307.5781 823.3995 312.9578 819.0473 316.6935 832.3778 327.7913 871.1035 321.0688 887.2094 318.5361 910.3148 309.5414 921.5585 306.6792 943.9694 311.6268 969.4975 312.8639 975.7903 310.0374 978.2232 229.008 970.3383 128.2219 958.2416 123.7225 957.6187 109.3639 962.9815 102.1122 951.1777 84.3769 939.1152 84.8067 906.1908 96.3937 831.2121 113.6861 799.3996 Z" id="geometry_finland_selected_all.fid-3c92ea55_173c704bce9_64cf"/>
<path d="M 113.6861 799.3996 119.662 777.892 118.7548 744.0671 133.8757 726.8007 143.7544 677.2329 150.9042 662.0078 163.8726 676.9132 174.0512 688.1021 202.0569 664.7863 235.019 636.4722 246.0842 644.2655 249.4121 649.2859 246.7395 664.6556 310.7949 742.0008 317.1668 740.7571 322.7208 747.9469 322.0292 832.8816 316.6935 832.3778 312.9578 819.0473 307.5781 823.3995 113.6861 799.3996 Z" id="geometry_finland_selected_all.fid-3c92ea55_173c704bce9_64d0"/>
<path d="M 161.2447 1031.6004 160.6684 1022.3922 157.5826 1011.2786 150.0853 1013.9009 146.1506 1006.2378 135.7041 980.6976 129.6054 970.0223 128.2219 958.2416 229.008 970.3383 221.6688 1038.5582 161.2447 1031.6004 Z" id="geometry_finland_selected_all.fid-3c92ea55_173c704bce9_64d1"/>
<path d="M 209.316 996.6549 209.3243 997.4394 209.0295 999.9868 208.9833 1000.1291 208.4197 1002.0603 208.4197 1002.1157 201.8769 1003.7983 201.2153 997.1575 207.0152 988.4775 209.316 996.6549 Z M 225.1856 1011.6181 225.1985 1011.5682 222.6871 1009.4882 222.615 1009.4577 222.6021 1009.4522 222.1327 1014.9389 222.0745 1014.998 221.7354 1015.643 221.6716 1015.8841 221.2743 1016.1604 221.1893 1016.0495 221.1505 1015.7095 221.1606 1015.4536 221.0664 1015.2207 220.7356 1015.1708 220.6441 1014.9999 221.0775 1013.2683 220.8382 1009.3145 220.6321 1009.3312 220.4492 1010.4437 220.4575 1010.549 220.2902 1011.0387 220.3013 1011.1163 220.3919 1011.1339 220.439 1011.2115 220.244 1011.74 220.4501 1011.9091 220.561 1012.1133 220.5249 1012.2593 220.2681 1012.6483 220.0287 1012.6649 219.9881 1012.9449 220.0121 1013.065 220.0805 1013.1112 220.1868 1013.4337 219.7848 1013.7589 211.212 1006.5019 211.2119 1006.5015 211.1972 1006.4622 210.203 996.2853 214.4635 992.9441 216.6525 999.1681 216.6482 999.0749 216.6442 998.988 220.4224 991.0989 220.2745 987.378 220.2653 987.3484 216.6164 984.7973 217.2106 978.1953 223.0779 977.2233 225.4258 981.7435 225.3556 981.871 224.1636 983.8382 224.1627 983.8437 224.1498 983.9176 226.7878 982.8864 226.8266 982.8153 227.4577 983.2939 227.4807 983.3069 227.5085 983.3226 232.0259 983.475 237.6789 989.3313 236.1063 991.4251 235.7533 992.6928 235.5259 992.7277 235.5001 992.7316 236.0647 992.9487 236.1026 992.1319 236.7715 991.8778 239.2617 992.6133 240.2411 995.6671 238.8736 1000.5218 234.5983 1004.1106 229.6577 1002.9103 227.7321 997.1991 227.672 997.1825 227.0724 997.1548 226.9559 997.0162 225.2798 990.9455 225.2641 991.2588 225.2031 993.1123 225.1541 993.2278 226.6695 999.3243 225.7566 1000.2566 226.2482 1001.4504 225.7169 1002.5065 224.7393 1001.5622 224.8261 1001.6657 224.8307 1001.6713 225.6411 1003.5904 226.1733 1002.2839 227.8448 1002.331 225.4997 1011.5617 225.496 1011.6097 225.4914 1011.6698 229.3371 1010.6275 234.9198 1013.0401 234.9236 1012.9791 234.9245 1012.9652 235.7727 1009.7433 240.109 1009.3755 235.9519 1014.7356 235.9279 1014.7365 233.1264 1024.0569 229.2086 1021.612 223.9936 1013.9807 225.1856 1011.6181 Z" id="geometry_finland_selected_all.fid-3c92ea55_173c704bce9_64d2"/>
<path d="M 311.6268 969.4975 315.9723 966.2062 323.9425 960.0502 325.5494 969.5937 343.3973 973.0663 349.6592 985.4456 367.7834 984.9637 385.1196 992.5058 388.1699 998.6164 393.8616 1028.1576 389.9784 1041.4032 387.1702 1048.6145 376.7443 1051.5033 247.4024 1041.4395 221.6688 1038.5582 229.008 970.3383 310.0374 978.2232 312.8639 975.7903 311.6268 969.4975 Z" id="geometry_finland_selected_all.fid-3c92ea55_173c704bce9_64d3"/>
<path d="M 232.4027 1195.7717 247.4024 1041.4395 376.7443 1051.5033 371.4407 1139.6284 396.8039 1136.7718 402.4129 1133.5471 403.3228 1120.1579 420.5025 1174.9924 405.3041 1174.2692 403.7347 1180.5207 399.3428 1175.8627 397.859 1182.7205 389.0063 1183.1197 381.6511 1180.9804 374.1521 1185.3213 326.7926 1197.0155 325.1129 1216.106 313.3313 1207.8962 308.0678 1202.3119 232.4027 1195.7717 Z" id="geometry_finland_selected_all.fid-3c92ea55_173c704bce9_64d4"/>
<path d="M 372.6384 688.7229 373.7724 691.5105 370.1284 700.5673 364.6066 702.1619 351.3778 713.8094 345.7656 704.7092 337.0078 708.6595 338.591 718.7828 332.2159 726.2495 328.0179 729.2269 318.8307 740.4299 317.1668 740.7571 310.7949 742.0008 246.7395 664.6556 249.4121 649.2859 277.9241 624.3646 303.2121 608.1839 304.9075 607.0848 367.9446 677.1132 372.6384 688.7229 Z" id="geometry_finland_selected_all.fid-3c92ea55_173c704bce9_64d5"/>
<path d="M 306.0979 1017.8615 301.817 1013.7026 305.1268 1009.6952 311.7703 1011.1607 310.2328 1017.2655 306.0979 1017.8615 Z M 319.6511 1007.5229 324.1694 1011.8916 321.0297 1017.2692 313.1859 1016.5503 313.9112 1008.9791 319.6511 1007.5229 Z M 304.1815 972.6412 304.1631 973.4709 301.3569 978.5067 291.2133 962.4495 295.4969 959.8457 298.5507 966.4107 304.1815 972.6412 Z M 320.9243 982.5834 324.7182 981.2233 330.7556 995.1349 320.3773 993.395 318.7825 989.0772 320.9243 982.5834 Z M 347.7091 994.6064 352.3605 997.3118 348.9629 1006.6442 341.9138 1011.3889 334.0044 1006.6072 334.6466 997.8376 343.9521 999.1645 347.7091 994.6064 Z M 379.8271 1023.9257 373.7195 1019.3205 372.6237 1014.6386 372.5886 1014.6228 372.523 1014.5933 367.2543 1030.4509 360.3678 1033.8568 354.8719 1029.5907 345.8232 1031.459 345.412 1025.8356 349.9803 1018.1387 348.902 1013.7044 359.1675 1009.5307 372.5405 1008.4183 372.5544 1008.3905 372.5571 1008.385 375.9159 1002.1388 378.7867 1003.4102 375.3106 1007.8066 375.1803 1007.8544 375.0538 1007.9008 372.5756 1014.4242 372.5996 1014.4871 376.7881 1006.7735 381.3369 1002.2829 378.7405 1000.2132 373.5153 1002.3365 373.4552 1002.3466 373.422 1002.3522 368.8972 1007.1579 359.8448 1008.64 352.3632 1003.7881 360.3539 994.1111 360.39 994.0363 360.1691 993.4144 360.1469 993.4416 360.1405 993.4495 348.8484 993.6732 344.0279 990.0779 344.0621 989.8986 336.27 983.767 336.246 983.6515 334.9321 984.873 334.9155 984.9118 334.9949 984.9488 335.0651 985.0301 335.1464 985.1696 331.3165 987.6635 330.946 980.4194 330.8671 980.4107 330.7686 980.4 323.9772 977.324 323.9712 977.4007 323.968 977.4423 320.1463 977.6141 320.1429 977.5707 320.126 977.3573 321.9962 969.8221 322.1532 969.5652 322.1274 969.4793 320.2378 966.9605 320.108 966.9146 320.0992 966.9115 316.37 967.2802 316.3191 967.2802 316.2692 967.2802 313.026 976.2365 303.2345 968.2227 302.0952 964.1053 302.0397 963.9723 302.741 963.9917 302.7558 963.9963 302.8002 964.0102 303.203 963.8254 303.4544 963.7662 298.1765 957.6558 302.7586 951.4873 299.6115 941.12 300.2268 936.8992 296.0347 932.5537 299.8582 929.5304 303.5717 933.316 303.6253 933.487 303.629 933.4989 303.8831 933.1312 303.8776 932.951 299.7612 916.8948 305.6341 920.8559 308.4282 926.0377 317.403 927.1123 326.3981 926.4775 333.2754 937.0425 339.7258 938.4063 341.1395 941.8241 346.6797 936.5426 359.7672 934.9884 362.9393 936.4502 362.9707 931.1511 369.0423 931.8977 375.4428 929.5664 376.34 923.8986 382.6592 926.946 384.9571 929.2282 391.5692 928.7089 393.8127 931.9707 398.4687 937.0231 396.6928 943.6555 391.1322 943.0225 390.3801 955.1916 399.0296 961.4719 402.9492 959.4392 407.6856 959.2405 409.3099 963.4364 416.3914 965.9894 419.375 969.0866 427.2401 969.9477 428.0328 974.491 425.1491 984.5413 418.1997 985.9393 420.3739 990.1989 416.786 1004.6955 412.3591 1007.0803 410.7135 1016.129 402.9094 1017.9243 395.0472 1017.6397 386.0244 1024.3969 379.8271 1023.9257 Z" id="geometry_finland_selected_all.fid-3c92ea55_173c704bce9_64d6"/>
<path d="M 303.2121 608.1839 299.456 603.6379 332.2873 573.3506 334.1685 566.1406 469.98 574.9243 471.7524 568.404 474.7252 568.5211 460.9973 587.2598 442.0059 614.2671 432.1582 632.0047 420.6059 644.2541 405.7661 654.1179 396.7431 668.5871 383.3906 667.7044 375.4599 691.8644 372.6384 688.7229 367.9446 677.1132 304.9075 607.0848 303.2121 608.1839 Z" id="geometry_finland_selected_all.fid-3c92ea55_173c704bce9_64d7"/>
<path d="M 363.1518 687.6434 363.393 692.1636 358.6224 697.0386 350.7934 693.167 352.3263 688.9268 362.2195 690.7295 363.1518 687.6434 Z M 325.8963 691.3579 326.0128 699.5167 319.7869 703.4493 312.759 700.3372 310.1653 688.269 315.6576 684.5757 319.336 693.374 325.8963 691.3579 Z M 309.6941 827.2996 308.9013 818.9606 310.3446 808.2385 314.7169 802.1503 311.3591 797.6172 312.3543 791.0763 312.325 791.088 312.3127 791.0929 312.2757 791.1299 312.0207 791.3738 314.4139 785.2449 305.8161 777.9694 303.9385 765.052 310.0046 760.104 302.7032 758.4408 305.0695 751.679 305.0621 751.6273 308.637 747.7779 307.154 742.707 316.8782 731.5147 316.8883 731.513 317.0075 731.4934 321.281 730.7228 326.3057 720.1468 326.2816 720.0969 326.0719 719.9925 325.3974 719.5868 325.0001 719.3937 324.807 719.2385 325.4621 714.9779 330.1513 712.6855 333.2153 715.4168 333.2319 715.4566 333.9785 715.1415 334.034 715.0694 328.6905 703.5731 328.6767 703.5149 328.6498 703.4021 331.3156 693.2798 336.5629 699.6461 348.2709 693.6697 350.3258 696.6995 350.3813 696.7715 350.2935 697.0931 350.458 697.0709 351.5095 700.9961 351.1149 700.9877 350.5938 700.9323 350.4192 700.912 350.4358 700.7614 350.3961 700.656 350.4192 700.2689 350.2704 700.2569 349.9442 701.0792 351.6398 701.4165 353.2688 702.3035 353.2872 702.2972 353.339 702.2795 358.0098 698.1816 367.9362 693.9035 370.4338 688.5766 370.4341 688.5758 370.444 688.548 363.0936 676.9075 367.8586 673.5996 369.4784 666.5274 374.7147 673.2356 376.5442 668.7468 374.9706 663.4449 378.6952 660.4586 378.7109 660.4503 378.7636 660.4225 382.6472 655.8441 383.6839 650.5737 383.7929 650.4295 383.9149 650.3593 384.2808 650.6032 384.3307 650.7308 384.3602 650.8121 384.5312 651.0329 387.2496 650.9617 387.6718 651.0449 389.226 652.6074 389.651 652.7358 389.8636 653.1341 389.9597 653.5101 390.4494 653.6164 391.8123 655.0098 392.034 655.1761 392.1625 655.7323 392.5505 655.9504 392.7159 656.3024 392.7834 656.672 392.776 657.8871 392.8314 658.0192 396.5791 654.266 396.6217 654.253 396.7492 646.9793 396.86 646.8962 397.0264 646.8389 398.0511 646.1265 398.0095 645.5887 398.1518 645.9657 401.2546 645.0851 402.0751 644.6259 412.1706 652.9659 414.8345 649.3133 423.4581 647.0911 435.0108 658.3934 425.5676 662.2132 426.815 670.5569 430.0712 677.9941 431.2982 688.6413 428.0855 686.3073 424.7739 679.3977 417.9789 675.7987 411.8851 678.3859 408.8138 685.4637 404.3721 690.3452 397.7896 687.6 382.3912 692.2874 380.7982 695.7672 378.6694 702.7627 381.5615 711.4631 380.2651 714.3136 380.0036 716.1459 375.3273 717.8959 369.1559 729.0069 368.0517 738.0048 362.5872 744.7463 361.1569 745.1011 357.4434 748.8895 348.7486 745.7165 341.1081 740.8008 338.1901 735.7586 335.371 745.4383 337.6699 753.2895 331.2315 758.3318 327.5337 761.587 328.4475 766.5248 324.1602 780.0687 323.7203 787.1382 329.9323 787.7434 328.393 797.3631 332.9113 801.7373 327.5106 804.8928 324.7755 813.679 325.2006 821.9589 314.4545 822.0439 309.6941 827.2996 Z M 396.3204 642.887 390.4494 651.5134 383.5804 642.3289 389.4893 638.1589 396.0673 639.361 396.3204 642.887 Z" id="geometry_finland_selected_all.fid-3c92ea55_173c704bce9_64d8"/>
<path d="M 334.1685 566.1406 326.8438 565.1304 303.1706 537.4904 324.4296 517.5469 338.3273 498.1535 333.0357 491.6682 334.3804 471.1154 358.1993 458.5568 358.8628 431.2876 392.0481 417.9264 421.6608 421.2521 462.2561 428.0931 488.6199 441.7953 516.0573 466.5369 522.9483 527.7692 511.635 552.057 494.5797 544.2596 484.8039 548.5765 474.1697 559.4682 471.7524 568.404 469.98 574.9243 334.1685 566.1406 Z" id="geometry_finland_selected_all.fid-3c92ea55_173c704bce9_64d9"/>
<path d="M 305.6341 920.8559 305.4955 916.8301 311.5587 904.8366 311.5855 904.8024 308.2665 900.1991 315.3998 890.7383 314.0572 881.8116 314.2337 882.002 314.5026 882.2477 314.7373 882.3374 314.7465 882.3568 315.1604 882.3836 315.1789 882.3854 315.1956 882.3281 319.396 873.4827 320.053 862.0954 316.7867 853.4533 318.3205 849.4348 318.3085 849.3489 314.2161 830.8681 309.6941 827.2996 314.4545 822.0439 325.2006 821.9589 330.094 822.7767 340.6442 827.3163 347.4753 822.5364 352.415 815.4032 358.2361 815.8763 361.1255 812.05 365.2456 806.5439 369.434 804.4742 374.7331 796.6775 384.0036 800.3587 384.8176 810.5984 380.2087 812.3864 380.1191 821.7797 371.3818 823.6757 367.7348 827.6276 372.9443 832.5378 377.0829 837.1115 380.8167 847.1507 378.3718 853.1946 373.738 854.7293 373.3915 858.2784 371.2072 858.7838 374.6158 864.3999 369.9663 872.6825 359.2553 879.4425 364.7632 889.5334 366.2703 898.8528 368.2938 905.1332 375.5167 906.036 382.0281 910.2466 381.1318 916.7081 384.5275 924.2534 382.6592 926.946 376.34 923.8986 375.4428 929.5664 369.0423 931.8977 362.9707 931.1511 362.9393 936.4502 359.7672 934.9884 346.6797 936.5426 341.1395 941.8241 339.7258 938.4063 333.2754 937.0425 326.3981 926.4775 317.403 927.1123 308.4282 926.0377 305.6341 920.8559 Z" id="geometry_finland_selected_all.fid-3c92ea55_173c704bce9_64da"/>
<path d="M 325.2006 821.9589 324.7755 813.679 327.5106 804.8928 332.9113 801.7373 328.393 797.3631 329.9323 787.7434 323.7203 787.1382 324.1602 780.0687 328.4475 766.5248 327.5337 761.587 331.2315 758.3318 337.6699 753.2895 335.371 745.4383 338.1901 735.7586 341.1081 740.8008 348.7486 745.7165 357.4434 748.8895 361.1569 745.1011 362.5872 744.7463 368.0517 738.0048 369.1559 729.0069 375.3273 717.8959 380.0036 716.1459 380.2651 714.3136 381.5615 711.4631 378.6694 702.7627 380.7982 695.7672 382.3912 692.2874 397.7896 687.6 404.3721 690.3452 408.8138 685.4637 411.8851 678.3859 417.9789 675.7987 424.7739 679.3977 428.0855 686.3073 431.2982 688.6413 432.2389 691.1269 438.4121 699.5907 447.1106 702.0023 455.2084 711.3901 451.8562 713.7121 460.7561 717.2085 456.6157 725.5586 457.4879 730.2931 459.6039 732.9062 463.3525 738.8198 461.3539 747.0941 465.8815 759.2567 466.5006 761.8032 469.3714 764.1003 466.4165 778.0526 465.4223 781.038 450.5608 782.1145 441.0418 793.9832 436.9365 790.9488 436.1871 781.2939 433.1878 780.1205 424.6427 788.515 416.9772 787.5244 413.9752 791.3775 409.1067 786.0082 406.0519 787.5632 402.8392 794.9857 399.2643 796.3005 391.8926 798.9977 384.0036 800.3587 374.7331 796.6775 369.434 804.4742 365.2456 806.5439 361.1255 812.05 358.2361 815.8763 352.415 815.4032 347.4753 822.5364 340.6442 827.3163 330.094 822.7767 325.2006 821.9589 Z" id="geometry_finland_selected_all.fid-3c92ea55_173c704bce9_64db"/>
<path d="M 454.4184 402.3472 447.676 399.1012 444.9133 388.0678 446.9378 380.5039 446.1459 371.811 452.309 365.781 455.0015 362.1904 455.7656 352.4376 457.8668 345.4254 457.0361 340.8627 461.9277 335.2162 457.2218 321.3637 454.2567 316.7622 454.2105 316.7326 450.2337 309.6021 445.9195 298.3664 447.6289 288.3115 453.4371 287.2387 455.7952 281.8047 453.7864 276.7116 455.7952 272.112 447.2538 268.4853 442.1081 264.0973 448.0401 255.9255 446.4296 247.4783 446.5977 231.6004 448.285 225.4632 453.6062 222.0851 454.3048 217.3348 445.0334 208.2557 441.4853 196.7843 441.4341 196.668 441.4243 196.6457 435.8147 196.1633 436.7627 188.0978 434.036 181.0449 428.5124 177.3102 424.506 170.8533 412.2104 164.9813 408.02 160.5045 396.386 159.7201 391.4658 148.5314 384.606 146.6733 382.3182 139.7489 375.0538 135.4246 375.2266 130.2548 361.4766 113.889 357.8361 112.8172 358.8682 106.9193 354.4903 98.6856 346.6215 95.1014 353.2771 89.636 364.8972 99.4405 367.4299 92.6917 363.8919 83.1921 368.4638 76.6095 375.6692 71.9517 387.9638 76.701 390.9326 83.4665 405.3552 111.2769 405.6472 115.1826 410.4206 125.0148 410.8382 136.4751 417.0512 134.0746 426.5489 140.6193 435.7223 141.0369 439.896 147.5825 450.5413 141.6541 459.3101 140.7653 463.7591 129.3013 471.5133 128.8457 474.7121 133.8843 482.8257 140.6969 494.1899 144.8234 500.571 149.7899 504.7955 158.3443 505.4848 153.1385 513.2131 149.4933 515.1073 133.4149 521.1133 127.0227 527.3521 122.9183 533.82 122.9811 537.5465 109.1813 537.5225 98.1127 537.5197 98.0767 536.0478 92.202 538.0113 80.4506 541.8708 72.3555 540.6299 68.5311 543.2975 58.9178 547.0627 50.5289 544.239 44.5857 548.3 39.0889 552.9624 37.4738 556.8506 29.6392 562.0601 25.4803 564.8931 16.9084 572.6112 14.4931 585.0472 20.0223 594.6254 15.0549 599.0069 8.6895 602.3721 8.3199 605.4694 2.9275 617.497 1 618.5208 9.0397 624.9222 18.5356 631.5343 22.5291 631.0714 25.7834 633.7722 28.8991 660.1273 40.8075 668.2677 62.8984 664.3093 71.3659 650.8144 89.6776 650.1861 101.3366 654.9474 107.3277 639.2765 120.3182 638.3571 124.9465 650.7636 126.2807 647.6479 140.4964 637.921 160.5896 639.8068 168.1349 639.8112 168.1525 640.1515 169.5153 646.8708 195.754 647.0094 195.8159 673.4024 207.4499 687.4018 234.8907 687.4321 234.917 687.7141 235.1624 701.9713 247.5689 699.3158 263.2361 696.6122 266.7787 688.846 282.7638 683.861 289.2031 667.3585 318.8329 665.9734 326.1629 669.8339 338.8632 680.13 355.1255 689.8227 376.0614 676.8091 376.552 676.9329 379.0736 653.5309 371.7907 652.5201 379.3397 647.792 382.6633 649.664 393.8658 656.3685 395.5309 657.4801 402.7149 651.8594 414.5652 656.8314 416.537 657.0985 421.6004 646.0207 421.703 644.0609 427.6415 647.6497 437.8858 635.5833 442.7978 632.2181 441.4469 615.9548 440.4388 611.3404 426.7295 606.0034 430.6574 601.219 429.4932 588.5113 448.4591 576.3718 453.6122 548.1494 450.8449 548.372 440.9018 539.0536 445.6973 532.58 449.0431 517.0994 448.5109 508.5867 455.9758 502.2176 463.9924 494.1003 455.9241 485.1736 456.205 485.1329 456.0183 482.2066 450.5898 476.2321 445.2039 480.1397 442.2249 480.1335 442.2001 480.1313 442.1917 475.6324 443.9759 476.124 442.7987 476.1434 442.2499 476.1062 442.2473 476.1037 442.2471 466.8794 441.2085 460.1296 424.9185 459.9966 419.8005 455.883 411.8486 454.4184 402.3472 Z" id="geometry_finland_selected_all.fid-3c92ea55_173c704bce9_64dc"/>
<path d="M 441.4335 196.6688 441.4243 196.6457 435.8147 196.1633 436.7627 188.0978 434.036 181.0449 428.5124 177.3102 424.506 170.8533 412.2104 164.9813 408.02 160.5045 396.386 159.7201 391.4658 148.5314 384.606 146.6733 382.3182 139.7489 375.0538 135.4246 375.2266 130.2548 361.4766 113.889 357.8361 112.8172 358.8682 106.9193 354.4903 98.6856 346.6215 95.1014 353.2771 89.636 364.8972 99.4405 367.4299 92.6917 363.8919 83.1921 368.4638 76.6095 375.6692 71.9517 387.9638 76.701 390.9326 83.4665 405.3552 111.2769 405.6472 115.1826 410.4206 125.0148 410.8382 136.4751 417.0512 134.0746 426.5489 140.6193 435.7223 141.0369 439.896 147.5825 450.5413 141.6541 459.3101 140.7653 463.7591 129.3013 471.5133 128.8457 474.7121 133.8843 482.8257 140.6969 494.1899 144.8234 500.571 149.7899 504.7955 158.3443 508.9443 174.8967 496.4084 175.8401 486.5781 181.7832 474.7232 199.1571 472.7764 199.8917 460.6508 197.4135 458.9118 194.2534 442.9627 194.6434 441.4341 196.668 441.4335 196.6688 Z" id="geometry_finland_selected_all.fid-3c92ea55_173c704bce9_64dd"/>
<path d="M 393.8127 931.9707 391.5692 928.7089 384.9571 929.2282 382.6592 926.946 384.5275 924.2534 381.1318 916.7081 382.0281 910.2466 375.5167 906.036 368.2938 905.1332 366.2703 898.8528 364.7632 889.5334 359.2553 879.4425 369.9663 872.6825 374.6158 864.3999 371.2072 858.7838 373.3915 858.2784 373.738 854.7293 378.3718 853.1946 380.8167 847.1507 377.0829 837.1115 372.9443 832.5378 367.7348 827.6276 371.3818 823.6757 380.1191 821.7797 380.2087 812.3864 384.8176 810.5984 384.0036 800.3587 391.8926 798.9977 399.2643 796.3005 402.8392 794.9857 406.0519 787.5632 409.1067 786.0082 413.9752 791.3775 416.9772 787.5244 424.6427 788.515 433.1878 780.1205 436.1871 781.2939 436.9365 790.9488 441.0418 793.9832 441.5666 800.3523 446.8481 805.6735 450.0248 805.802 456.8836 815.1704 463.5521 812.0436 471.6944 820.7374 471.0836 827.2488 474.1171 830.3488 468.6886 833.3195 463.6963 841.7047 470.3767 846.734 473.3428 851.961 472.7412 857.0328 476.8013 867.8556 475.2564 871.7003 477.5562 878.6442 482.871 880.53 483.8514 889.6609 478.0357 886.6663 480.8761 893.1647 480.6432 902.5654 479.431 906.364 473.3853 908.1953 464.2756 905.245 449.9823 910.765 449.0454 910.0526 449.6469 915.0292 446.3473 919.1013 432.0097 923.7517 422.0786 927.6473 427.9164 931.7018 426.6173 936.6156 425.6268 939.9955 420.7351 933.2273 412.3859 933.0434 407.4693 936.6525 402.2109 931.0892 397.0753 930.0783 393.8127 931.9707 Z" id="geometry_finland_selected_all.fid-3c92ea55_173c704bce9_64de"/>
<path d="M 556.3988 991.0305 548.8756 1001.771 533.7406 999.1968 538.0732 1004.5014 533.1289 1009.43 529.6103 1002.6553 529.4838 1002.6358 529.4606 1002.6322 526.2377 1006.6876 526.0797 1012.1955 519.6358 1014.2043 516.0064 1011.448 513.3924 1005.4365 510.1695 1004.8406 507.7671 1011.6365 507.6941 1011.5598 507.622 1011.5857 506.9466 1013.8837 498.8506 1012.5929 494.6455 1013.6194 493.2687 1012.6307 493.2641 1012.64 493.2502 1012.6677 488.6506 1018.6894 481.8694 1022.1156 473.547 1017.8781 473.4961 1017.6212 473.5128 1017.5889 473.4814 1017.5758 473.4573 1017.5658 471.0245 1022.3244 463.9189 1024.5993 459.2214 1020.3729 459.1687 1020.3432 459.1557 1020.3359 462.7039 1028.5983 452.965 1039.3887 447.2907 1035.094 447.4977 1028.5798 447.2288 1028.2407 447.2307 1028.2333 447.2214 1028.2259 447.1928 1028.2028 443.8766 1031.702 443.8727 1031.7025 443.8073 1031.7112 432.0356 1034.7419 420.579 1038.3889 420.5854 1038.4545 420.5919 1038.5211 411.8445 1042.7918 405.2739 1042.2605 391.657 1044.8902 391.3161 1044.9262 388.4286 1051.5115 372.462 1052.1047 385.1974 1046.4083 388.9349 1042.12 388.9317 1042.0676 388.922 1041.9103 387.8446 1042.7086 387.6617 1042.8491 382.9271 1034.0683 374.516 1043.9671 370.3017 1037.1619 375.2016 1034.9341 379.8271 1023.9257 386.0244 1024.3969 395.0472 1017.6397 402.9094 1017.9243 410.7135 1016.129 412.3591 1007.0803 416.786 1004.6955 420.3739 990.1989 418.1997 985.9393 425.1491 984.5413 428.0328 974.491 427.2401 969.9477 430.7716 971.3208 434.6459 971.0695 441.0408 972.8168 446.3215 979.4935 449.6756 974.7969 453.2819 981.1188 461.1932 977.9828 463.4385 969.6474 467.1917 971.6571 474.5329 970.1529 484.5961 968.6052 488.5055 971.0806 490.3452 965.4655 487.7229 960.6182 488.913 954.895 492.5073 955.0428 499.2211 961.1365 505.0469 957.7233 508.9415 962.6038 509.1623 967.2441 513.579 970.6361 520.6254 967.064 529.1631 964.3262 530.0289 967.4197 534.8106 966.3821 538.8965 969.5717 544.2094 966.5659 543.9618 962.2767 548.5762 963.2571 550.853 972.3058 556.4856 974.6638 560.4875 979.1849 563.7815 974.1538 567.7537 973.6576 571.3462 981.2565 571.1134 981.3415 563.2668 977.8119 556.9744 987.4695 556.3988 991.0305 Z" id="geometry_finland_selected_all.fid-3c92ea55_173c704bce9_64df"/>
<path d="M 376.7443 1051.5033 387.1702 1048.6145 389.9784 1041.4032 393.8616 1028.1576 395.3495 1023.0599 402.8536 1027.4208 405.4124 1023.8653 407.7225 1025.3247 407.1431 1029.1191 406.5839 1035.8039 506.6308 1002.7471 517.724 994.7598 526.2937 996.362 527.9668 999.2963 528.757 999.6445 533.0207 1001.5186 531.7689 1084.5903 526.8825 1086.2918 500.7696 1095.2402 473.0811 1099.6653 444.1249 1105.9891 432.6507 1115.4755 403.3228 1120.1579 402.4129 1133.5471 396.8039 1136.7718 371.4407 1139.6284 376.7443 1051.5033 Z" id="geometry_finland_selected_all.fid-3c92ea55_173c704bce9_64e0"/>
<path d="M 393.8127 931.9707 397.0753 930.0783 402.2109 931.0892 407.4693 936.6525 412.3859 933.0434 420.7351 933.2273 425.6268 939.9955 426.6173 936.6156 427.9164 931.7018 422.0786 927.6473 432.0097 923.7517 446.3473 919.1013 449.6469 915.0292 449.0454 910.0526 449.9823 910.765 464.2756 905.245 473.3853 908.1953 479.431 906.364 480.6432 902.5654 481.059 906.9175 486.0939 910.7872 494.6769 911.5827 497.398 917.3789 496.1562 924.6545 493.982 928.5454 486.8968 930.9977 486.8211 937.7022 484.0361 943.4984 488.3272 944.5379 488.8973 950.1429 487.6998 951.0604 488.913 954.895 487.7229 960.6182 490.3452 965.4655 488.5055 971.0806 484.5961 968.6052 474.5329 970.1529 467.1917 971.6571 463.4385 969.6474 461.1932 977.9828 453.2819 981.1188 449.6756 974.7969 446.3215 979.4935 441.0408 972.8168 434.6459 971.0695 430.7716 971.3208 427.2401 969.9477 419.375 969.0866 416.3914 965.9894 409.3099 963.4364 407.6856 959.2405 402.9492 959.4392 399.0296 961.4719 390.3801 955.1916 391.1322 943.0225 396.6928 943.6555 398.4687 937.0231 393.8127 931.9707 Z" id="geometry_finland_selected_all.fid-3c92ea55_173c704bce9_64e1"/>
<path d="M 398.0095 645.5887 396.3204 642.887 396.0673 639.361 394.891 636.0753 399.7207 634.0628 401.2546 645.0851 398.1518 645.9657 398.0095 645.5887 Z M 402.0751 644.6259 402.6997 638.5229 409.8708 632.3932 419.3251 631.3842 420.919 617.4771 431.2641 619.6938 436.6824 627.7131 442.8981 624.0633 444.7996 618.5489 452.5575 618.4344 453.9278 627.6346 457.791 632.9503 458.8832 638.7604 466.8351 642.8897 472.4908 658.7621 474.6936 662.3685 475.1501 663.0439 483.892 669.6514 493.3713 683.1934 487.1047 685.7566 480.9038 693.022 482.0486 701.5625 478.2002 714.7414 480.0759 716.1837 468.9085 713.3258 460.7561 717.2085 451.8562 713.7121 455.2084 711.3901 447.1106 702.0023 438.4121 699.5907 432.2389 691.1269 431.2982 688.6413 430.0712 677.9941 426.815 670.5569 425.5676 662.2132 435.0108 658.3934 423.4581 647.0911 414.8345 649.3133 412.1706 652.9659 402.0751 644.6259 Z" id="geometry_finland_selected_all.fid-3c92ea55_173c704bce9_64e2"/>
<path d="M 485.7141 530.8231 481.6328 528.1342 477.8158 520.1777 481.4573 515.543 489.7113 514.0812 491.2914 527.4154 485.7141 530.8231 Z M 598.1744 516.4466 595.2426 522.958 600.6701 529.9924 601.4592 540.6793 599.3876 545.1422 590.3334 542.7851 595.7665 563.0594 601.4315 569.8517 591.8552 583.3401 594.9062 587.6672 592.2276 596.8462 585.6922 599.5008 580.5862 596.6854 575.4987 597.2352 573.4215 601.4578 573.5444 606.549 573.9233 622.8945 577.9888 624.991 563.9044 632.4264 549.4328 644.9216 551.3695 670.8369 546.9232 672.8955 545.4023 681.9941 544.1198 684.3715 537.4892 687.1823 532.7972 686.0172 529.0328 680.3004 523.9777 677.5959 514.0503 676.0491 508.0609 670.8683 503.4234 667.7923 498.5013 671.3811 495.5085 682.3304 493.3713 683.1934 483.892 669.6514 475.1501 663.0439 474.6936 662.3685 472.4908 658.7621 466.8351 642.8897 458.8832 638.7604 457.791 632.9503 453.9278 627.6346 452.5575 618.4344 444.7996 618.5489 442.8981 624.0633 436.6824 627.7131 431.2641 619.6938 432.2056 612.8525 437.8891 602.3125 441.003 600.7741 449.5878 587.0731 449.6077 587.0739 449.6109 587.074 451.6557 582.9927 459.0754 577.7223 461.9083 571.0196 463.3322 571.6627 464.3634 572.1071 464.3656 572.0611 464.3671 572.0304 467.0485 567.9492 468.7135 559.0188 475.9216 552.3706 477.412 546.6779 477.4491 546.5994 477.5248 546.4395 476.027 542.7426 488.4066 535.5502 492.9878 536.4964 496.5341 533.3465 496.5433 533.3479 496.7152 533.3742 502.1566 533.4047 509.1605 541.0249 509.2538 541.1422 512.4129 537.535 512.4333 537.4703 505.6992 529.1959 510.9041 525.8566 515.5444 530.4877 515.5961 530.4952 515.6654 530.5052 515.9426 530.3971 516.0655 530.3435 513.5781 514.7058 507.2386 511.5023 512.0877 498.3299 512.0983 498.2754 512.1173 498.1774 508.5516 491.751 508.8509 484.6196 513.7814 480.8322 507.3476 466.7902 502.2176 463.9924 508.5867 455.9758 517.0994 448.5109 532.58 449.0431 539.0536 445.6973 548.372 440.9018 548.1494 450.8449 547.7751 468.4017 547.5183 482.4058 558.1202 487.1652 557.0123 493.0123 550.7809 497.3772 554.2801 504.9059 567.6133 515.7435 579.3739 516.3163 584.0262 514.8278 598.1744 516.4466 Z" id="geometry_finland_selected_all.fid-3c92ea55_173c704bce9_64e3"/>
<path d="M 485.7141 530.8231 481.6328 528.1342 477.8158 520.1777 481.4573 515.543 489.7113 514.0812 491.2914 527.4154 485.7141 530.8231 Z M 701.5916 472.0274 692.7813 471.5183 690.9111 473.3635 682.9343 470.3569 678.3596 470.7764 674.4317 478.2265 667.6449 478.439 654.5131 484.7666 653.0966 495.52 634.0374 499.5625 626.8303 502.6856 624.8076 504.3201 622.6196 516.1158 612.7634 513.1905 608.6128 516.0142 598.1744 516.4466 595.2426 522.958 600.6701 529.9924 601.4592 540.6793 599.3876 545.1422 590.3334 542.7851 595.7665 563.0594 601.4315 569.8517 591.8552 583.3401 594.9062 587.6672 592.2276 596.8462 585.6922 599.5008 580.5862 596.6854 575.4987 597.2352 573.4215 601.4578 573.5444 606.549 573.9233 622.8945 577.9888 624.991 563.9044 632.4264 549.4328 644.9216 551.3695 670.8369 546.9232 672.8955 545.4023 681.9941 544.1198 684.3715 537.4892 687.1823 532.7972 686.0172 529.0328 680.3004 523.9777 677.5959 514.0503 676.0491 508.0609 670.8683 503.4234 667.7923 498.5013 671.3811 495.5085 682.3304 493.3713 683.1934 483.892 669.6514 475.1501 663.0439 474.6936 662.3685 472.4908 658.7621 466.8351 642.8897 458.8832 638.7604 457.791 632.9503 453.9278 627.6346 452.5575 618.4344 444.7996 618.5489 442.8981 624.0633 436.6824 627.7131 431.2641 619.6938 432.2056 612.8525 437.8891 602.3125 441.003 600.7741 449.5878 587.0731 449.6077 587.0739 449.6109 587.074 451.6557 582.9927 459.0754 577.7223 461.9083 571.0196 463.3322 571.6627 464.3634 572.1071 464.3656 572.0611 464.3671 572.0304 467.0485 567.9492 468.7135 559.0188 475.9216 552.3706 477.412 546.6779 477.4491 546.5994 477.5248 546.4395 476.027 542.7426 488.4066 535.5502 492.9878 536.4964 496.5341 533.3465 496.5433 533.3479 496.7152 533.3742 502.1566 533.4047 509.1605 541.0249 509.2538 541.1422 512.4129 537.535 512.4333 537.4703 505.6992 529.1959 510.9041 525.8566 515.5444 530.4877 515.5961 530.4952 515.6654 530.5052 515.9426 530.3971 516.0655 530.3435 513.5781 514.7058 507.2386 511.5023 512.0877 498.3299 512.0983 498.2754 512.1173 498.1774 508.5516 491.751 508.8509 484.6196 513.7814 480.8322 507.3476 466.7902 502.2176 463.9924 508.5867 455.9758 517.0994 448.5109 532.58 449.0431 539.0536 445.6973 548.372 440.9018 548.1494 450.8449 576.3718 453.6122 588.5113 448.4591 601.219 429.4932 606.0034 430.6574 611.3404 426.7295 615.9548 440.4388 632.2181 441.4469 635.5833 442.7978 647.6497 437.8858 644.0609 427.6415 646.0207 421.703 657.0985 421.6004 656.8314 416.537 651.8594 414.5652 657.4801 402.7149 656.3685 395.5309 649.664 393.8658 647.792 382.6633 652.5201 379.3397 653.5309 371.7907 676.9329 379.0736 676.8091 376.552 689.8227 376.0614 696.2296 392.7811 705.7773 406.8868 709.5851 422.0015 712.9992 430.4856 717.1054 453.6215 711.8202 451.014 699.5616 457.7009 705.963 465.3155 701.5916 472.0274 Z" id="geometry_finland_selected_all.fid-3c92ea55_173c704bce9_64e4"/>
<path d="M 483.8514 889.6609 482.871 880.53 477.5562 878.6442 475.2564 871.7003 476.8013 867.8556 472.7412 857.0328 473.3428 851.961 470.3767 846.734 463.6963 841.7047 468.6886 833.3195 474.1171 830.3488 471.0836 827.2488 471.6944 820.7374 463.5521 812.0436 456.8836 815.1704 450.0248 805.802 446.8481 805.6735 441.5666 800.3523 441.0418 793.9832 450.5608 782.1145 465.4223 781.038 466.4165 778.0526 469.3714 764.1003 466.5006 761.8032 465.8815 759.2567 461.3539 747.0941 463.3525 738.8198 459.6039 732.9062 457.4879 730.2931 456.6157 725.5586 460.7561 717.2085 468.9085 713.3258 480.0759 716.1837 478.2002 714.7414 482.0486 701.5625 480.9038 693.022 487.1047 685.7566 493.3713 683.1934 495.5085 682.3304 498.5013 671.3811 503.4234 667.7923 508.0609 670.8683 514.0503 676.0491 523.9777 677.5959 529.0328 680.3004 532.7972 686.0172 537.4892 687.1823 544.1198 684.3715 545.8717 686.3008 540.8692 694.9226 544.0209 703.209 544.9302 716.4258 548.8137 724.6854 552.7296 727.9434 547.4961 728.836 551.7077 735.8085 538.805 738.0002 540.0515 742.8604 543.8971 747.2715 553.4244 757.6277 557.6526 753.3551 564.4883 768.5631 562.7531 776.7775 559.2853 779.7352 566.2994 788.2073 569.9371 788.0132 568.4236 793.0555 573.1388 798.179 568.6565 802.9662 562.2162 807.8292 550.9306 813.9128 546.2376 822.2306 551.5219 830.7184 555.4831 837.3564 551.5644 839.5971 551.4665 846.1898 554.1331 849.5938 560.8774 865.468 560.1021 873.0143 553.2036 869.6953 550.2311 874.7939 550.221 871.5987 538.331 868.0422 537.2564 862.3828 527.536 854.5621 523.7661 866.5269 518.3995 863.4454 515.8114 866.817 510.5382 867.1062 510.7045 871.5617 506.9429 886.5831 494.432 887.1468 483.8514 889.6609 Z" id="geometry_finland_selected_all.fid-3c92ea55_173c704bce9_64e5"/>
<path d="M 441.4853 196.7843 441.4335 196.6688 441.4341 196.668 442.9627 194.6434 458.9118 194.2534 460.6508 197.4135 472.7764 199.8917 476.4742 211.4952 473.1395 222.3179 476.8022 252.8874 468.744 251.6317 447.2538 268.4853 442.1081 264.0973 448.0401 255.9255 446.4296 247.4783 446.5977 231.6004 448.285 225.4632 453.6062 222.0851 454.3048 217.3348 445.0334 208.2557 441.4853 196.7843 Z" id="geometry_finland_selected_all.fid-3c92ea55_173c704bce9_64e6"/>
<path d="M 452.309 365.781 458.0932 371.8045 473.1265 363.2354 482.5079 354.4214 489.7658 345.3912 496.1312 342.5342 501.9709 343.814 503.5814 372.6029 492.8751 386.4582 492.4648 386.9654 454.3242 399.1003 454.4184 402.3472 447.676 399.1012 444.9133 388.0678 446.9378 380.5039 446.1459 371.811 452.309 365.781 Z" id="geometry_finland_selected_all.fid-3c92ea55_173c704bce9_64e7"/>
<path d="M 454.2115 316.7326 454.2105 316.7326 450.2337 309.6021 445.9195 298.3664 447.6289 288.3115 453.4371 287.2387 455.7952 281.8047 453.7864 276.7116 455.7952 272.112 447.2538 268.4853 468.744 251.6317 476.8022 252.8874 478.8368 267.6334 483.0576 282.0302 493.2234 302.5299 497.8074 324.7446 471.1806 318.163 469.4426 316.2189 454.1301 316.1422 454.3112 316.607 454.2115 316.7326 Z" id="geometry_finland_selected_all.fid-3c92ea55_173c704bce9_64e8"/>
<path d="M 454.2567 316.7622 454.2115 316.7326 454.3112 316.607 454.1301 316.1422 469.4426 316.2189 471.1806 318.163 497.8074 324.7446 501.9709 343.814 496.1312 342.5342 489.7658 345.3912 482.5079 354.4214 473.1265 363.2354 458.0932 371.8045 452.309 365.781 455.0015 362.1904 455.7656 352.4376 457.8668 345.4254 457.0361 340.8627 461.9277 335.2162 457.2218 321.3637 454.2567 316.7622 Z" id="geometry_finland_selected_all.fid-3c92ea55_173c704bce9_64e9"/>
<path d="M 454.4184 402.3472 454.3242 399.1003 492.4648 386.9654 479.5612 401.5923 479.5612 417.6208 479.4873 435.0409 477.3233 440.23 476.489 440.4786 476.5629 441.3841 476.2995 441.9403 476.1656 442.0688 476.0981 442.2157 476.1062 442.2473 476.1064 442.248 476.1037 442.2471 466.8794 441.2085 460.1296 424.9185 459.9966 419.8005 455.883 411.8486 454.4184 402.3472 Z" id="geometry_finland_selected_all.fid-3c92ea55_173c704bce9_64ea"/>
<path d="M 517.7814 303.3763 498.261 300.1303 493.2234 302.5299 483.0576 282.0302 478.8368 267.6334 476.8022 252.8874 473.1395 222.3179 476.4742 211.4952 472.7764 199.8917 474.7232 199.1571 486.5781 181.7832 496.4084 175.8401 508.9443 174.8967 527.5535 184.156 544.7407 187.8862 540.6779 206.3818 545.4328 222.8354 534.0732 263.6944 534.7976 274.5606 523.5739 287.8328 517.7814 303.3763 Z" id="geometry_finland_selected_all.fid-3c92ea55_173c704bce9_64eb"/>
<path d="M 480.1332 442.2 480.1313 442.1917 475.6324 443.9759 476.124 442.7987 476.1434 442.2499 476.1064 442.248 476.1062 442.2473 476.0981 442.2157 476.1656 442.0688 476.2995 441.9403 476.5629 441.3841 476.489 440.4786 477.3233 440.23 479.4873 435.0409 479.5612 417.6208 488.1396 424.9739 501.5745 424.1193 509.3333 425.7141 509.2538 429.2021 497.9644 439.3799 488.2191 452.5386 484.9851 445.2335 480.1335 442.2001 480.1332 442.2 Z" id="geometry_finland_selected_all.fid-3c92ea55_173c704bce9_64ec"/>
<path d="M 485.1643 456.1606 485.1329 456.0183 482.2066 450.5898 476.2321 445.2039 480.1397 442.2249 480.1332 442.2 480.1335 442.2001 484.9851 445.2335 488.2191 452.5386 485.4683 456.0285 485.3399 455.9259 485.1643 456.1606 Z" id="geometry_finland_selected_all.fid-3c92ea55_173c704bce9_64ed"/>
<path d="M 543.9618 962.2767 544.2094 966.5659 538.8965 969.5717 534.8106 966.3821 530.0289 967.4197 529.1631 964.3262 520.6254 967.064 513.579 970.6361 509.1623 967.2441 508.9415 962.6038 505.0469 957.7233 499.2211 961.1365 492.5073 955.0428 488.913 954.895 487.6998 951.0604 488.8973 950.1429 488.3272 944.5379 484.0361 943.4984 486.8211 937.7022 486.8968 930.9977 493.982 928.5454 496.1562 924.6545 497.398 917.3789 494.6769 911.5827 486.0939 910.7872 481.059 906.9175 480.6432 902.5654 480.8761 893.1647 478.0357 886.6663 483.8514 889.6609 494.432 887.1468 506.9429 886.5831 510.7045 871.5617 510.5382 867.1062 515.8114 866.817 518.3995 863.4454 523.7661 866.5269 527.536 854.5621 537.2564 862.3828 538.331 868.0422 550.221 871.5987 550.2311 874.7939 547.8417 885.5409 547.6162 893.611 550.1581 899.2797 554.0749 904.2564 558.2458 904.3063 559.7538 909.3319 555.4295 911.6557 553.2914 918.1144 545.7682 924.0067 541.1141 921.3623 536.5153 926.9229 539.3308 929.4213 539.6606 938.8831 536.7584 943.856 540.9219 946.9283 537.4661 954.165 543.7105 957.7686 543.9618 962.2767 Z" id="geometry_finland_selected_all.fid-3c92ea55_173c704bce9_64ee"/>
<path d="M 545.1307 406.2039 544.6225 407.7775 532.1855 413.1939 523.1054 410.1448 519.0676 412.9685 509.3333 425.7141 501.5745 424.1193 488.1396 424.9739 479.5612 417.6208 479.5612 401.5923 492.4648 386.9654 492.8751 386.4582 514.8689 400.3116 532.8914 400.3144 545.1307 406.2039 Z" id="geometry_finland_selected_all.fid-3c92ea55_173c704bce9_64ef"/>
<path d="M 502.2176 463.9924 494.1003 455.9241 485.1736 456.205 485.1643 456.1606 485.3399 455.9259 485.4683 456.0285 488.2191 452.5386 497.9644 439.3799 509.2538 429.2021 509.3333 425.7141 519.0676 412.9685 523.1054 410.1448 532.1855 413.1939 535.4629 420.7929 528.3186 433.3333 539.0536 445.6973 532.58 449.0431 517.0994 448.5109 508.5867 455.9758 502.2176 463.9924 Z" id="geometry_finland_selected_all.fid-3c92ea55_173c704bce9_64f0"/>
<path d="M 594.2123 388.6332 594.6568 402.3897 587.8793 402.1106 580.1538 392.6277 566.3872 393.3669 567.8868 400.4909 561.745 403.3164 560.347 399.7378 545.1307 406.2039 532.8914 400.3144 514.8689 400.3116 492.8751 386.4582 503.5814 372.6029 501.9709 343.814 497.8074 324.7446 493.2234 302.5299 498.261 300.1303 517.7814 303.3763 539.8925 307.0686 555.4831 320.265 558.5212 324.3777 564.334 325.6196 562.3317 326.4669 569.8688 337.9254 572.1409 359.3177 571.4026 363.6392 590.7169 386.4018 594.2123 388.6332 Z" id="geometry_finland_selected_all.fid-3c92ea55_173c704bce9_64f1"/>
<path d="M 537.5225 98.1127 537.5216 98.0989 542.4465 95.2807 552.6169 89.4836 592.4096 66.9852 595.2435 63.6709 615.771 55.3004 622.4782 45.5125 631.0714 25.7834 633.7722 28.8991 660.1273 40.8075 668.2677 62.8984 664.3093 71.3659 650.8144 89.6776 650.1861 101.3366 654.9474 107.3277 639.2765 120.3182 638.3571 124.9465 650.7636 126.2807 647.6479 140.4964 637.921 160.5896 639.8068 168.1349 639.8115 168.1525 639.8112 168.1525 639.7754 168.1626 639.6858 168.268 639.2608 168.3225 638.3608 168.8575 638.3608 169.1975 635.7597 170.0938 631.6775 168.7789 602.9256 181.3683 553.1713 184.2401 544.7407 187.8862 527.5535 184.156 508.9443 174.8967 504.7955 158.3443 505.4848 153.1385 513.2131 149.4933 515.1073 133.4149 521.1133 127.0227 527.3521 122.9183 533.82 122.9811 537.5465 109.1813 537.5225 98.1127 Z" id="geometry_finland_selected_all.fid-3c92ea55_173c704bce9_64f2"/>
<path d="M 639.8115 168.1525 640.1515 169.5153 646.8708 195.754 646.8902 195.7633 617.7271 246.91 615.3626 252.7497 599.2694 262.8443 592.5907 275.9863 593.864 282.3961 587.2759 285.0285 584.5289 302.7165 564.334 325.6196 558.5212 324.3777 555.4831 320.265 539.8925 307.0686 517.7814 303.3763 523.5739 287.8328 534.7976 274.5606 534.0732 263.6944 545.4328 222.8354 540.6779 206.3818 544.7407 187.8862 553.1713 184.2401 602.9256 181.3683 631.6775 168.7789 635.7597 170.0938 638.3608 169.1975 638.3608 168.8575 639.2608 168.3225 639.6858 168.268 639.7754 168.1626 639.8112 168.1525 639.8115 168.1525 Z" id="geometry_finland_selected_all.fid-3c92ea55_173c704bce9_64f3"/>
<path d="M 526.8825 1086.2918 531.7689 1084.5903 533.0207 1001.5186 528.757 999.6445 528.9183 992.1635 529.1358 988.8683 532.7838 990.7005 576.5353 974.4044 604.9337 975.4161 611.7259 970.0122 632.8234 976.1928 649.3611 973.2414 653.1631 964.9642 664.597 954.7647 676.2384 954.4589 675.4409 996.2335 691.6665 1011.6585 706.3973 1009.1663 732.299 1014.093 740.8445 1027.6357 744.9058 1029.4354 756.2229 1036.8415 751.4182 1060.9634 702.1266 1057.0465 694.3799 1065.258 667.6451 1079.9265 653.9096 1098.1185 645.2904 1073.5255 644.0537 1076.668 646.819 1109.8121 627.1627 1113.3222 591.566 1113.5813 566.9733 1102.8442 552.2805 1097.3896 526.6952 1094.9227 526.8825 1086.2918 Z" id="geometry_finland_selected_all.fid-3c92ea55_173c704bce9_64f4"/>
<path d="M 594.6568 402.3897 595.2786 408.111 603.4153 412.0408 603.0744 425.8527 601.219 429.4932 588.5113 448.4591 576.3718 453.6122 548.1494 450.8449 548.372 440.9018 539.0536 445.6973 528.3186 433.3333 535.4629 420.7929 532.1855 413.1939 544.6225 407.7775 545.1307 406.2039 560.347 399.7378 561.745 403.3164 567.8868 400.4909 566.3872 393.3669 580.1538 392.6277 587.8793 402.1106 594.6568 402.3897 Z" id="geometry_finland_selected_all.fid-3c92ea55_173c704bce9_64f5"/>
<path d="M 537.5216 98.0989 537.5197 98.0767 536.0478 92.202 538.0113 80.4506 541.8708 72.3555 540.6299 68.5311 543.2975 58.9178 547.0627 50.5289 544.239 44.5857 548.3 39.0889 552.9624 37.4738 556.8506 29.6392 562.0601 25.4803 564.8931 16.9084 572.6112 14.4931 585.0472 20.0223 594.6254 15.0549 599.0069 8.6895 602.3721 8.3199 605.4694 2.9275 617.497 1 618.5208 9.0397 624.9222 18.5356 631.5343 22.5291 631.0714 25.7834 622.4782 45.5125 615.771 55.3004 595.2435 63.6709 592.4096 66.9852 552.6169 89.4836 542.4465 95.2807 537.5216 98.0989 Z" id="geometry_finland_selected_all.fid-3c92ea55_173c704bce9_64f6"/>
<path d="M 556.3988 991.0305 556.9744 987.4695 563.2668 977.8119 571.1134 981.3415 571.3462 981.2565 567.7537 973.6576 563.7815 974.1538 560.4875 979.1849 556.4856 974.6638 550.853 972.3058 548.5762 963.2571 543.9618 962.2767 543.7105 957.7686 537.4661 954.165 540.9219 946.9283 536.7584 943.856 539.6606 938.8831 539.3308 929.4213 536.5153 926.9229 541.1141 921.3623 545.7682 924.0067 553.2914 918.1144 555.4295 911.6557 559.7538 909.3319 566.0388 908.3339 567.5126 912.5123 577.7634 909.038 579.4321 918.7843 585.4381 921.9453 594.058 920.8762 595.237 928.2793 591.2491 930.6272 594.2096 937.6421 594.5154 947.4817 601.8695 949.5764 605.3631 953.7437 609.218 958.1659 619.7266 958.469 620.4473 961.8286 626.7998 961.9598 629.386 968.5497 633.8646 971.3116 628.7827 977.1355 628.7227 977.2041 628.5406 977.4127 626.7443 982.478 613.2679 991.5868 608.8059 987.9453 604.4705 990.6194 604.464 990.6118 604.3994 990.5371 596.7893 986.4937 588.7312 985.421 585.3161 987.1276 585.2607 987.0703 585.2403 986.9844 585.1914 986.8726 584.4744 984.3935 584.443 984.4116 584.4263 984.4212 581.9934 991.9157 575.8359 992.8397 575.7583 992.7843 566.4796 997.6537 561.4576 997.2361 556.3988 991.0305 Z" id="geometry_finland_selected_all.fid-3c92ea55_173c704bce9_64f7"/>
<path d="M 569.9371 788.0132 566.2994 788.2073 559.2853 779.7352 562.7531 776.7775 564.4883 768.5631 557.6526 753.3551 553.4244 757.6277 543.8971 747.2715 540.0515 742.8604 538.805 738.0002 551.7077 735.8085 547.4961 728.836 552.7296 727.9434 548.8137 724.6854 544.9302 716.4258 544.0209 703.209 540.8692 694.9226 545.8717 686.3008 544.1198 684.3715 545.4023 681.9941 546.9232 672.8955 551.3695 670.8369 549.4328 644.9216 563.9044 632.4264 577.9888 624.991 589.232 629.709 595.6325 629.8448 608.2931 633.1388 617.4526 637.9806 625.9053 644.4688 637.1781 657.633 642.0993 662.2973 645.8036 653.3438 650.576 659.0578 654.6758 658.7446 657.5457 671.553 660.4156 672.9796 657.5595 676.5231 660.7168 687.1712 665.1465 690.7028 662.9926 702.6749 658.6933 709.8045 665.9263 716.5358 670.7607 724.5718 680.4774 731.5886 676.2021 734.5509 676.0866 739.5858 682.5111 745.9863 673.3996 751.4147 666.0021 749.9557 661.347 755.3814 664.3759 762.1691 662.1915 766.0582 658.7192 774.0526 653.4441 773.8429 650.9678 775.4719 649.6335 786.508 643.4705 789.6764 646.758 797.5683 658.9354 803.9438 663.1774 809.6911 662.3893 817.5653 656.1486 813.0821 650.5668 811.8976 646.3829 810.1817 634.2 810.0607 627.1601 804.8225 623.7654 805.8131 619.2905 801.218 620.074 796.672 616.9241 795.9522 610.1078 787.6861 603.2592 782.7372 597.6727 786.8961 590.0091 783.2722 582.3584 788.0243 578.0914 784.6785 575.8193 789.0795 569.9371 788.0132 Z" id="geometry_finland_selected_all.fid-3c92ea55_173c704bce9_64f8"/>
<path d="M 594.058 920.8762 585.4381 921.9453 579.4321 918.7843 577.7634 909.038 567.5126 912.5123 566.0388 908.3339 559.7538 909.3319 558.2458 904.3063 554.0749 904.2564 550.1581 899.2797 547.6162 893.611 547.8417 885.5409 550.2311 874.7939 553.2036 869.6953 560.1021 873.0143 560.8774 865.468 554.1331 849.5938 551.4665 846.1898 551.5644 839.5971 555.4831 837.3564 551.5219 830.7184 546.2376 822.2306 550.9306 813.9128 562.2162 807.8292 568.6565 802.9662 573.1388 798.179 568.4236 793.0555 569.9371 788.0132 575.8193 789.0795 578.0914 784.6785 582.3584 788.0243 590.0091 783.2722 597.6727 786.8961 603.2592 782.7372 610.1078 787.6861 616.9241 795.9522 620.074 796.672 619.2905 801.218 623.7654 805.8131 627.1601 804.8225 634.2 810.0607 646.3829 810.1817 650.5668 811.8976 656.1486 813.0821 662.3893 817.5653 663.1774 809.6911 658.9354 803.9438 646.758 797.5683 643.4705 789.6764 649.6335 786.508 650.9678 775.4719 653.4441 773.8429 658.7192 774.0526 662.1915 766.0582 668.6623 767.5948 676.1217 773.9011 684.1068 783.6141 683.1551 789.4122 687.3297 793.1765 693.5371 792.8827 694.268 798.313 700.4976 808.1489 699.5283 811.7673 702.5063 823.4521 712.6777 834.4061 710.7133 841.0385 714.886 845.8996 714.1671 853.5023 708.807 860.8462 708.4171 864.1929 701.4909 868.13 694.8492 878.282 684.4884 881.1038 679.8943 880.5134 672.8794 881.2831 673.0605 884.7545 666.4012 888.2971 653.6455 886.962 654.1121 889.8226 645.6483 897.9529 629.8573 901.197 622.9874 900.1067 621.1671 903.5061 614.2334 901.8956 608.9611 909.7458 602.0071 912.6573 602.6401 915.4773 601.4417 919.724 594.058 920.8762 Z" id="geometry_finland_selected_all.fid-3c92ea55_173c704bce9_64f9"/>
<path d="M 601.219 429.4932 606.0034 430.6574 611.3404 426.7295 615.9548 440.4388 616.1406 446.8615 618.8451 458.2572 617.0747 473.37 619.0742 481.4429 625.982 483.9387 632.8602 490.6395 634.0374 499.5625 626.8303 502.6856 624.8076 504.3201 622.6196 516.1158 612.7634 513.1905 608.6128 516.0142 598.1744 516.4466 584.0262 514.8278 579.3739 516.3163 567.6133 515.7435 554.2801 504.9059 550.7809 497.3772 557.0123 493.0123 558.1202 487.1652 547.5183 482.4058 547.7751 468.4017 548.1494 450.8449 576.3718 453.6122 588.5113 448.4591 601.219 429.4932 Z" id="geometry_finland_selected_all.fid-3c92ea55_173c704bce9_64fa"/>
<path d="M 594.2123 388.6332 590.7169 386.4018 571.4026 363.6392 572.1409 359.3177 569.8688 337.9254 562.3317 326.4669 564.334 325.6196 589.8825 318.394 597.3271 315.3522 600.0741 318.7127 607.358 318.9715 619.4928 331.3354 622.1484 342.5684 627.2645 349.7894 630.9661 350.5249 632.5766 357.7469 628.0351 370.7965 630.7656 377.9362 624.3124 379.3157 616.5028 378.0923 608.9454 382.7982 601.0037 392.9696 594.2123 388.6332 Z" id="geometry_finland_selected_all.fid-3c92ea55_173c704bce9_64fb"/>
<path d="M 619.4928 331.3354 607.358 318.9715 600.0741 318.7127 597.3271 315.3522 589.8825 318.394 564.334 325.6196 584.5289 302.7165 587.2759 285.0285 593.864 282.3961 592.5907 275.9863 614.4635 288.2791 619.1269 299.1056 628.3142 304.4629 638.3617 308.1275 627.466 315.4168 622.3119 316.4896 619.4928 331.3354 Z" id="geometry_finland_selected_all.fid-3c92ea55_173c704bce9_64fc"/>
<path d="M 701.5916 472.0274 700.8579 482.0519 701.9177 487.4572 696.0679 496.7286 697.5851 499.6013 707.3508 500.8404 705.9796 508.2259 698.0083 517.1969 697.0843 523.991 699.6235 537.1386 704.1095 544.8558 717.4196 543.9438 718.2706 552.1211 722.2124 558.5318 716.0521 565.1587 716.0695 565.2039 716.0706 565.2067 716.1981 570.6278 719.7638 579.1018 719.4154 584.1292 739.6796 597.5022 739.2859 603.4962 743.601 610.7042 742.9357 619.3417 734.3915 634.1127 732.0705 643.3212 719.262 650.6263 714.9054 651.6298 710.5885 656.5649 707.9819 652.1556 705.5333 638.6883 681.9049 642.8463 679.7936 643.0126 666.2784 643.6003 652.0054 640.115 645.8036 653.3438 642.0993 662.2973 637.1781 657.633 625.9053 644.4688 617.4526 637.9806 608.2931 633.1388 595.6325 629.8448 589.232 629.709 577.9888 624.991 573.9233 622.8945 573.5444 606.549 573.4215 601.4578 575.4987 597.2352 580.5862 596.6854 585.6922 599.5008 592.2276 596.8462 594.9062 587.6672 591.8552 583.3401 601.4315 569.8517 595.7665 563.0594 590.3334 542.7851 599.3876 545.1422 601.4592 540.6793 600.6701 529.9924 595.2426 522.958 598.1744 516.4466 608.6128 516.0142 612.7634 513.1905 622.6196 516.1158 624.8076 504.3201 626.8303 502.6856 634.0374 499.5625 653.0966 495.52 654.5131 484.7666 667.6449 478.439 674.4317 478.2265 678.3596 470.7764 682.9343 470.3569 690.9111 473.3635 692.7813 471.5183 701.5916 472.0274 Z" id="geometry_finland_selected_all.fid-3c92ea55_173c704bce9_64fd"/>
<path d="M 633.8646 971.3116 629.386 968.5497 626.7998 961.9598 620.4473 961.8286 619.7266 958.469 609.218 958.1659 605.3631 953.7437 601.8695 949.5764 594.5154 947.4817 594.2096 937.6421 591.2491 930.6272 595.237 928.2793 594.058 920.8762 601.4417 919.724 602.6401 915.4773 602.0071 912.6573 608.9611 909.7458 614.2334 901.8956 621.1671 903.5061 622.9874 900.1067 629.8573 901.197 645.6483 897.9529 654.1121 889.8226 653.6455 886.962 666.4012 888.2971 673.0605 884.7545 672.8794 881.2831 679.8943 880.5134 684.4884 881.1038 694.8492 878.282 701.4909 868.13 708.4171 864.1929 708.807 860.8462 736.0824 844.9701 736.6793 846.1427 732.3615 854.5353 722.9931 865.5465 718.606 874.7338 704.3368 891.6494 698.5969 899.7953 694.4851 908.0863 687.2761 914.3057 684.372 916.5593 684.2667 916.6527 681.1473 920.551 674.3836 923.833 672.4368 928.1878 672.3914 928.2428 672.3887 928.246 669.3525 931.9097 666.7986 941.583 660.0497 941.1709 641.0339 963.7792 633.8646 971.3116 Z" id="geometry_finland_selected_all.fid-3c92ea55_173c704bce9_64fe"/>
<path d="M 646.8902 195.7633 647.0094 195.8159 673.4024 207.4499 687.4018 234.8907 687.4323 234.9166 687.4321 234.917 685.4716 238.7484 684.3979 240.8468 680.9643 247.5578 673.2896 255.6178 670.9381 262.8471 660.7399 279.0152 660.6189 282.5226 651.0445 304.5867 638.3617 308.1275 628.3142 304.4629 619.1269 299.1056 614.4635 288.2791 592.5907 275.9863 599.2694 262.8443 615.3626 252.7497 617.7271 246.91 646.8902 195.7633 Z" id="geometry_finland_selected_all.fid-3c92ea55_173c704bce9_64ff"/>
<path d="M 647.6497 437.8858 635.5833 442.7978 632.2181 441.4469 615.9548 440.4388 611.3404 426.7295 606.0034 430.6574 601.219 429.4932 603.0744 425.8527 603.4153 412.0408 595.2786 408.111 594.6568 402.3897 594.2123 388.6332 601.0037 392.9696 608.9454 382.7982 616.5028 378.0923 624.3124 379.3157 630.7656 377.9362 634.4236 379.117 641.2538 371.4645 653.5309 371.7907 652.5201 379.3397 647.792 382.6633 649.664 393.8658 656.3685 395.5309 657.4801 402.7149 651.8594 414.5652 656.8314 416.537 657.0985 421.6004 646.0207 421.703 644.0609 427.6415 647.6497 437.8858 Z" id="geometry_finland_selected_all.fid-3c92ea55_173c704bce9_6500"/>
<path d="M 676.3009 847.4187 679.619 850.4272 679.9276 855.8123 682.7042 856.7455 690.6247 857.2213 692.3332 853.4302 695.6697 849.5901 696.6805 846.8948 694.6404 842.0909 695.8 840.717 695.9155 836.8833 694.8363 835.3319 697.4456 833.6207 699.9552 837.3961 704.9974 838.7202 704.492 836.073 702.2088 834.2434 701.2081 830.298 703.2224 829.3712 708.7636 835.2571 710.8565 833.4645 709.0417 832.0924 709.1221 829.1347 710.3113 826.9559 711.5393 827.0465 713.7763 831.1056 715.688 833.5347 715.1789 835.0288 716.7349 837.0764 719.4893 839.2321 716.6804 840.2827 716.5243 842.1612 712.127 843.2773 711.4783 845.1743 709.7966 846.5501 711.9505 847.9675 710.5876 851.256 704.4292 853.323 705.89 857.1798 702.7881 856.0617 702.5165 853.3193 700.4791 854.8106 702.4463 857.7009 699.2289 859.3826 700.4643 862.7912 698.7355 863.887 695.8979 862.2035 694.45 862.4983 695.6198 865.347 694.7272 869.2166 692.0208 870.8604 692.8099 873.1473 687.7797 870.1804 687.108 871.7142 684.5596 869.9586 682.2579 871.9646 685.5113 873.4559 686.8465 876.604 684.6991 876.4441 680.5033 873.0549 671.9896 863.8011 666.5897 863.5812 666.015 864.5227 667.1109 868.1078 664.2409 865.967 662.9529 867.729 661.3488 864.4996 659.134 864.8656 661.0781 874.5758 663.2495 874.7846 663.8538 877.4319 661.87 880.5346 663.5526 880.7499 664.179 883.7732 666.3948 884.2537 665.6085 886.4242 662.6868 886.3567 661.3368 884.1179 659.6607 882.9629 652.6273 883.1588 650.8763 883.9544 648.2586 886.426 647.7865 884.4607 651.0223 883.1902 651.6266 881.3247 655.232 882.7984 658.2442 882.8539 661.6177 881.989 661.152 877.3644 659.293 876.0921 655.1193 874.8355 653.5744 875.9295 647.2746 875.7567 647.7218 877.9382 646.0512 878.6756 644.3335 881.4143 643.5629 884.1188 641.2242 885.0862 641.0394 886.2412 645.0209 887.3953 646.2582 889.0345 641.8313 888.688 643.6969 895.9339 645.6363 896.4736 646.4522 894.7845 648.4979 894.3216 648.716 897.8854 650.9059 898.9489 653.4376 897.8799 655.2394 898.7558 653.408 900.8089 650.1556 899.1818 648.3381 899.0774 649.5282 903.9339 644.1117 904.6666 641.3407 903.0505 640.8981 904.7322 644.0628 906.1681 646.2286 906.0295 652.315 902.2661 656.4655 903.0274 656.3953 904.4587 660.1255 906.668 659.8344 903.4497 656.4665 902.6052 656.4766 901.076 661.8376 899.5338 664.946 900.0485 667.4093 899.6179 669.2074 902.449 670.8974 903.2289 673.8976 907.0912 675.9193 907.8636 676.2279 910.108 674.2321 912.6758 670.8891 913.5508 669.1705 916.1297 666.5944 915.9135 663.8196 919.2934 662.3689 918.8213 661.3858 921.0555 659.2116 921.1313 658.673 922.7436 655.1821 923.4551 653.4626 922.8416 652.4822 924.7201 650.369 925.7429 649.4801 928.392 647.4926 928.1749 645.4866 929.7826 642.0808 929.4509 639.6257 931.7027 636.4232 928.6341 636.1432 926.2465 633.338 923.6547 631.9649 924.4623 628.0287 922.788 626.4551 920.7441 628.4352 917.6053 631.9667 914.6873 636.7835 916.7247 638.9956 916.6767 639.865 918.3574 639.7033 919.0976 639.3559 919.9938 640.6754 922.4923 644.9267 927.5429 646.9022 927.8857 646.8153 924.9178 648.6125 921.6136 646.8708 920.0742 645.373 917.183 644.0203 916.5566 639.9039 916.418 639.0307 913.9287 636.0693 911.5698 636.3474 908.4328 633.5662 908.0142 630.7766 909.1572 628.7596 908.5492 625.1393 909.208 623.8485 905.8031 622.0698 905.987 618.1595 904.8135 617.9461 905.9759 621.0959 909.3411 618.6104 909.0907 616.634 907.8258 617.3353 905.1988 615.8606 904.5391 615.4032 901.4576 618.5319 900.1363 618.7314 898.6357 616.7735 896.9965 611.3044 896.8367 611.0706 893.0067 607.2129 892.4329 606.1753 893.562 602.665 890.7651 603.3386 888.6871 605.9489 890.3724 607.3663 889.5722 608.8253 890.9961 611.8726 892.2343 613.9904 890.754 618.6548 893.1195 619.3357 895.6567 622.8626 895.4738 626.979 894.3511 631.0372 895.3361 630.6075 893.2728 628.9554 891.775 629.1569 889.8199 628.0037 886.4565 631.3634 886.3891 630.3775 883.1468 630.3941 880.8793 625.6152 881.4087 624.6515 879.7234 622.165 877.9502 620.719 875.9424 617.6966 881.393 618.9717 882.8382 616.2413 886.609 615.8347 888.5023 614.0246 888.0513 611.9041 886.3336 613.3778 883.7871 614.9431 885.612 616.2163 884.4237 615.9456 882.4769 617.1671 881.3866 617.5783 877.1464 614.9412 876.1337 617.8148 873.8486 620.4787 872.871 619.3062 870.8623 621.0109 869.9374 623.4392 871.4555 625.2475 868.9228 628.3068 866.4382 629.2705 870.586 628.1091 872.6151 625.7843 879.8426 626.3904 880.9625 628.7485 880.7878 630.3091 877.3838 631.672 879.1662 633.9552 880.056 633.3629 882.5157 633.8184 885.2304 636.5738 887.5977 638.0143 885.2507 638.0411 882.6654 640.5784 881.2766 642.3561 883.837 644.2956 877.1824 642.4522 876.0496 644.9082 872.434 645.4072 864.4849 644.3169 861.3858 645.1873 859.0619 648.8666 859.6339 653.019 860.9681 652.5644 859.0111 653.9929 858.2553 654.4346 854.8947 656.2798 857.7693 658.977 857.8367 660.1837 855.074 663.9758 855.0204 660.8795 849.603 664.4821 851.6728 666.2072 851.0703 669.3719 851.3041 674.0676 850.88 674.8235 846.9632 676.3009 847.4187 Z M 663.7041 862.976 661.8912 861.2102 660.7381 862.137 662.7949 864.094 663.7041 862.976 Z M 707.4146 839.331 707.1457 836.2217 705.5795 837.1836 707.4146 839.331 Z M 673.4153 854.2914 674.8623 856.9839 676.2547 856.083 673.4153 854.2914 Z M 694.5526 857.226 696.3146 856.9562 695.6568 854.1343 693.7681 853.6954 694.5526 857.226 Z M 635.8383 892.128 637.726 895.7297 638.869 893.1453 637.9154 891.0802 635.8383 892.128 Z M 642.8634 914.2937 644.34 913.4787 643.3328 911.6779 640.1737 910.4859 639.2469 911.044 642.8634 914.2937 Z M 621.3667 900.5576 619.7053 899.9201 616.4483 901.0168 617.813 902.4481 620.6811 901.8475 621.3667 900.5576 Z M 664.569 861.7415 665.4135 859.0278 663.9656 856.6928 662.0141 857.9781 662.745 860.0368 664.569 861.7415 Z M 683.0304 868.4719 681.8689 866.4567 679.5931 867.1099 681.0789 870.5158 683.0304 868.4719 Z M 670.4576 862.6175 669.6047 860.216 666.8873 860.2179 667.0009 862.9039 670.4576 862.6175 Z M 625.4895 877.916 626.4468 875.8565 624.0389 873.4707 622.3711 877.8024 625.4895 877.916 Z M 639.2866 889.8411 641.0173 892.1973 639.0538 894.7614 642.4485 894.9822 642.1649 891.7464 639.2866 889.8411 Z M 703.4885 843.7412 703.6872 841.6437 700.5743 840.9489 700.2684 843.4982 703.4885 843.7412 Z M 665.8515 852.4702 665.0781 853.6353 669.6278 855.1608 669.6639 852.9165 665.8515 852.4702 Z M 664.2816 912.8514 662.1684 910.8722 659.3595 910.7095 658.855 911.9514 663.5147 915.6788 664.2816 912.8514 Z M 625.4794 899.0367 628.2255 898.972 629.9571 897.2054 629.1061 895.2871 625.5866 896.8145 624.6579 895.8979 621.9968 896.0485 621.022 897.5999 622.493 899.3786 625.4794 899.0367 Z M 638.6509 923.8238 639.7699 923.2879 638.9161 921.1996 639.5481 920.8522 639.1249 919.5411 639.5315 919.5097 639.562 918.2188 638.1242 916.8144 635.708 918.727 632.5784 915.9301 630.857 917.3669 628.8483 917.7578 629.1153 920.7506 632.1987 921.025 634.0402 920.345 636.4222 920.8116 637.1097 923.3184 638.6509 923.8238 Z M 663.6939 909.8142 664.7593 911.8461 667.3881 911.6807 668.1892 909.889 670.1628 908.4005 673.6722 911.0376 675.0905 909.9214 673.0448 906.4111 669.9669 904.5502 668.8175 905.0344 666.9242 903.1439 666.0936 900.978 662.3874 899.8646 662.5038 901.9066 660.2992 905.5167 663.6939 909.8142 Z M 655.184 860.7593 652.545 862.502 651.1757 860.8831 646.1907 859.4796 644.9794 861.4006 645.5837 863.7956 646.0623 872.2991 647.1591 874.2339 648.7825 874.6932 651.3965 873.8514 653.3886 874.367 655.2246 873.102 659.6903 872.4968 656.8231 863.6921 655.184 860.7593 Z M 685.7783 866.5546 686.5739 867.9766 689.0447 864.9718 690.7106 866.0168 692.8053 863.7484 693.4798 859.5018 691.9756 856.8841 688.8081 859.8806 686.4362 857.7693 682.6173 858.0298 680.7795 857.2398 679.7872 860.5219 680.5892 862.6554 683.667 866.3809 683.886 863.5636 685.6748 863.6339 685.7783 866.5546 Z M 632.5322 896.8958 633.7371 899.009 636.693 900.1446 639.9112 898.6339 635.3449 893.9575 633.2816 892.2888 632.5322 896.8958 Z" id="geometry_finland_selected_all.fid-3c92ea55_173c704bce9_6501"/>
<path d="M 678.3596 470.7764 674.4317 478.2265 667.6449 478.439 654.5131 484.7666 653.0966 495.52 634.0374 499.5625 632.8602 490.6395 625.982 483.9387 619.0742 481.4429 617.0747 473.37 618.8451 458.2572 616.1406 446.8615 615.9548 440.4388 632.2181 441.4469 635.5833 442.7978 647.6497 437.8858 650.0438 438.6823 653.4801 448.6005 653.9791 458.8106 657.4949 462.3772 662.5778 462.8956 665.9734 457.9254 670.1305 463.8547 678.3596 470.7764 Z" id="geometry_finland_selected_all.fid-3c92ea55_173c704bce9_6502"/>
<path d="M 687.4323 234.9166 687.7141 235.1624 701.9713 247.5689 699.3158 263.2361 696.6122 266.7787 688.846 282.7638 683.861 289.2031 667.3585 318.8329 665.9734 326.1629 669.8339 338.8632 680.13 355.1255 689.8227 376.0614 676.8091 376.552 676.9329 379.0736 653.5309 371.7907 641.2538 371.4645 634.4236 379.117 630.7656 377.9362 628.0351 370.7965 632.5766 357.7469 630.9661 350.5249 627.2645 349.7894 622.1484 342.5684 619.4928 331.3354 622.3119 316.4896 627.466 315.4168 638.3617 308.1275 651.0445 304.5867 660.6189 282.5226 660.7399 279.0152 670.9381 262.8471 673.2896 255.6178 680.9643 247.5578 684.3979 240.8468 685.4716 238.7484 687.4321 234.917 687.4323 234.9166 Z" id="geometry_finland_selected_all.fid-3c92ea55_173c704bce9_6503"/>
<path d="M 709.4825 767.593 710.5756 769.1009 712.7359 769.076 713.9472 771.7907 716.2424 772.7507 717.4806 774.8112 716.4383 776.0974 718.4489 781.9906 721.4205 786.3574 718.8333 787.0033 720.2433 789.013 718.5321 791.2324 717.6755 795.2629 714.9756 793.7161 713.4945 794.5477 715.7684 796.5029 714.8389 797.4084 715.4737 799.6075 711.8812 799.4357 708.8588 797.8769 707.3111 800.2192 704.1963 801.4259 705.2275 802.6086 704.6731 804.7477 706.7096 806.5245 708.577 810.0865 710.3631 811.2 713.975 811.6462 716.2702 810.5957 719.8017 811.5982 723.0911 814.1253 726.2419 813.7502 727.9633 815.6065 726.8693 818.4847 724.83 819.1361 722.3075 821.7104 719.7906 816.8465 716.8098 815.2507 713.7107 815.1131 710.1385 817.1412 704.9946 812.8788 702.4204 813.7012 704.7304 816.1387 704.8801 820.0805 701.9981 822.4182 699.4636 822.9522 700.8903 824.693 699.3906 825.6272 697.8448 823.5833 697.2562 820.6561 691.5838 817.74 690.2468 818.5226 688.068 817.2992 683.9581 817.8934 682.743 819.102 679.8509 819.2461 678.9278 818.031 675.0304 822.371 670.2746 823.478 667.7549 822.7656 666.8013 821.0608 664.8489 822.9652 661.7083 821.0996 660.4479 818.3036 658.1934 817.3048 657.4514 815.3912 655.9111 815.5132 654.1103 813.3455 653.5522 816.0676 651.9611 816.5656 656.5764 820.2172 657.9633 819.6905 661.2897 822.3544 661.9864 823.7247 665.1317 824.851 664.6974 830.5142 666.5315 831.4733 666.5315 833.2483 670.9325 835.2478 672.1319 837.8433 673.6897 839.2367 670.6193 841.2566 672.2418 842.4236 675.3769 843.0547 676.7842 844.0396 676.105 846.5012 674.5629 845.6243 672.3499 845.8544 671.3585 844.145 668.7731 844.9756 667.2264 843.9371 668.6114 840.3621 667.9924 838.3913 664.6919 837.7722 663.6939 836.6172 660.4452 835.4382 657.9772 833.6401 654.8467 832.5341 655.3817 830.9411 651.2782 826.4117 650.187 826.9199 648.1376 825.1809 646.8865 822.9273 648.1976 821.5533 646.4411 817.4508 644.9221 817.3907 643.6257 815.3394 640.7835 814.7527 639.2718 813.3833 636.3594 813.205 632.729 813.7927 628.4805 811.7608 630.4662 810.7777 631.6202 808.683 627.9123 807.102 626.3535 802.6807 629.3823 799.6269 628.4565 797.1238 626.4246 795.1465 623.9382 791.2001 623.8199 788.0548 623.028 785.1516 626.785 785.3327 625.8702 787.2722 627.7663 789.6256 634.5761 794.0192 632.5202 798.8388 630.6732 798.8314 630.0661 800.8632 627.5306 802.3795 628.6173 805.9313 633.6817 809.485 635.21 808.2053 637.6031 808.537 642.0022 811.2184 647.3217 807.8948 644.7594 804.3836 646.5732 803.6925 649.3951 803.7784 648.4527 806.6927 651.743 812.002 655.2071 812.926 658.0105 812.5351 660.545 810.9394 659.4473 805.4998 660.3472 804.0316 662.7616 802.7103 663.5036 801.0138 665.4458 802.4322 667.7263 799.6177 665.3701 798.507 662.8781 796.3126 665.0245 795.6602 668.0912 798.4692 668.1328 802.1005 663.0074 804.1776 663.8427 806.0579 663.8002 808.8835 666.9409 809.1801 668.5421 812.3032 665.2333 810.9763 662.5593 813.1542 662.1675 815.3579 663.5581 819.5085 665.3858 820.8927 666.4863 819.588 663.6126 817.2974 664.2225 815.2822 666.5325 814.7546 670.0538 818.2731 668.3906 819.174 669.881 822.5272 671.024 821.0664 672.9939 820.6626 674.4982 818.3988 678.2561 818.1271 681.1935 815.7802 682.2487 817.4988 684.4238 816.4926 689.8994 816.5702 690.9398 815.0521 693.0991 815.6397 695.2992 814.1937 697.4622 809.3788 691.9793 806.9237 694.0629 802.9284 692.8765 800.9205 691.0895 795.0208 690.6857 791.5216 693.4789 789.6524 694.4251 788.235 694.5166 784.2276 692.1234 779.0985 690.2458 773.3273 692.2768 771.2353 694.6099 769.8974 695.9672 773.671 693.9372 773.0491 695.7427 778.5441 695.3177 783.6363 697.72 783.8451 698.2726 787.7296 700.1067 789.6044 701.3513 789.4833 699.9441 786.0922 699.3657 781.4861 701.3864 782.266 704.3174 785.8381 705.8013 786.6596 706.7124 791.4865 710.7456 792.7921 710.2365 790.1809 711.0256 788.758 708.4716 786.5117 706.7068 786.1292 706.0831 783.7 707.8082 782.2697 705.8336 779.8146 705.4844 777.9232 706.084 774.5026 709.5148 774.9711 706.9147 770.6597 706.3649 768.8043 709.4825 767.593 Z M 700.833 799.6851 700.6814 797.7041 698.1451 797.7281 696.468 799.614 697.0603 801.425 700.1982 803.0244 702.5073 803.4467 702.7808 801.0933 700.833 799.6851 Z M 705.5897 792.5731 703.2501 792.3412 701.2636 794.6503 699.5292 792.6757 697.4438 792.8282 698.1876 796.3892 701.9307 796.7866 702.5119 798.981 703.9016 800.1333 705.3476 799.0993 705.5574 796.4613 706.8944 794.6568 705.5897 792.5731 Z" id="geometry_finland_selected_all.fid-3c92ea55_173c704bce9_6504"/>
<path d="M 701.5916 472.0274 692.7813 471.5183 690.9111 473.3635 682.9343 470.3569 678.3596 470.7764 670.1305 463.8547 665.9734 457.9254 662.5778 462.8956 657.4949 462.3772 653.9791 458.8106 653.4801 448.6005 650.0438 438.6823 647.6497 437.8858 644.0609 427.6415 646.0207 421.703 657.0985 421.6004 656.8314 416.537 651.8594 414.5652 657.4801 402.7149 656.3685 395.5309 649.664 393.8658 647.792 382.6633 652.5201 379.3397 653.5309 371.7907 676.9329 379.0736 676.8091 376.552 689.8227 376.0614 696.2296 392.7811 705.7773 406.8868 709.5851 422.0015 712.9992 430.4856 717.1054 453.6215 711.8202 451.014 699.5616 457.7009 705.963 465.3155 701.5916 472.0274 Z" id="geometry_finland_selected_all.fid-3c92ea55_173c704bce9_6505"/>
<path d="M 736.6793 846.1427 736.0824 844.9701 708.807 860.8462 714.1671 853.5023 714.886 845.8996 710.7133 841.0385 712.6777 834.4061 702.5063 823.4521 699.5283 811.7673 700.4976 808.1489 694.268 798.313 693.5371 792.8827 687.3297 793.1765 683.1551 789.4122 684.1068 783.6141 676.1217 773.9011 668.6623 767.5948 662.1915 766.0582 664.3759 762.1691 661.347 755.3814 666.0021 749.9557 673.3996 751.4147 682.5111 745.9863 676.0866 739.5858 676.2021 734.5509 680.4774 731.5886 670.7607 724.5718 665.9263 716.5358 658.6933 709.8045 662.9926 702.6749 665.1465 690.7028 660.7168 687.1712 657.5595 676.5231 660.4156 672.9796 657.5457 671.553 654.6758 658.7446 650.576 659.0578 645.8036 653.3438 652.0054 640.115 666.2784 643.6003 679.7936 643.0126 681.9049 642.8463 705.5333 638.6883 707.9819 652.1556 710.5885 656.5649 714.9054 651.6298 719.262 650.6263 732.4539 665.4463 739.2176 671.4652 744.2219 679.3238 758.5605 684.8446 765.6198 689.5505 767.9593 694.2731 776.0424 698.5641 780.7474 705.1115 782.5649 713.2769 792.4055 722.004 799 733.4273 793.0014 746.6719 789.5845 761.8402 784.6892 776.7885 779.1295 785.6145 779.0907 785.6691 765.7066 803.4338 765.64 803.5194 765.6383 803.5216 759.5362 808.2118 757.3195 815.26 751.9872 823.5889 751.9648 823.6257 751.9428 823.6619 736.6793 846.1427 Z" id="geometry_finland_selected_all.fid-3c92ea55_173c704bce9_6506"/>
</g>
</svg>